<svg width="35" height="39" viewBox="0 0 35 39" fill="none" xmlns="http://www.w3.org/2000/svg">
<path fill-rule="evenodd" clip-rule="evenodd" d="M0 6.12684C0 2.74308 2.69495 0 6.01935 0H24.88C28.2044 0 30.8993 2.74308 30.8993 6.12685V26.2933C30.8993 29.677 28.2044 32.4201 24.88 32.4201H9.9339L4.23717 35.9422C4.23717 35.9422 3.25172 36.4623 2.96733 36.1993C2.72604 35.9761 2.86151 35.4212 2.86151 35.4212L3.79222 31.9871C1.57031 31.0859 0 28.8762 0 26.2933V6.12684ZM7.25825 7.29311H7.24361C7.0437 7.51205 6.91447 7.80414 6.91447 8.12559C6.91447 8.46147 7.0437 8.75356 7.25825 8.95757C7.45816 9.17702 7.74439 9.30838 8.07404 9.30838C8.38854 9.30838 8.67477 9.17702 8.87518 8.95757C9.08973 8.75356 9.21846 8.46147 9.21846 8.12559C9.21846 7.80414 9.08973 7.51205 8.87518 7.30753V7.29311C8.67477 7.08859 8.38854 6.95723 8.07404 6.95723C7.74439 6.95723 7.45816 7.08859 7.25825 7.29311ZM9.748 9.84878C9.31841 10.2867 8.71767 10.5643 8.07403 10.5643C7.41524 10.5643 6.81451 10.2867 6.38491 9.84878C5.95581 9.41038 5.68422 8.79735 5.68422 8.12559C5.68422 7.46825 5.95581 6.85522 6.38491 6.41683C6.81451 5.97895 7.41524 5.70128 8.07403 5.70128C8.71767 5.70128 9.31841 5.97895 9.748 6.41683C10.1771 6.85522 10.4492 7.45383 10.4492 8.12559C10.4492 8.79735 10.1771 9.41038 9.748 9.84878ZM8.07374 4.31391C7.02927 4.31391 6.09889 4.73788 5.42648 5.43849C4.73942 6.12519 4.32446 7.0741 4.32446 8.12553C4.32446 9.19138 4.73942 10.1408 5.42648 10.827C6.09889 11.5281 7.02927 11.9516 8.07374 11.9516C9.10408 11.9516 10.034 11.5281 10.7064 10.827C11.3934 10.1408 11.8089 9.19138 11.8089 8.12553C11.8089 7.0741 11.3934 6.12519 10.7064 5.43849C10.034 4.73788 9.10408 4.31391 8.07374 4.31391ZM17.5467 25.4151C17.5467 24.291 16.6597 23.371 15.5435 23.371C14.4415 23.371 13.5399 24.291 13.5399 25.4151C13.5399 26.5541 14.4415 27.4598 15.5435 27.4598C16.6597 27.4598 17.5467 26.5541 17.5467 25.4151ZM17.5467 18.0113C17.5467 16.8873 16.6597 15.9672 15.5435 15.9672C14.4415 15.9672 13.5399 16.8873 13.5399 18.0113C13.5399 19.1359 14.4415 20.056 15.5435 20.056C16.6597 20.056 17.5467 19.1359 17.5467 18.0113ZM23.0275 6.08142H16.7596C15.6581 6.08142 14.7565 7.00096 14.7565 8.12554C14.7565 9.26455 15.6581 10.1702 16.7596 10.1702H23.0275C24.1295 10.1702 25.0306 9.26455 25.0306 8.12554C25.0306 7.00096 24.1295 6.08142 23.0275 6.08142ZM21.0238 18.0113C21.0238 19.1359 21.9254 20.056 23.0275 20.056C24.1295 20.056 25.0306 19.1359 25.0306 18.0113C25.0306 16.8873 24.1295 15.9672 23.0275 15.9672C21.9254 15.9672 21.0238 16.8873 21.0238 18.0113ZM21.0238 25.4151C21.0238 26.5541 21.9254 27.4598 23.0275 27.4598C24.1295 27.4598 25.0306 26.5541 25.0306 25.4151C25.0306 24.291 24.1295 23.371 23.0275 23.371C21.9254 23.371 21.0238 24.291 21.0238 25.4151ZM6.07013 18.0113C6.07013 19.1359 6.9576 20.056 8.07376 20.056C9.17577 20.056 10.0769 19.1359 10.0769 18.0113C10.0769 16.8873 9.17577 15.9672 8.07376 15.9672C6.9576 15.9672 6.07013 16.8873 6.07013 18.0113ZM6.07013 25.4151C6.07013 26.5541 6.9576 27.4598 8.07376 27.4598C9.17577 27.4598 10.0769 26.5541 10.0769 25.4151C10.0769 24.291 9.17577 23.371 8.07376 23.371C6.9576 23.371 6.07013 24.291 6.07013 25.4151Z" fill="#0DA7E2"/>
<path opacity="0.6" fill-rule="evenodd" clip-rule="evenodd" d="M13.6491 36.155C11.5953 36.155 10.3672 35.0289 10.3672 34.2166C10.625 34.2442 10.8867 34.2584 11.1516 34.2584H25.3235C29.4294 34.2584 32.7579 30.8617 32.7579 26.6717V7.23099C32.7579 6.16988 32.5445 5.15964 32.1589 4.24257C33.4549 4.24257 34.6165 5.83278 34.6165 8.2386V27.2644C34.6165 30.8227 32.5681 33.8927 29.609 35.3135L30.4012 38.2457C30.4012 38.2457 30.5208 38.7368 30.3079 38.9343C30.057 39.167 29.1876 38.7067 29.1876 38.7067L25.0731 36.155H13.6491Z" fill="#87C9EF"/>
</svg>
