<svg width="118" height="38" fill="none" xmlns="http://www.w3.org/2000/svg"><rect x=".372" y=".321" width="116.313" height="37.272" rx="5.462" fill="#000" stroke="#EFF2F5" stroke-width=".643"/><path d="M12.522 18.297V8.973c0-.178 0-.356.06-.534.058-.178.177-.357.296-.475.119-.12.178-.12.297 0 2.079 2.137 4.216 4.275 6.295 6.413a272.35 272.35 0 0 1 4.097 4.157c.12.119.12.178 0 .357-3.325 3.266-6.65 6.591-10.036 9.917 0 .06-.06.06-.119.119-.059 0-.118.059-.118.059h-.178a.128.128 0 0 1-.12-.119.924.924 0 0 1-.356-.475 2.11 2.11 0 0 1-.118-.594v-9.502ZM13.71 7.607c.237 0 .415.06.593.179 4.276 2.375 8.552 4.75 12.768 7.185.178.119.178.178.06.297l-2.851 2.85c-.119.12-.178.179-.297 0-3.385-3.444-6.77-6.947-10.155-10.392l-.119-.119ZM14.66 28.749c3.088-3.147 6.176-6.295 9.323-9.383.178-.178.297-.178.475 0 .772.831 1.604 1.603 2.376 2.435.119.119.178.178-.06.297-3.979 2.197-7.957 4.335-11.936 6.532-.06 0-.119.06-.178.119ZM32.357 18.416c0 .178-.06.297-.12.415-.059.12-.177.238-.296.357-.178.119-.416.237-.594.356-1.188.653-2.435 1.307-3.623 2.02 0 0-.059.059-.118.059h-.12c-.058 0-.058 0-.118-.06-.06 0-.06-.06-.06-.06-.83-.89-1.721-1.78-2.553-2.612-.119-.119-.119-.178 0-.297 1.01-1.01 2.02-2.02 3.029-2.97l.06-.059s.059 0 .118-.06h.119c.06 0 .06 0 .06.06 1.187.653 2.375 1.307 3.562 2.02.178.059.357.177.475.356.06.059.179.297.179.475ZM44.858 22.776h2.838v3.916c-.418.14-.847.242-1.287.308-.432.073-.927.11-1.485.11-.8 0-1.477-.161-2.035-.484a3.18 3.18 0 0 1-1.265-1.386c-.286-.601-.429-1.324-.429-2.167 0-.821.162-1.533.484-2.134a3.391 3.391 0 0 1 1.386-1.397c.609-.337 1.346-.506 2.211-.506.433 0 .847.044 1.243.132.396.08.763.194 1.1.341l-.429.99a4.936 4.936 0 0 0-.913-.308 4.04 4.04 0 0 0-1.045-.132c-.58 0-1.081.125-1.507.374a2.43 2.43 0 0 0-.968 1.045c-.22.447-.33.983-.33 1.606 0 .587.092 1.107.275 1.562.184.455.473.81.87 1.067.395.257.912.385 1.55.385.213 0 .4-.007.561-.022.162-.022.308-.044.44-.066.14-.03.272-.055.396-.077v-2.134h-1.66v-1.023Zm9.808 1.254c0 .491-.066.928-.198 1.309a2.736 2.736 0 0 1-.562.968 2.393 2.393 0 0 1-.88.605 3.24 3.24 0 0 1-1.166.198c-.395 0-.762-.066-1.1-.198a2.519 2.519 0 0 1-.88-.605 2.87 2.87 0 0 1-.572-.968 3.834 3.834 0 0 1-.209-1.32c0-.653.11-1.206.33-1.661.228-.455.55-.8.968-1.034.426-.242.925-.363 1.497-.363.542 0 1.019.121 1.43.363.418.235.744.58.979 1.034.242.455.363 1.012.363 1.672Zm-4.367 0c0 .44.054.821.165 1.144.11.315.282.557.517.726.234.169.535.253.901.253.367 0 .668-.084.903-.253.234-.169.407-.41.517-.726.11-.323.165-.704.165-1.144 0-.455-.06-.836-.176-1.144a1.391 1.391 0 0 0-.517-.704c-.228-.169-.529-.253-.903-.253-.55 0-.95.183-1.199.55-.249.367-.373.884-.373 1.551Zm11.07 0c0 .491-.066.928-.198 1.309a2.736 2.736 0 0 1-.561.968 2.392 2.392 0 0 1-.88.605 3.24 3.24 0 0 1-1.166.198c-.396 0-.763-.066-1.1-.198a2.52 2.52 0 0 1-.88-.605 2.87 2.87 0 0 1-.572-.968 3.836 3.836 0 0 1-.21-1.32c0-.653.11-1.206.33-1.661.228-.455.55-.8.969-1.034.425-.242.924-.363 1.496-.363.542 0 1.019.121 1.43.363.418.235.744.58.979 1.034.242.455.363 1.012.363 1.672Zm-4.367 0c0 .44.055.821.165 1.144.11.315.282.557.517.726.234.169.535.253.902.253.366 0 .667-.084.902-.253.234-.169.407-.41.517-.726.11-.323.165-.704.165-1.144 0-.455-.06-.836-.176-1.144a1.39 1.39 0 0 0-.517-.704c-.228-.169-.528-.253-.902-.253-.55 0-.95.183-1.2.55-.249.367-.373.884-.373 1.551Zm7.89-3.069c.382 0 .727.073 1.035.22.308.147.568.37.78.671h.056l.132-.781h.946v6.006c0 .557-.1 1.027-.297 1.408a1.892 1.892 0 0 1-.913.858c-.404.198-.913.297-1.53.297-.425 0-.817-.03-1.176-.088a4.45 4.45 0 0 1-.99-.275v-1.023c.212.103.436.187.67.253.235.073.485.125.749.154.264.037.535.055.814.055.484 0 .858-.14 1.122-.418.264-.271.396-.656.396-1.155v-.198c0-.095.003-.22.01-.374.008-.161.015-.279.023-.352h-.044a1.922 1.922 0 0 1-.76.682 2.36 2.36 0 0 1-1.022.209c-.748 0-1.335-.268-1.76-.803-.418-.543-.627-1.294-.627-2.255 0-.645.095-1.195.286-1.65.19-.462.462-.818.814-1.067.359-.25.788-.374 1.287-.374Zm.243.968c-.308 0-.569.084-.781.253-.213.161-.374.4-.484.715-.11.315-.165.704-.165 1.166 0 .69.12 1.214.363 1.573.249.36.612.539 1.089.539.278 0 .513-.037.704-.11a1.1 1.1 0 0 0 .484-.341c.132-.154.227-.348.286-.583.066-.242.099-.532.099-.869v-.22c0-.506-.059-.913-.176-1.221-.11-.315-.283-.543-.517-.682-.235-.147-.536-.22-.902-.22ZM70.834 27h-1.166v-8.36h1.166V27Zm4.163-6.039c.52 0 .968.11 1.342.33.374.213.66.52.858.924.205.403.308.88.308 1.43v.638h-3.982c.015.609.172 1.074.473 1.397.308.323.737.484 1.287.484a4.64 4.64 0 0 0 1.012-.099c.3-.073.609-.18.924-.319v.968a4.482 4.482 0 0 1-.902.297c-.3.066-.66.099-1.078.099-.572 0-1.078-.114-1.518-.341a2.455 2.455 0 0 1-1.034-1.012c-.242-.455-.363-1.012-.363-1.672 0-.667.11-1.232.33-1.694.227-.462.54-.814.935-1.056.403-.25.873-.374 1.408-.374Zm0 .902c-.418 0-.755.136-1.012.407-.25.271-.396.656-.44 1.155h2.794c0-.308-.048-.58-.143-.814a1.173 1.173 0 0 0-.44-.55c-.198-.132-.45-.198-.759-.198Zm9.152-2.717c1.027 0 1.775.209 2.244.627.47.41.704.986.704 1.727 0 .33-.055.645-.165.946-.102.3-.275.572-.517.814-.242.235-.564.422-.968.561-.396.132-.883.198-1.463.198h-.847V27H81.95v-7.854h2.2Zm-.088 1.001h-.924v2.871h.715c.448 0 .822-.048 1.122-.143.301-.103.525-.26.671-.473.154-.22.231-.506.231-.858 0-.47-.146-.818-.44-1.045-.286-.235-.744-.352-1.375-.352ZM89.72 27h-1.166v-8.36h1.166V27Zm4.13-6.039c.748 0 1.305.165 1.672.495.367.323.55.832.55 1.529V27h-.825l-.231-.825h-.044a2.987 2.987 0 0 1-.528.528c-.176.14-.382.242-.616.308a3.037 3.037 0 0 1-.836.099 2.37 2.37 0 0 1-.957-.187 1.522 1.522 0 0 1-.66-.594c-.161-.271-.242-.609-.242-1.012 0-.601.227-1.06.682-1.375.462-.315 1.162-.488 2.1-.517l1.013-.033v-.33c0-.44-.1-.748-.297-.924-.198-.176-.477-.264-.836-.264-.308 0-.602.044-.88.132a5.414 5.414 0 0 0-.792.319l-.374-.847c.278-.147.597-.268.957-.363a4.222 4.222 0 0 1 1.144-.154Zm.275 3.212c-.675.03-1.144.143-1.408.341-.257.19-.385.462-.385.814 0 .308.091.532.275.671.19.14.429.209.715.209.462 0 .843-.128 1.144-.385.3-.257.45-.642.45-1.155v-.517l-.791.022Zm2.84-3.102h1.254l1.232 3.366c.066.169.125.334.176.495.052.161.096.323.132.484.044.154.077.308.1.462h.043c.037-.19.096-.414.176-.671.081-.264.165-.524.253-.781l1.166-3.355h1.254l-2.541 6.732a3.725 3.725 0 0 1-.517.979 2.103 2.103 0 0 1-.737.638c-.278.147-.608.22-.99.22-.183 0-.34-.011-.473-.033a3.036 3.036 0 0 1-.34-.055v-.924c.08.015.175.03.285.044.118.015.239.022.363.022.228 0 .422-.044.583-.132.169-.088.308-.213.418-.374.118-.161.217-.345.297-.55L99.34 27l-2.376-5.929ZM45.887 16.573h-.688v-1.504h-3.93v1.504h-.687v-2.145h.442c.385-.656.718-1.452 1-2.387.28-.934.446-1.829.496-2.683h2.64v5.07h.727v2.145Zm-1.442-2.145v-4.422h-1.292c-.05.649-.209 1.405-.477 2.27-.266.864-.564 1.582-.895 2.152h2.664Zm6.028-1.512c0 .701-.177 1.248-.532 1.641-.354.393-.843.59-1.468.59-.388 0-.732-.09-1.032-.27-.299-.182-.53-.442-.69-.78-.162-.34-.243-.733-.243-1.18 0-.698.174-1.241.523-1.63.35-.39.839-.585 1.47-.585.603 0 1.083.199 1.437.597.356.396.535.935.535 1.617Zm-3.239 0c0 .54.106.95.317 1.231.213.279.527.418.941.418.41 0 .72-.14.934-.418.213-.281.32-.691.32-1.23 0-.54-.108-.944-.324-1.215-.213-.274-.527-.41-.941-.41-.831 0-1.247.541-1.247 1.624Zm6.075 2.231c-.617 0-1.098-.189-1.442-.566-.343-.38-.515-.925-.515-1.633 0-.719.173-1.272.52-1.66.348-.391.844-.586 1.487-.586.209 0 .415.022.618.066.205.042.375.096.508.164l-.215.586c-.362-.135-.67-.203-.926-.203-.432 0-.751.137-.957.41-.206.27-.309.676-.309 1.215 0 .518.103.915.309 1.191.206.274.51.41.914.41.377 0 .749-.083 1.113-.25v.625c-.297.154-.665.231-1.105.231Zm5.086-3.774h-1.403v3.696h-.695v-3.696h-1.383v-.593h3.48v.594Zm.18-.593h.753l.926 2.441c.195.531.315.92.36 1.168h.03c.024-.096.078-.276.16-.539.084-.265.154-.478.212-.637l.87-2.433h.759l-1.848 4.883c-.18.474-.393.813-.64 1.02-.248.205-.554.308-.919.308a2.59 2.59 0 0 1-.582-.067v-.558c.13.031.287.047.47.047a.884.884 0 0 0 .57-.188c.156-.122.283-.312.382-.57l.223-.57-1.727-4.305Zm5.453 4.289h-.704v-4.29h3.625v4.29h-.703V11.38h-2.218v3.688Zm6.113.078c-.644 0-1.149-.194-1.516-.582-.365-.39-.547-.927-.547-1.61 0-.687.17-1.234.512-1.64.341-.409.802-.613 1.383-.613.539 0 .969.174 1.289.523.32.347.48.816.48 1.41v.426h-2.937c.013.487.136.857.37 1.11.235.252.567.378.997.378.23 0 .447-.02.652-.058.206-.042.447-.121.723-.239v.618c-.237.101-.46.173-.668.215a3.815 3.815 0 0 1-.738.062Zm-.176-3.871c-.336 0-.602.108-.797.324-.195.216-.311.517-.348.902h2.184c-.005-.4-.098-.705-.277-.914-.18-.208-.434-.312-.762-.312Zm3.57-.496v1.785h2.328V10.78h.704v4.289h-.704v-1.91h-2.328v1.91h-.703v-4.29h.703Zm10.004 1.082c0 .276-.078.487-.234.633-.156.143-.38.24-.668.293v.035c.362.05.625.157.789.324.167.164.25.385.25.664 0 .406-.15.717-.45.934-.296.216-.725.324-1.284.324h-1.93v-4.29h1.922c1.07 0 1.605.361 1.605 1.083Zm-.566 1.91c0-.24-.094-.408-.281-.504-.188-.096-.463-.145-.825-.145h-1.152v1.38h1.168c.727 0 1.09-.244 1.09-.731Zm-.121-1.848c0-.2-.078-.343-.235-.43-.153-.085-.386-.128-.699-.128h-1.203v1.175h1.074c.383 0 .655-.046.817-.14.164-.096.246-.255.246-.477Z" fill="#fff"/></svg>