<svg xmlns="http://www.w3.org/2000/svg" width="117" height="38" fill="none"><rect width="116.313" height="37.272" x=".321" y=".321" fill="#000" stroke="#EFF2F5" stroke-width=".643" rx="5.462"/><path fill="#fff" d="M26.796 16.218c0-.89.238-1.722.654-2.494a4.829 4.829 0 0 1 1.781-1.841c-.475-.653-1.069-1.247-1.84-1.603-.713-.416-1.545-.594-2.376-.654-1.782-.178-3.445 1.07-4.335 1.07-.891 0-2.317-1.01-3.801-1.01-.89 0-1.841.237-2.673.772-.83.534-1.484 1.187-1.96 2.019-2.018 3.504-.534 8.67 1.426 11.52.95 1.366 2.079 2.97 3.623 2.91 1.425-.059 2.019-.95 3.74-.95 1.723 0 2.258.95 3.742.891 1.544 0 2.554-1.425 3.504-2.791a11.154 11.154 0 0 0 1.603-3.266 4.73 4.73 0 0 1-2.197-1.841 4.687 4.687 0 0 1-.89-2.732Zm-2.85-8.492c.831-1.01 1.247-2.316 1.188-3.682-1.307.178-2.554.772-3.385 1.782-.416.475-.772 1.01-.95 1.662-.179.594-.297 1.247-.238 1.9.653 0 1.306-.118 1.9-.415.535-.356 1.07-.772 1.485-1.247ZM46.425 27l-.836-2.266h-3.036L41.717 27h-1.233l2.981-7.887h1.232L47.667 27h-1.242Zm-1.958-5.511a5.077 5.077 0 0 0-.121-.363l-.154-.506a20.053 20.053 0 0 1-.121-.429 12.36 12.36 0 0 1-.133.484 13.58 13.58 0 0 1-.132.473c-.043.14-.08.253-.11.341l-.791 2.211h2.353l-.791-2.211Zm7.087-.528c.711 0 1.283.257 1.716.77.44.513.66 1.28.66 2.299 0 .667-.1 1.232-.297 1.694-.198.462-.477.81-.836 1.045-.36.227-.778.341-1.254.341-.3 0-.565-.037-.792-.11a2.086 2.086 0 0 1-.583-.308 3.11 3.11 0 0 1-.407-.418h-.077c.022.132.04.29.055.473.014.176.022.334.022.473v2.42h-1.166v-8.569h.946l.165.792h.055c.117-.161.256-.312.418-.451.161-.14.355-.25.583-.33a2.38 2.38 0 0 1 .792-.121Zm-.275.957c-.367 0-.66.073-.88.22-.22.14-.382.352-.484.638-.096.279-.147.634-.154 1.067v.176c0 .455.047.843.143 1.166.095.315.253.557.473.726.227.161.535.242.924.242.33 0 .597-.088.803-.264.212-.183.37-.436.473-.759a3.73 3.73 0 0 0 .154-1.122c0-.645-.118-1.155-.352-1.529-.235-.374-.602-.561-1.1-.561Zm7.096-.957c.711 0 1.283.257 1.716.77.44.513.66 1.28.66 2.299 0 .667-.099 1.232-.297 1.694-.198.462-.477.81-.836 1.045-.36.227-.777.341-1.254.341-.3 0-.565-.037-.792-.11a2.086 2.086 0 0 1-.583-.308 3.11 3.11 0 0 1-.407-.418h-.077c.022.132.04.29.055.473.015.176.022.334.022.473v2.42h-1.166v-8.569h.946l.165.792h.055c.117-.161.257-.312.418-.451.161-.14.356-.25.583-.33a2.38 2.38 0 0 1 .792-.121Zm-.275.957c-.367 0-.66.073-.88.22-.22.14-.381.352-.484.638-.095.279-.147.634-.154 1.067v.176c0 .455.048.843.143 1.166.095.315.253.557.473.726.227.161.535.242.924.242.33 0 .598-.088.803-.264.213-.183.37-.436.473-.759.103-.323.154-.697.154-1.122 0-.645-.117-1.155-.352-1.529-.235-.374-.601-.561-1.1-.561Zm11.637 2.959c0 .47-.114.869-.341 1.199-.228.33-.554.587-.98.77-.425.176-.93.264-1.517.264a5.99 5.99 0 0 1-.825-.055 5.279 5.279 0 0 1-.737-.132 3.065 3.065 0 0 1-.605-.22v-1.122a7.29 7.29 0 0 0 1.034.363 4.8 4.8 0 0 0 1.21.154c.352 0 .645-.048.88-.143.234-.095.41-.227.528-.396.117-.169.176-.367.176-.594a.96.96 0 0 0-.187-.605c-.118-.169-.305-.323-.561-.462-.25-.147-.587-.3-1.012-.462a6.281 6.281 0 0 1-.803-.363 3.17 3.17 0 0 1-.627-.484 1.935 1.935 0 0 1-.407-.638 2.301 2.301 0 0 1-.143-.847c0-.433.106-.803.319-1.111.22-.308.52-.543.902-.704.381-.169.825-.253 1.33-.253.426 0 .818.044 1.178.132.366.08.715.194 1.045.341l-.374.979a7.038 7.038 0 0 0-.913-.308 3.804 3.804 0 0 0-.968-.121c-.294 0-.54.044-.737.132a1.024 1.024 0 0 0-.451.363 1.002 1.002 0 0 0-.143.539c0 .242.055.444.165.605.11.161.286.312.528.451.242.132.56.279.957.44.44.169.814.352 1.122.55.315.198.553.436.715.715.161.271.242.612.242 1.023Zm3.54 1.287c.154 0 .311-.015.473-.044.16-.03.3-.062.418-.099v.88a2.026 2.026 0 0 1-.506.143 3.141 3.141 0 0 1-.638.066 2.35 2.35 0 0 1-.891-.165c-.264-.11-.477-.3-.638-.572-.162-.271-.242-.649-.242-1.133v-3.278h-.825v-.528l.869-.44.407-1.254h.715v1.331h1.694v.891h-1.694v3.256c0 .323.077.561.23.715a.87.87 0 0 0 .628.231Zm7.302-2.134c0 .491-.066.928-.198 1.309a2.736 2.736 0 0 1-.561.968 2.393 2.393 0 0 1-.88.605 3.24 3.24 0 0 1-1.166.198c-.396 0-.763-.066-1.1-.198a2.519 2.519 0 0 1-.88-.605 2.87 2.87 0 0 1-.572-.968 3.834 3.834 0 0 1-.21-1.32c0-.653.11-1.206.33-1.661.228-.455.55-.8.969-1.034.425-.242.924-.363 1.496-.363.542 0 1.019.121 1.43.363.418.235.744.58.979 1.034.242.455.363 1.012.363 1.672Zm-4.367 0c0 .44.055.821.165 1.144.11.315.282.557.517.726.234.169.535.253.902.253.366 0 .667-.084.902-.253.234-.169.407-.41.517-.726.11-.323.165-.704.165-1.144 0-.455-.06-.836-.176-1.144a1.391 1.391 0 0 0-.517-.704c-.228-.169-.528-.253-.902-.253-.55 0-.95.183-1.2.55-.249.367-.373.884-.373 1.551Zm8.77-3.069c.103 0 .217.007.342.022.124.007.227.018.308.033l-.121 1.089a2.217 2.217 0 0 0-.286-.055 2.333 2.333 0 0 0-.308-.022c-.22 0-.433.044-.638.132-.198.08-.378.202-.54.363-.16.154-.289.345-.384.572a2.153 2.153 0 0 0-.132.781V27h-1.166v-5.929h.924l.154 1.056h.044c.124-.213.275-.407.45-.583a2.03 2.03 0 0 1 .606-.418c.227-.11.476-.165.748-.165Zm3.865 0c.52 0 .968.11 1.342.33.374.213.66.52.858.924.205.403.308.88.308 1.43v.638h-3.982c.014.609.172 1.074.473 1.397.308.323.737.484 1.287.484.381 0 .718-.033 1.012-.099.3-.073.608-.18.924-.319v.968a4.48 4.48 0 0 1-.902.297c-.301.066-.66.099-1.078.099-.572 0-1.078-.114-1.518-.341a2.455 2.455 0 0 1-1.034-1.012c-.242-.455-.363-1.012-.363-1.672 0-.667.11-1.232.33-1.694.227-.462.539-.814.935-1.056.403-.25.872-.374 1.408-.374Zm0 .902c-.418 0-.756.136-1.012.407-.25.271-.396.656-.44 1.155h2.794c0-.308-.048-.58-.143-.814a1.172 1.172 0 0 0-.44-.55c-.198-.132-.451-.198-.76-.198Zm-43.011-5.29h-.687v-1.504h-3.93v1.504h-.688v-2.145h.442c.385-.656.718-1.452 1-2.387.281-.934.446-1.829.496-2.683h2.64v5.07h.727v2.145Zm-1.441-2.145v-4.422h-1.293c-.05.649-.209 1.405-.477 2.27-.266.864-.564 1.582-.894 2.152h2.664Zm6.027-1.512c0 .701-.177 1.248-.531 1.641-.354.393-.844.59-1.469.59a1.96 1.96 0 0 1-1.031-.27c-.3-.182-.53-.442-.692-.78a2.727 2.727 0 0 1-.242-1.18c0-.698.175-1.241.524-1.63.349-.39.838-.585 1.468-.585.605 0 1.084.199 1.438.597.357.396.535.935.535 1.617Zm-3.238 0c0 .54.105.95.316 1.231.214.279.528.418.941.418.41 0 .72-.14.934-.418.214-.281.32-.691.32-1.23 0-.54-.108-.944-.324-1.215-.213-.274-.527-.41-.941-.41-.83 0-1.246.541-1.246 1.624Zm6.074 2.231c-.617 0-1.098-.189-1.442-.566-.343-.38-.515-.925-.515-1.633 0-.719.173-1.272.52-1.66.348-.391.845-.586 1.488-.586.208 0 .414.022.617.066.206.042.375.096.508.164l-.215.586c-.362-.135-.67-.203-.926-.203-.432 0-.751.137-.957.41-.206.27-.308.676-.308 1.215 0 .518.102.915.308 1.191.206.274.51.41.914.41.378 0 .749-.083 1.113-.25v.625c-.297.154-.665.231-1.105.231Zm5.086-3.774H56.94v3.696h-.695v-3.696h-1.383v-.593h3.48v.594Zm.18-.593h.754l.925 2.441c.196.531.315.92.36 1.168h.03c.024-.096.078-.276.161-.539.083-.265.154-.478.211-.637l.871-2.433h.758l-1.848 4.883c-.18.474-.393.813-.64 1.02-.248.205-.554.308-.918.308a2.59 2.59 0 0 1-.582-.067v-.558c.13.031.286.047.468.047a.884.884 0 0 0 .57-.188c.157-.122.285-.312.384-.57l.222-.57-1.726-4.305Zm5.453 4.289h-.703v-4.29h3.625v4.29h-.704V11.38h-2.218v3.688Zm6.113.078c-.643 0-1.148-.194-1.516-.582-.364-.39-.546-.927-.546-1.61 0-.687.17-1.234.511-1.64.341-.409.802-.613 1.383-.613.54 0 .969.174 1.29.523.32.347.48.816.48 1.41v.426h-2.938c.013.487.137.857.371 1.11.234.252.567.378.996.378.23 0 .447-.02.653-.058.205-.042.446-.121.722-.239v.618c-.237.101-.46.173-.668.215a3.815 3.815 0 0 1-.738.062Zm-.176-3.871c-.336 0-.601.108-.797.324-.195.216-.31.517-.347.902h2.183c-.005-.4-.097-.705-.277-.914-.18-.208-.434-.312-.762-.312Zm3.57-.496v1.785h2.329V10.78h.703v4.289h-.703v-1.91h-2.329v1.91h-.703v-4.29h.703Zm10.004 1.082c0 .276-.078.487-.234.633-.156.143-.379.24-.668.293v.035c.362.05.625.157.79.324.166.164.25.385.25.664 0 .406-.15.717-.45.934-.297.216-.725.324-1.285.324h-1.93v-4.29h1.922c1.07 0 1.605.361 1.605 1.083Zm-.566 1.91c0-.24-.094-.408-.281-.504-.188-.096-.463-.145-.825-.145h-1.152v1.38h1.168c.727 0 1.09-.244 1.09-.731Zm-.121-1.848c0-.2-.078-.343-.234-.43-.154-.085-.387-.128-.7-.128h-1.203v1.175h1.074c.383 0 .655-.046.817-.14.164-.096.246-.255.246-.477Z"/></svg>