<svg xmlns="http://www.w3.org/2000/svg" width="765" height="24" fill="none"><path fill="#4CA7DE" d="M2.4 10.5a1.5 1.5 0 0 0 0 3v-3Zm99.061 2.56a1.5 1.5 0 0 0 0-2.12l-9.546-9.547a1.5 1.5 0 1 0-2.121 2.122L98.279 12l-8.485 8.485a1.5 1.5 0 1 0 2.121 2.122l9.546-9.546Zm-99.06.44H100.4v-3h-98v3ZM273.4 10.5a1.5 1.5 0 0 0 0 3v-3Zm99.061 2.56a1.5 1.5 0 0 0 0-2.12l-9.546-9.547a1.5 1.5 0 1 0-2.121 2.122L369.279 12l-8.485 8.485a1.5 1.5 0 1 0 2.121 2.122l9.546-9.546Zm-99.061.44h98v-3h-98v3ZM665.4 10.5a1.5 1.5 0 0 0 0 3v-3Zm99.061 2.56a1.5 1.5 0 0 0 0-2.12l-9.546-9.547a1.5 1.5 0 1 0-2.121 2.122L761.279 12l-8.485 8.485a1.5 1.5 0 1 0 2.121 2.122l9.546-9.546Zm-99.061.44h98v-3h-98v3Z"/></svg>