<svg xmlns="http://www.w3.org/2000/svg" width="118" height="38" fill="none"><rect width="116.313" height="37.272" x=".423" y=".321" fill="#000" stroke="#EFF2F5" stroke-width=".643" rx="5.462"/><path fill="#fff" d="m46.526 27-.836-2.266h-3.036L41.818 27h-1.232l2.98-7.887H44.8L47.769 27h-1.243Zm-1.958-5.511a5.077 5.077 0 0 0-.121-.363l-.154-.506a20.664 20.664 0 0 1-.121-.429c-.037.147-.08.308-.132.484a13.58 13.58 0 0 1-.132.473c-.044.14-.08.253-.11.341l-.792 2.211h2.354l-.792-2.211Zm7.087-.528c.712 0 1.283.257 1.716.77.44.513.66 1.28.66 2.299 0 .667-.099 1.232-.297 1.694-.198.462-.477.81-.836 1.045-.36.227-.777.341-1.254.341-.3 0-.564-.037-.792-.11a2.087 2.087 0 0 1-.583-.308 3.11 3.11 0 0 1-.407-.418h-.077c.022.132.04.29.055.473.015.176.022.334.022.473v2.42h-1.166v-8.569h.946l.165.792h.055c.117-.161.257-.312.418-.451.161-.14.356-.25.583-.33.227-.08.492-.121.792-.121Zm-.275.957c-.367 0-.66.073-.88.22-.22.14-.381.352-.484.638-.095.279-.146.634-.154 1.067v.176c0 .455.048.843.143 1.166.095.315.253.557.473.726.227.161.535.242.924.242.33 0 .598-.088.803-.264.213-.183.37-.436.473-.759.103-.323.154-.697.154-1.122 0-.645-.117-1.155-.352-1.529-.234-.374-.601-.561-1.1-.561Zm7.096-.957c.712 0 1.284.257 1.717.77.44.513.66 1.28.66 2.299 0 .667-.1 1.232-.297 1.694-.198.462-.477.81-.837 1.045-.359.227-.777.341-1.254.341-.3 0-.564-.037-.792-.11a2.087 2.087 0 0 1-.583-.308 3.11 3.11 0 0 1-.407-.418h-.077c.023.132.04.29.055.473.015.176.023.334.023.473v2.42h-1.166v-8.569h.946l.165.792h.055c.117-.161.256-.312.418-.451.16-.14.355-.25.583-.33.227-.08.49-.121.791-.121Zm-.274.957c-.367 0-.66.073-.88.22-.22.14-.382.352-.485.638-.095.279-.146.634-.154 1.067v.176c0 .455.048.843.144 1.166.095.315.253.557.473.726.227.161.535.242.924.242.33 0 .597-.088.803-.264.212-.183.37-.436.472-.759.103-.323.154-.697.154-1.122 0-.645-.117-1.155-.352-1.529-.234-.374-.6-.561-1.1-.561Zm10.404.858h2.838v3.916c-.418.14-.847.242-1.287.308-.432.073-.927.11-1.485.11-.8 0-1.477-.161-2.035-.484a3.18 3.18 0 0 1-1.265-1.386c-.286-.601-.429-1.324-.429-2.167 0-.821.162-1.533.484-2.134a3.393 3.393 0 0 1 1.386-1.397c.609-.337 1.346-.506 2.211-.506.433 0 .847.044 1.243.132.396.08.763.194 1.1.341l-.429.99a4.934 4.934 0 0 0-.913-.308 4.04 4.04 0 0 0-1.045-.132c-.58 0-1.082.125-1.507.374a2.43 2.43 0 0 0-.968 1.045c-.22.447-.33.983-.33 1.606 0 .587.092 1.107.275 1.562.183.455.473.81.87 1.067.395.257.912.385 1.55.385.213 0 .4-.007.561-.022.162-.022.308-.044.44-.066.14-.03.272-.055.396-.077v-2.134h-1.66v-1.023Zm6.881-1.815c.748 0 1.306.165 1.672.495.367.323.55.832.55 1.529V27h-.825l-.23-.825h-.045a2.993 2.993 0 0 1-.528.528c-.176.14-.38.242-.616.308a3.037 3.037 0 0 1-.836.099 2.37 2.37 0 0 1-.957-.187 1.52 1.52 0 0 1-.66-.594c-.16-.271-.242-.609-.242-1.012 0-.601.228-1.06.682-1.375.462-.315 1.163-.488 2.101-.517l1.012-.033v-.33c0-.44-.099-.748-.297-.924-.198-.176-.476-.264-.836-.264-.308 0-.6.044-.88.132a5.405 5.405 0 0 0-.792.319l-.374-.847c.28-.147.598-.268.957-.363a4.222 4.222 0 0 1 1.144-.154Zm.275 3.212c-.674.03-1.144.143-1.408.341-.256.19-.385.462-.385.814 0 .308.092.532.275.671.191.14.43.209.715.209.462 0 .844-.128 1.144-.385.301-.257.451-.642.451-1.155v-.517l-.792.022ZM80.671 27h-1.166v-8.36h1.166V27Zm2.997 0h-1.166v-8.36h1.166V27Zm4.163-6.039c.52 0 .968.11 1.342.33.374.213.66.52.858.924.205.403.308.88.308 1.43v.638h-3.982c.015.609.172 1.074.473 1.397.308.323.737.484 1.287.484.381 0 .719-.033 1.012-.099.3-.073.609-.18.924-.319v.968a4.48 4.48 0 0 1-.902.297c-.3.066-.66.099-1.078.099-.572 0-1.078-.114-1.518-.341a2.456 2.456 0 0 1-1.034-1.012c-.242-.455-.363-1.012-.363-1.672 0-.667.11-1.232.33-1.694.227-.462.539-.814.935-1.056.403-.25.873-.374 1.408-.374Zm0 .902c-.418 0-.755.136-1.012.407-.25.271-.396.656-.44 1.155h2.794c0-.308-.048-.58-.143-.814a1.172 1.172 0 0 0-.44-.55c-.198-.132-.451-.198-.76-.198Zm6.889-.902c.103 0 .216.007.34.022.126.007.228.018.309.033l-.121 1.089a2.217 2.217 0 0 0-.286-.055 2.333 2.333 0 0 0-.308-.022c-.22 0-.433.044-.638.132-.198.08-.378.202-.54.363-.16.154-.289.345-.384.572a2.153 2.153 0 0 0-.132.781V27h-1.166v-5.929h.924l.154 1.056h.044c.124-.213.275-.407.45-.583a2.03 2.03 0 0 1 .606-.418c.227-.11.477-.165.748-.165Zm.845.11h1.254l1.232 3.366c.066.169.124.334.176.495.051.161.095.323.132.484.044.154.077.308.099.462h.044c.036-.19.095-.414.176-.671.08-.264.165-.524.253-.781l1.166-3.355h1.254l-2.541 6.732c-.14.381-.312.708-.517.979a2.103 2.103 0 0 1-.737.638c-.279.147-.609.22-.99.22-.184 0-.341-.011-.473-.033a3.032 3.032 0 0 1-.341-.055v-.924c.08.015.176.03.286.044.117.015.238.022.363.022.227 0 .421-.044.583-.132.168-.088.308-.213.418-.374a2.46 2.46 0 0 0 .297-.55L97.94 27l-2.376-5.929ZM45.938 16.573h-.688v-1.504h-3.93v1.504h-.687v-2.145h.441c.386-.656.719-1.452 1-2.387.282-.934.447-1.829.496-2.683h2.64v5.07h.727v2.145Zm-1.442-2.145v-4.422h-1.293c-.05.649-.208 1.405-.476 2.27-.266.864-.564 1.582-.895 2.152h2.664Zm6.027-1.512c0 .701-.177 1.248-.53 1.641-.355.393-.845.59-1.47.59-.388 0-.731-.09-1.03-.27-.3-.182-.53-.442-.692-.78-.162-.34-.242-.733-.242-1.18 0-.698.174-1.241.523-1.63.349-.39.839-.585 1.469-.585.604 0 1.083.199 1.437.597.357.396.535.935.535 1.617Zm-3.238 0c0 .54.106.95.317 1.231.213.279.527.418.941.418.409 0 .72-.14.934-.418.213-.281.32-.691.32-1.23 0-.54-.108-.944-.324-1.215-.214-.274-.528-.41-.942-.41-.83 0-1.246.541-1.246 1.624Zm6.074 2.231c-.617 0-1.097-.189-1.441-.566-.344-.38-.516-.925-.516-1.633 0-.719.173-1.272.52-1.66.349-.391.845-.586 1.488-.586.209 0 .414.022.617.066.206.042.375.096.508.164l-.215.586c-.362-.135-.67-.203-.925-.203-.433 0-.752.137-.958.41-.205.27-.308.676-.308 1.215 0 .518.103.915.309 1.191.205.274.51.41.914.41.377 0 .748-.083 1.113-.25v.625c-.297.154-.666.231-1.106.231Zm5.086-3.774h-1.402v3.696h-.695v-3.696h-1.383v-.593h3.48v.594Zm.18-.593h.754l.926 2.441c.195.531.315.92.36 1.168h.03c.024-.096.077-.276.16-.539.084-.265.154-.478.211-.637l.871-2.433h.758l-1.847 4.883c-.18.474-.394.813-.641 1.02-.247.205-.553.308-.918.308a2.59 2.59 0 0 1-.582-.067v-.558c.13.031.286.047.469.047a.884.884 0 0 0 .57-.188c.156-.122.284-.312.383-.57l.223-.57-1.727-4.305Zm5.453 4.289h-.703v-4.29H67v4.29h-.703V11.38h-2.219v3.688Zm6.113.078c-.643 0-1.148-.194-1.515-.582-.365-.39-.547-.927-.547-1.61 0-.687.17-1.234.512-1.64.34-.409.802-.613 1.382-.613.54 0 .97.174 1.29.523.32.347.48.816.48 1.41v.426h-2.938c.013.487.137.857.372 1.11.234.252.566.378.996.378.229 0 .446-.02.652-.058.206-.042.447-.121.723-.239v.618c-.237.101-.46.173-.668.215a3.815 3.815 0 0 1-.739.062Zm-.175-3.871c-.336 0-.602.108-.797.324-.196.216-.311.517-.348.902h2.184c-.006-.4-.098-.705-.278-.914-.18-.208-.433-.312-.761-.312Zm3.57-.496v1.785h2.328V10.78h.703v4.289h-.703v-1.91h-2.328v1.91h-.703v-4.29h.703Zm10.004 1.082c0 .276-.078.487-.234.633-.157.143-.38.24-.668.293v.035c.361.05.624.157.789.324.166.164.25.385.25.664 0 .406-.15.717-.45.934-.296.216-.725.324-1.285.324h-1.93v-4.29h1.922c1.07 0 1.606.361 1.606 1.083Zm-.567 1.91c0-.24-.093-.408-.28-.504-.188-.096-.463-.145-.825-.145h-1.152v1.38h1.168c.726 0 1.09-.244 1.09-.731Zm-.12-1.848c0-.2-.079-.343-.235-.43-.154-.085-.387-.128-.7-.128h-1.202v1.175h1.074c.383 0 .655-.046.816-.14.164-.096.246-.255.246-.477Z"/><path fill="#fff" fill-rule="evenodd" d="M14.807 6.712c-4.513 0-6.163 1.65-6.163 6.162v9.642c0 4.512 1.65 6.162 6.163 6.162h9.637c4.512 0 6.166-1.65 6.166-6.162v-9.642c0-4.512-1.65-6.162-6.163-6.162h-9.64Z" clip-rule="evenodd"/><path fill="#000" fill-rule="evenodd" d="M18.225 19.452h.882l-.442-1.03-.44 1.03Zm-.217.518-.261.599h-.596l1.267-2.874h.514l1.262 2.874h-.612l-.258-.599h-1.316Zm9.585.597h.576v-2.872h-.576v2.872Zm-2.29-1.234h1.06v-.524h-1.06v-.588h1.54v-.524h-2.116v2.872h2.171v-.524h-1.596v-.712Zm-2.288.34-.653-1.978h-.476l-.653 1.977-.635-1.976h-.621l1.002 2.874h.483l.654-1.887.653 1.887h.487l1-2.874h-.605l-.636 1.976Zm-6.743-.332c0 .467-.232.717-.654.717-.424 0-.657-.257-.657-.737v-1.624h-.584v1.644c0 .809.45 1.272 1.233 1.272.791 0 1.245-.472 1.245-1.296v-1.622h-.583v1.646Zm-3.287-1.646h.584v2.876h-.584v-1.168h-1.317v1.168h-.583v-2.876h.583v1.16h1.317v-1.16ZM19.627 14.034a3.665 3.665 0 0 1-3.661-3.661h.517a3.148 3.148 0 0 0 3.144 3.144 3.148 3.148 0 0 0 3.144-3.144h.517a3.665 3.665 0 0 1-3.661 3.661Z" clip-rule="evenodd"/></svg>