<svg width="169" height="36" fill="none" xmlns="http://www.w3.org/2000/svg"><path fill-rule="evenodd" clip-rule="evenodd" d="M0 5.656C0 2.532 2.544 0 5.683 0h17.805c3.139 0 5.683 2.532 5.683 5.656V24.27c0 3.123-2.544 5.655-5.683 5.655H9.378L4 33.177s-.93.48-1.199.238c-.227-.206-.1-.719-.1-.719l.88-3.17A5.658 5.658 0 0 1 0 24.271V5.656Zm6.852 1.076h-.014a1.13 1.13 0 0 0-.31.769c0 .31.122.58.324.768.189.202.46.323.77.323.297 0 .567-.12.757-.323.202-.189.324-.458.324-.768a1.03 1.03 0 0 0-.324-.756v-.013c-.19-.189-.46-.31-.757-.31a1.08 1.08 0 0 0-.77.31Zm2.35 2.36c-.405.403-.972.66-1.58.66a2.261 2.261 0 0 1-1.594-.66A2.25 2.25 0 0 1 5.366 7.5a2.261 2.261 0 0 1 2.256-2.238c.608 0 1.175.256 1.58.66.406.405.663.957.663 1.578 0 .62-.257 1.186-.662 1.59Zm-1.58-5.11a3.47 3.47 0 0 0-2.5 1.038 3.447 3.447 0 0 0-1.04 2.48c0 .984.392 1.86 1.04 2.494a3.47 3.47 0 0 0 2.5 1.038c.973 0 1.85-.39 2.485-1.038A3.454 3.454 0 0 0 11.148 7.5a3.45 3.45 0 0 0-1.04-2.48 3.462 3.462 0 0 0-2.486-1.038Zm8.943 19.478a1.886 1.886 0 0 0-1.891-1.887c-1.04 0-1.892.85-1.892 1.887 0 1.052.852 1.887 1.892 1.887a1.878 1.878 0 0 0 1.891-1.887Zm0-6.834a1.886 1.886 0 0 0-1.891-1.887c-1.04 0-1.892.85-1.892 1.887 0 1.038.852 1.887 1.892 1.887 1.054 0 1.891-.85 1.891-1.887Zm5.174-11.012h-5.917a1.886 1.886 0 1 0 0 3.774h5.917a1.886 1.886 0 1 0 0-3.774Zm-1.891 11.012c0 1.038.85 1.887 1.891 1.887 1.04 0 1.891-.85 1.891-1.887 0-1.038-.85-1.887-1.89-1.887-1.041 0-1.892.85-1.892 1.887Zm0 6.834c0 1.052.85 1.887 1.891 1.887a1.886 1.886 0 1 0 0-3.774c-1.04 0-1.891.85-1.891 1.887ZM5.73 16.626c0 1.038.837 1.887 1.891 1.887 1.04 0 1.891-.85 1.891-1.887 0-1.038-.85-1.887-1.89-1.887-1.055 0-1.892.85-1.892 1.887Zm0 6.834c0 1.052.837 1.887 1.891 1.887a1.886 1.886 0 1 0 0-3.774c-1.054 0-1.891.85-1.891 1.887Z" fill="#fff"/><path opacity=".6" fill-rule="evenodd" clip-rule="evenodd" d="M12.886 33.374c-1.94 0-3.099-1.04-3.099-1.79.244.026.49.039.74.039h13.38c3.876 0 7.018-3.136 7.018-7.003V6.675c0-.98-.201-1.912-.565-2.759 1.223 0 2.32 1.468 2.32 3.689v17.562a8.207 8.207 0 0 1-4.727 7.43l.748 2.706s.112.454-.089.636c-.236.215-1.057-.21-1.057-.21l-3.885-2.355H12.886Z" fill="#fff"/><path fill-rule="evenodd" clip-rule="evenodd" d="M168.75 7.752c0-.85-.679-1.564-1.545-1.564-.866 0-1.561.714-1.561 1.564v1.734h-3.702V7.752c0-.85-.713-1.564-1.596-1.564-.797 0-1.544.714-1.544 1.564v6.56c0 .832.712 1.563 1.544 1.563.883 0 1.596-.73 1.596-1.563v-1.989h3.702v1.989c0 .832.695 1.563 1.561 1.563s1.545-.73 1.545-1.563v-6.56Zm-15.16 3.263c0 1.037-.781 1.937-1.85 1.937-1.087 0-1.868-.9-1.868-1.937s.815-1.887 1.868-1.887c1.052 0 1.85.85 1.85 1.887Zm3.073 0c0-2.702-2.207-4.827-4.923-4.827-2.751 0-4.924 2.108-4.924 4.827s2.156 4.86 4.924 4.86c2.733 0 4.923-2.158 4.923-4.86Zm-21.934 0c0-1.088.951-1.887 2.173-2.023v4.08c-1.256-.103-2.173-.97-2.173-2.057Zm7.453 0c0 1.087-.934 1.954-2.156 2.056V8.992c1.205.136 2.156.935 2.156 2.023Zm-2.156-7.733c0-.85-.73-1.58-1.562-1.58-.866 0-1.562.731-1.562 1.58v2.906c-2.92.238-5.127 2.193-5.127 4.827 0 2.633 2.207 4.639 5.127 4.877v3.06c0 .831.696 1.563 1.562 1.563.832 0 1.562-.732 1.562-1.564v-3.06c2.885-.237 5.11-2.242 5.11-4.876 0-2.634-2.225-4.589-5.11-4.827V3.282Zm-13.004 7.733c0 1.037-.781 1.937-1.851 1.937-1.086 0-1.867-.9-1.867-1.937s.815-1.887 1.867-1.887c1.053 0 1.851.85 1.851 1.887Zm3.073 0c0-2.702-2.207-4.827-4.924-4.827-2.75 0-4.923 2.108-4.923 4.827s2.156 4.86 4.923 4.86c2.733 0 4.924-2.158 4.924-4.86Zm-17.52-1.258-2.156-2.787c-.357-.476-.985-.595-1.341-.595h-.527c-.933 0-1.511.714-1.511 1.445v6.543c0 .816.628 1.512 1.494 1.512s1.494-.697 1.494-1.512v-3.62l1.189 1.614c.203.272.611.68 1.358.68.696 0 1.154-.408 1.358-.68l1.171-1.614v3.62c0 .816.645 1.512 1.511 1.512.866 0 1.494-.697 1.494-1.512V7.82c0-.73-.594-1.445-1.528-1.445h-.509c-.408 0-.985.136-1.358.612l-2.139 2.77Zm-10.746 1.258c0 1.037-.781 1.937-1.85 1.937-1.087 0-1.868-.9-1.868-1.937s.815-1.887 1.867-1.887c1.053 0 1.851.85 1.851 1.887Zm3.073 0c0-2.702-2.207-4.827-4.924-4.827-2.75 0-4.923 2.108-4.923 4.827s2.156 4.86 4.923 4.86c2.733 0 4.924-2.158 4.924-4.86Zm-25.77 7.34c0 .919.73 1.633 1.646 1.633a1.61 1.61 0 0 0 1.63-1.632v-2.668h8.165v2.668c0 .918.73 1.632 1.63 1.632.916 0 1.647-.714 1.647-1.632V14.26a1.54 1.54 0 0 0-1.545-1.547h-.34v-8.53c0-.9-.746-1.546-1.545-1.546h-6.688c-.798 0-1.562.645-1.562 1.546 0 4.912 0 6.61-1.257 8.53h-.254c-.815 0-1.528.63-1.528 1.548v4.095Zm9.675-12.71v7.069h-4.413c.747-1.784.832-3.857.9-7.07h3.514ZM75.023 9.11c1.001 0 1.086.442 1.885.442.78 0 1.442-.645 1.442-1.427 0-.714-.424-1.156-.9-1.41-.441-.205-1.154-.528-2.376-.528-2.768 0-4.906 2.125-4.906 4.827s2.138 4.86 4.906 4.86c1.256 0 2.122-.357 2.597-.612a1.56 1.56 0 0 0 .815-1.376c0-.833-.713-1.445-1.477-1.445-.832 0-.985.527-1.85.527a1.921 1.921 0 0 1-1.936-1.92c0-1.02.764-1.938 1.8-1.938Zm-9.609 1.904c0 1.037-.78 1.937-1.867 1.937-1.07 0-1.85-.9-1.85-1.937s.814-1.887 1.85-1.887c1.07 0 1.867.85 1.867 1.887Zm3.073 0c0-2.702-2.207-4.827-4.94-4.827-2.733 0-4.906 2.108-4.906 4.827s2.156 4.86 4.906 4.86c2.75 0 4.94-2.158 4.94-4.86ZM51 5.713h1.919c.984 0 1.663.662 1.663 1.53 0 .849-.679 1.512-1.663 1.512H51V5.713Zm-3.293 8.513c0 .901.73 1.65 1.663 1.65.934 0 1.63-.748 1.63-1.65V11.83h2.003c2.852 0 4.822-2.073 4.822-4.588 0-2.566-1.97-4.605-4.822-4.605h-3.65c-1.069 0-1.646.714-1.646 1.614v9.976Zm2.652 17.916h-1.214v-6.707h-2.46v-1.104h6.128v1.104H50.36v6.707Zm6.374-5.002H55.45v1.527h1.153c.705 0 1.04-.27 1.04-.769 0-.46-.292-.758-.91-.758Zm-.048 2.382h-1.236v1.727h1.382c.688 0 1.056-.303 1.056-.86 0-.59-.417-.867-1.202-.867Zm-2.39 2.62v-5.895h2.66c1.155 0 1.832.585 1.832 1.5 0 .595-.423 1.136-.997 1.245v.092c.764.086 1.262.644 1.262 1.358 0 1.029-.774 1.7-2.07 1.7h-2.687Zm8.824.114c-1.728 0-2.785-1.153-2.785-3.064 0-1.9 1.062-3.058 2.785-3.058 1.717 0 2.78 1.158 2.78 3.058 0 1.91-1.057 3.064-2.78 3.064Zm0-1.034c1.008 0 1.582-.747 1.582-2.03 0-1.277-.574-2.024-1.582-2.024-1.013 0-1.582.747-1.582 2.024 0 1.288.569 2.03 1.582 2.03Zm5.535.92H67.5v-5.895h1.154v4.055h.092l2.72-4.055h1.154v5.895h-1.154v-4.076h-.087l-2.725 4.076Zm-.564-8.563h.97c0 .579.368 1.077.959 1.077.601 0 .964-.498.97-1.077h.964c0 1.05-.775 1.83-1.934 1.83-1.16 0-1.929-.78-1.929-1.83ZM78.24 34.28c-.098 0-.374-.01-.482-.027v-1.001c.092.016.27.021.38.021.552 0 .866-.227 1.066-.822l.087-.287-2.135-5.917h1.268l1.48 4.683h.091l1.474-4.683h1.235l-2.2 6.139C80 33.82 79.443 34.28 78.24 34.28Zm6.992-2.138H84.1v-5.895h1.463l1.901 4.217h.092l1.907-4.217h1.425v5.895H89.75v-4.065h-.103l-1.729 3.827h-.856l-1.728-3.827h-.103v4.065Zm11.43 0v-2.555h-2.72v2.555h-1.165v-5.895h1.165v2.36h2.72v-2.36h1.159v5.895h-1.16Zm8.39 0v-5.895h1.164v5.895h-1.164Zm-3.094-3.112h-1.078v2.132h1.078c.71 0 1.165-.427 1.165-1.066 0-.644-.461-1.066-1.165-1.066Zm-2.243 3.112v-5.895h1.165v1.808h1.165c1.365 0 2.237.796 2.237 2.041 0 1.25-.872 2.046-2.237 2.046h-2.33Zm9.544 0h-1.154v-5.895h1.154v4.055h.092l2.72-4.055h1.154v5.895h-1.154v-4.076h-.087l-2.725 4.076Zm-.563-8.563h.969c0 .579.369 1.077.959 1.077.602 0 .965-.498.97-1.077h.965c0 1.05-.775 1.83-1.935 1.83-1.159 0-1.928-.78-1.928-1.83Zm13.318 7.583v-3.935h-2.075l-.163 2.22c-.054.665-.195 1.255-.46 1.623v.092h2.698Zm-3.381 2.523h-1.083v-2.523h.476c.434-.265.629-.98.683-1.775l.217-3.14h4.247v4.915h.921v2.523h-1.078v-1.543h-4.383v1.543Zm9.241-1.43c-1.729 0-2.785-1.152-2.785-3.063 0-1.9 1.062-3.058 2.785-3.058 1.717 0 2.779 1.158 2.779 3.058 0 1.91-1.057 3.064-2.779 3.064Zm0-1.033c1.007 0 1.582-.747 1.582-2.03 0-1.277-.575-2.024-1.582-2.024-1.013 0-1.582.747-1.582 2.024 0 1.288.569 2.03 1.582 2.03Zm5.513.92h-1.132v-5.895h1.462l1.902 4.217h.092l1.907-4.217h1.425v5.895h-1.138v-4.065h-.103l-1.728 3.827h-.856l-1.728-3.827h-.103v4.065Zm10.042.114c-1.728 0-2.784-1.153-2.784-3.064 0-1.9 1.061-3.058 2.784-3.058 1.718 0 2.78 1.158 2.78 3.058 0 1.91-1.057 3.064-2.78 3.064Zm0-1.034c1.008 0 1.582-.747 1.582-2.03 0-1.277-.574-2.024-1.582-2.024-1.013 0-1.582.747-1.582 2.024 0 1.288.569 2.03 1.582 2.03Zm7.182.005v-4.065c-1.159.027-1.902.79-1.902 2.03 0 1.25.737 2.003 1.902 2.035Zm3.039-2.035c0-1.245-.742-1.997-1.907-2.03v4.065c1.16-.027 1.907-.79 1.907-2.035Zm-3.039 3.026c-1.869-.038-3.088-1.186-3.088-3.026 0-1.83 1.23-2.988 3.088-3.02v-1.873h1.138v1.873c1.864.037 3.083 1.185 3.083 3.025 0 1.83-1.225 2.988-3.083 3.02v1.885h-1.138v-1.884Zm8.32.038c-1.729 0-2.785-1.153-2.785-3.064 0-1.9 1.062-3.058 2.785-3.058 1.717 0 2.779 1.158 2.779 3.058 0 1.91-1.057 3.064-2.779 3.064Zm0-1.034c1.007 0 1.582-.747 1.582-2.03 0-1.277-.575-2.024-1.582-2.024-1.013 0-1.582.747-1.582 2.024 0 1.288.569 2.03 1.582 2.03Zm8.265.92v-2.555h-2.72v2.555h-1.164v-5.895h1.164v2.36h2.72v-2.36h1.159v5.895h-1.159Z" fill="#fff"/></svg>