<svg width="18" height="11" viewBox="0 0 18 11" fill="none" xmlns="http://www.w3.org/2000/svg">
<path d="M9.40494 5.9291L16.875 0.4375H1.125L8.56871 5.9291C8.68664 6.01536 8.83438 6.0625 8.98682 6.0625C9.13927 6.0625 9.28701 6.01536 9.40494 5.9291Z" fill="black"/>
<path d="M17.9239 0.450414L9.87578 6.62483C9.62747 6.81496 9.31612 6.91888 8.99481 6.91888C8.67351 6.91888 8.36216 6.81496 8.11385 6.62483L0.0830732 0.4375C0.028927 0.531837 0.000403812 0.63711 0 0.744106V9.91698C0.000536777 10.088 0.0736487 10.2519 0.203366 10.3729C0.333083 10.4938 0.508863 10.562 0.692309 10.5625H17.3077C17.4911 10.562 17.6669 10.4938 17.7966 10.3729C17.9263 10.2519 17.9995 10.088 18 9.91698V0.744106C18.0002 0.641931 17.9741 0.5412 17.9239 0.450414Z" fill="black"/>
</svg>
