<svg width="24" height="557" fill="none" xmlns="http://www.w3.org/2000/svg"><path d="M13.5 2a1.5 1.5 0 0 0-3 0h3Zm-2.56 50.06a1.5 1.5 0 0 0 2.12 0l9.547-9.545a1.5 1.5 0 1 0-2.122-2.122L12 48.88l-8.485-8.486a1.5 1.5 0 1 0-2.122 2.122l9.546 9.546ZM10.5 2v49h3V2h-3ZM13.5 255a1.5 1.5 0 0 0-3 0h3Zm-2.56 50.061a1.502 1.502 0 0 0 2.12 0l9.547-9.546a1.5 1.5 0 0 0-2.122-2.122L12 301.879l-8.485-8.486a1.501 1.501 0 0 0-2.122 2.122l9.546 9.546ZM10.5 255v49h3v-49h-3ZM13.5 506a1.5 1.5 0 0 0-3 0h3Zm-2.56 50.061a1.502 1.502 0 0 0 2.12 0l9.547-9.546a1.5 1.5 0 0 0-2.122-2.122L12 552.879l-8.485-8.486a1.501 1.501 0 0 0-2.122 2.122l9.546 9.546ZM10.5 506v49h3v-49h-3Z" fill="#4CA7DE"/></svg>