<svg width="131" height="43" fill="none" xmlns="http://www.w3.org/2000/svg"><rect x="1.013" y=".356" width="128.895" height="41.303" rx="6.053" fill="#fff" stroke="#0DA7E2" stroke-width=".712"/><path d="M14.477 20.276V9.944c0-.197 0-.395.065-.592.066-.198.198-.395.33-.527.131-.131.197-.131.329 0 2.303 2.37 4.672 4.739 6.975 7.108a292.142 292.142 0 0 1 4.541 4.607c.132.131.132.197 0 .394-3.685 3.62-7.37 7.305-11.122 10.99 0 .066-.066.066-.131.132-.066 0-.132.066-.132.066h-.197a.142.142 0 0 1-.132-.132 1.023 1.023 0 0 1-.395-.526 2.323 2.323 0 0 1-.131-.658v-10.53ZM15.793 8.43c.263 0 .46.066.658.198 4.738 2.632 9.477 5.265 14.15 7.963.197.131.197.197.065.329l-3.159 3.159c-.132.131-.197.197-.329 0-3.751-3.817-7.502-7.7-11.253-11.517l-.132-.132Zm1.053 23.429c3.422-3.488 6.844-6.976 10.332-10.398.197-.198.329-.198.526 0 .856.921 1.777 1.777 2.633 2.698.131.132.197.198-.066.33-4.41 2.434-8.819 4.803-13.228 7.238-.066 0-.131.066-.197.132Zm19.611-11.451c0 .197-.066.329-.132.46-.066.132-.197.264-.329.395-.197.132-.46.264-.658.395-1.316.724-2.698 1.448-4.014 2.238 0 0-.066.066-.132.066h-.131c-.066 0-.066 0-.132-.066-.066 0-.066-.066-.066-.066a118.438 118.438 0 0 0-2.83-2.896c-.131-.131-.131-.197 0-.329 1.12-1.119 2.238-2.237 3.357-3.29l.065-.066s.066 0 .132-.066h.132c.065 0 .065 0 .065.066 1.317.724 2.633 1.448 3.949 2.237.198.066.395.198.527.395.065.066.197.33.197.527Zm13.854 5.642h3.145v4.34a8.475 8.475 0 0 1-1.426.34 9.926 9.926 0 0 1-1.646.123c-.886 0-1.637-.179-2.255-.537a3.524 3.524 0 0 1-1.402-1.535c-.317-.667-.475-1.467-.475-2.402 0-.91.179-1.698.536-2.365a3.758 3.758 0 0 1 1.536-1.548c.675-.374 1.491-.56 2.45-.56.48 0 .939.048 1.378.146a6.05 6.05 0 0 1 1.219.378l-.476 1.097a5.47 5.47 0 0 0-1.011-.342 4.478 4.478 0 0 0-1.158-.146c-.642 0-1.2.138-1.67.414a2.697 2.697 0 0 0-1.073 1.159c-.244.495-.366 1.089-.366 1.78 0 .65.102 1.226.305 1.73s.524.898.963 1.183c.439.284 1.012.426 1.719.426.235 0 .443-.008.621-.024.18-.024.342-.049.488-.073.154-.033.3-.061.439-.085v-2.365h-1.84V26.05Zm10.868 1.39c0 .544-.073 1.028-.22 1.45a3.03 3.03 0 0 1-.62 1.073 2.652 2.652 0 0 1-.976.67 3.59 3.59 0 0 1-1.292.22 3.31 3.31 0 0 1-1.22-.22 2.791 2.791 0 0 1-.974-.67 3.18 3.18 0 0 1-.634-1.073c-.155-.422-.232-.91-.232-1.463 0-.723.122-1.336.366-1.84a2.62 2.62 0 0 1 1.073-1.146c.47-.268 1.023-.402 1.657-.402.602 0 1.13.134 1.585.402.463.26.825.642 1.085 1.146.268.504.402 1.121.402 1.853Zm-4.84 0c0 .487.062.91.184 1.267.122.35.313.618.573.805.26.187.593.28 1 .28.406 0 .739-.093.999-.28.26-.187.45-.455.573-.805.122-.357.183-.78.183-1.267 0-.504-.065-.927-.195-1.268-.122-.341-.313-.602-.573-.78-.252-.187-.585-.28-1-.28-.61 0-1.052.203-1.329.609-.276.406-.414.98-.414 1.719Zm12.269 0c0 .544-.074 1.028-.22 1.45a3.03 3.03 0 0 1-.622 1.073 2.65 2.65 0 0 1-.975.67 3.59 3.59 0 0 1-1.292.22c-.439 0-.845-.073-1.219-.22a2.792 2.792 0 0 1-.975-.67 3.18 3.18 0 0 1-.634-1.073c-.154-.422-.232-.91-.232-1.463 0-.723.122-1.336.366-1.84a2.62 2.62 0 0 1 1.073-1.146c.471-.268 1.024-.402 1.658-.402.601 0 1.13.134 1.584.402.464.26.825.642 1.085 1.146.269.504.403 1.121.403 1.853Zm-4.84 0c0 .487.061.91.183 1.267.122.35.313.618.573.805.26.187.593.28 1 .28.406 0 .739-.093 1-.28.26-.187.45-.455.572-.805.122-.357.183-.78.183-1.267 0-.504-.065-.927-.195-1.268-.122-.341-.313-.602-.573-.78-.252-.187-.585-.28-1-.28-.61 0-1.052.203-1.328.609-.277.406-.415.98-.415 1.719Zm8.745-3.401c.422 0 .804.08 1.146.243.341.163.63.41.865.744h.061l.147-.866h1.048v6.656c0 .618-.11 1.138-.33 1.56a2.09 2.09 0 0 1-1.011.951c-.447.22-1.012.33-1.694.33-.472 0-.907-.033-1.305-.098a4.928 4.928 0 0 1-1.097-.305v-1.133c.236.113.484.207.744.28a4.4 4.4 0 0 0 .829.17c.292.041.593.062.902.062.536 0 .95-.155 1.243-.464.293-.3.439-.727.439-1.28v-.22c0-.105.004-.243.012-.413.008-.18.016-.31.025-.39h-.05a2.13 2.13 0 0 1-.84.755 2.615 2.615 0 0 1-1.134.232c-.829 0-1.48-.297-1.95-.89-.464-.601-.695-1.434-.695-2.499 0-.715.105-1.325.317-1.828.21-.512.512-.907.902-1.183.398-.276.873-.414 1.426-.414Zm.268 1.072c-.341 0-.63.094-.865.28-.236.18-.415.444-.537.793-.122.35-.183.78-.183 1.292 0 .764.135 1.345.403 1.743.276.398.678.598 1.206.598.31 0 .57-.041.78-.122a1.22 1.22 0 0 0 .537-.378c.146-.17.252-.386.317-.646.073-.268.11-.59.11-.963v-.244c0-.56-.065-1.012-.195-1.353-.122-.35-.313-.602-.573-.756-.26-.162-.594-.244-1-.244Zm6.316 5.62h-1.292v-9.265h1.292v9.265Zm4.613-6.692c.577 0 1.073.121 1.488.365.414.236.73.577.95 1.024.228.447.342.976.342 1.585v.707h-4.413c.016.675.19 1.19.524 1.548.341.358.817.537 1.426.537a5.15 5.15 0 0 0 1.122-.11c.333-.082.674-.2 1.024-.354v1.073a4.972 4.972 0 0 1-1 .33 5.723 5.723 0 0 1-1.195.109c-.633 0-1.194-.126-1.682-.378a2.72 2.72 0 0 1-1.146-1.122c-.268-.503-.402-1.121-.402-1.852 0-.74.122-1.366.366-1.878.252-.512.597-.902 1.036-1.17.447-.276.967-.414 1.56-.414Zm0 1c-.463 0-.837.15-1.121.45-.276.3-.439.727-.488 1.28h3.097c0-.341-.053-.642-.159-.902a1.3 1.3 0 0 0-.487-.61c-.22-.146-.5-.219-.842-.219Zm10.143-3.012c1.138 0 1.967.232 2.487.695.52.455.78 1.093.78 1.914 0 .366-.061.715-.183 1.048a2.335 2.335 0 0 1-.573.902c-.268.26-.626.468-1.073.622-.439.146-.979.22-1.621.22h-.939v3.303h-1.316v-8.704h2.438Zm-.098 1.11h-1.024v3.181h.793c.495 0 .91-.053 1.243-.158.333-.114.581-.289.744-.524.17-.244.256-.561.256-.951 0-.52-.163-.906-.488-1.158-.317-.26-.825-.39-1.524-.39Zm6.27 7.594h-1.293v-9.265h1.293v9.265Zm4.577-6.692c.828 0 1.446.182 1.852.548.407.358.61.922.61 1.695v4.449h-.914l-.256-.914h-.049c-.187.235-.382.43-.585.585a1.93 1.93 0 0 1-.683.341 3.37 3.37 0 0 1-.926.11c-.39 0-.744-.07-1.061-.207a1.685 1.685 0 0 1-.731-.659c-.179-.3-.268-.674-.268-1.121 0-.667.252-1.174.755-1.524.512-.35 1.288-.54 2.329-.573l1.121-.036v-.366c0-.488-.11-.829-.329-1.024-.219-.195-.528-.293-.926-.293-.342 0-.667.05-.976.147a6.015 6.015 0 0 0-.877.353l-.415-.939a5.07 5.07 0 0 1 1.061-.402 4.71 4.71 0 0 1 1.268-.17Zm.304 3.56c-.747.032-1.268.157-1.56.377-.284.211-.427.512-.427.902 0 .341.102.59.305.744.211.154.475.231.792.231.512 0 .935-.142 1.268-.426.333-.285.5-.712.5-1.28v-.573l-.878.024Zm3.148-3.439h1.39l1.365 3.73c.073.188.138.37.195.55.057.178.106.357.146.535.049.171.086.342.11.512h.049c.04-.21.105-.459.195-.743.089-.293.183-.581.28-.866l1.292-3.718h1.39l-2.816 7.46a4.117 4.117 0 0 1-.573 1.086c-.228.308-.5.544-.817.707-.308.162-.674.244-1.097.244-.203 0-.378-.013-.524-.037a3.364 3.364 0 0 1-.378-.061v-1.024c.09.016.195.033.317.049.13.016.264.024.402.024.252 0 .468-.049.646-.146a1.26 1.26 0 0 0 .464-.415c.13-.178.239-.381.329-.61l.268-.706-2.633-6.57ZM51.451 18.5h-.762v-1.666h-4.355V18.5h-.762v-2.376h.49c.427-.728.796-1.61 1.108-2.645.311-1.036.495-2.028.55-2.974h2.926v5.619h.805V18.5Zm-1.597-2.376v-4.9H48.42c-.055.718-.231 1.556-.528 2.514-.295.959-.625 1.754-.992 2.386h2.953Zm6.679-1.676c0 .777-.196 1.383-.589 1.819-.392.435-.935.653-1.627.653-.43 0-.811-.1-1.143-.299a1.985 1.985 0 0 1-.766-.865c-.18-.376-.269-.811-.269-1.308 0-.773.194-1.375.58-1.805.387-.433.93-.65 1.628-.65.67 0 1.2.222 1.593.663.395.439.593 1.036.593 1.792Zm-3.589 0c0 .598.117 1.052.351 1.364.237.309.584.463 1.043.463.453 0 .798-.154 1.035-.463.237-.312.355-.766.355-1.364 0-.597-.12-1.046-.36-1.346-.236-.303-.584-.454-1.043-.454-.92 0-1.38.6-1.38 1.8Zm6.732 2.472c-.684 0-1.217-.21-1.598-.628-.38-.42-.571-1.024-.571-1.809 0-.796.192-1.41.576-1.84.386-.433.936-.65 1.649-.65.23 0 .459.025.684.075.228.046.416.106.563.181l-.238.65c-.401-.15-.743-.225-1.026-.225-.48 0-.833.151-1.06.454-.229.3-.343.749-.343 1.346 0 .575.114 1.015.342 1.32.228.304.566.455 1.013.455.419 0 .83-.092 1.234-.277v.693c-.33.17-.738.255-1.225.255Zm5.636-4.182h-1.554v4.096h-.77v-4.095h-1.533v-.659h3.857v.659Zm.199-.657h.836l1.025 2.705c.217.589.35 1.02.399 1.294h.034c.026-.106.085-.306.178-.597.092-.294.17-.53.233-.706l.966-2.696h.84l-2.048 5.41c-.199.526-.436.902-.71 1.13-.274.228-.613.342-1.017.342a2.87 2.87 0 0 1-.645-.073v-.62c.144.035.317.053.52.053a.98.98 0 0 0 .631-.208c.174-.136.315-.346.425-.632l.246-.632-1.913-4.77Zm6.043 4.753h-.78V12.08h4.018v4.753h-.78v-4.087h-2.458v4.087Zm6.775.086c-.713 0-1.273-.215-1.68-.645-.404-.433-.606-1.027-.606-1.783 0-.762.19-1.368.567-1.818.378-.454.889-.68 1.532-.68.598 0 1.074.193 1.43.58.354.384.531.905.531 1.563v.471h-3.255c.015.54.152.95.412 1.23s.627.42 1.103.42c.254 0 .495-.022.723-.065a4.28 4.28 0 0 0 .801-.264v.684a3.82 3.82 0 0 1-.74.238c-.231.046-.504.07-.818.07Zm-.195-4.29c-.372 0-.667.12-.883.36-.217.24-.345.572-.386 1h2.42c-.005-.445-.108-.783-.307-1.013-.2-.231-.48-.347-.844-.347Zm3.956-.55v1.979h2.58V12.08h.78v4.753h-.78v-2.117h-2.58v2.117h-.779V12.08h.78Zm11.087 1.2c0 .306-.087.54-.26.7-.173.16-.42.268-.74.325v.04c.4.054.692.174.874.359.185.182.277.427.277.736 0 .45-.166.795-.498 1.034-.329.24-.803.36-1.424.36h-2.138V12.08h2.13c1.186 0 1.779.4 1.779 1.199Zm-.628 2.116c0-.265-.104-.451-.312-.558-.208-.107-.512-.16-.913-.16h-1.277v1.528h1.294c.805 0 1.208-.27 1.208-.81Zm-.134-2.047c0-.222-.087-.381-.26-.476-.17-.096-.429-.143-.775-.143h-1.333v1.303h1.19c.425 0 .726-.052.905-.156.182-.107.273-.283.273-.528Z" fill="#0DA7E2"/></svg>