<svg width="130" height="43" fill="none" xmlns="http://www.w3.org/2000/svg"><rect x=".671" y=".356" width="128.895" height="41.303" rx="6.053" fill="#fff" stroke="#0DA7E2" stroke-width=".712"/><path d="m51.761 30.73-.926-2.51H47.47l-.926 2.51h-1.365l3.303-8.74h1.365l3.292 8.74H51.76Zm-2.17-6.106a5.678 5.678 0 0 0-.134-.403l-.17-.56a22.05 22.05 0 0 1-.134-.476c-.041.163-.09.342-.147.537-.048.187-.097.361-.146.524l-.122.378-.877 2.45h2.608l-.877-2.45Zm7.854-.585c.789 0 1.423.284 1.902.853.488.569.731 1.418.731 2.548 0 .74-.11 1.365-.329 1.877-.22.512-.528.898-.926 1.158-.398.252-.861.378-1.39.378-.333 0-.626-.04-.877-.122a2.314 2.314 0 0 1-.646-.341 3.45 3.45 0 0 1-.451-.464h-.086c.025.147.045.321.061.525.016.195.025.37.025.524v2.681h-1.293v-9.495h1.049l.182.877h.062c.13-.179.284-.345.463-.5.178-.154.394-.276.646-.365.252-.09.544-.134.877-.134Zm-.304 1.06c-.407 0-.732.081-.975.244-.244.154-.423.39-.537.707-.105.309-.162.703-.17 1.182v.195c0 .504.052.935.158 1.293.106.349.28.617.524.804.252.179.593.268 1.024.268.366 0 .662-.097.89-.292.236-.203.41-.484.524-.841.114-.358.17-.772.17-1.244 0-.715-.13-1.28-.39-1.694-.26-.415-.666-.622-1.218-.622Zm7.864-1.06c.788 0 1.422.284 1.901.853.488.569.732 1.418.732 2.548 0 .74-.11 1.365-.33 1.877-.219.512-.528.898-.926 1.158-.398.252-.861.378-1.39.378-.333 0-.625-.04-.877-.122a2.316 2.316 0 0 1-.646-.341c-.17-.147-.321-.301-.451-.464h-.086c.025.147.045.321.061.525.017.195.025.37.025.524v2.681h-1.292v-9.495h1.048l.183.877h.06c.13-.179.285-.345.464-.5a2 2 0 0 1 .646-.365c.252-.09.544-.134.878-.134Zm-.305 1.06c-.406 0-.732.081-.975.244-.244.154-.423.39-.537.707-.105.309-.162.703-.17 1.182v.195c0 .504.053.935.158 1.293.106.349.28.617.524.804.252.179.594.268 1.024.268.366 0 .663-.097.89-.292.236-.203.41-.484.524-.841.114-.358.171-.772.171-1.244 0-.715-.13-1.28-.39-1.694-.26-.415-.666-.622-1.22-.622Zm11.53.95h3.145v4.34a8.475 8.475 0 0 1-1.426.342 9.925 9.925 0 0 1-1.646.122c-.885 0-1.637-.179-2.255-.537a3.524 3.524 0 0 1-1.402-1.535c-.317-.667-.475-1.467-.475-2.402 0-.91.179-1.698.536-2.365a3.759 3.759 0 0 1 1.536-1.548c.675-.374 1.492-.56 2.45-.56.48 0 .939.048 1.378.146.439.089.845.215 1.219.378l-.476 1.097a5.473 5.473 0 0 0-1.011-.342 4.478 4.478 0 0 0-1.158-.146c-.642 0-1.199.138-1.67.414-.464.269-.821.655-1.073 1.159-.244.495-.366 1.089-.366 1.78 0 .65.102 1.226.305 1.73s.524.898.963 1.183c.439.284 1.012.426 1.719.426.235 0 .443-.008.621-.024.18-.024.342-.049.488-.073.154-.033.3-.061.439-.085v-2.365h-1.84V26.05Zm7.626-2.01c.829 0 1.446.182 1.853.548.406.358.61.922.61 1.695v4.449h-.915l-.256-.914h-.049c-.187.235-.382.43-.585.585a1.926 1.926 0 0 1-.683.341c-.252.073-.56.11-.926.11-.39 0-.744-.07-1.06-.207a1.686 1.686 0 0 1-.732-.659c-.179-.3-.268-.674-.268-1.121 0-.667.252-1.174.756-1.524.512-.35 1.288-.54 2.328-.573l1.121-.036v-.366c0-.488-.11-.829-.329-1.024-.22-.195-.528-.293-.926-.293a3.22 3.22 0 0 0-.975.147 6 6 0 0 0-.878.353l-.414-.939a5.058 5.058 0 0 1 1.06-.402c.406-.113.829-.17 1.268-.17Zm.305 3.56c-.748.032-1.268.157-1.56.377-.285.211-.427.512-.427.902 0 .341.101.59.304.744.212.154.476.231.793.231.512 0 .934-.142 1.267-.426.334-.285.5-.712.5-1.28v-.573l-.877.024ZM89.6 30.73h-1.292v-9.265H89.6v9.265Zm3.321 0H91.63v-9.265h1.292v9.265Zm4.614-6.692c.577 0 1.072.121 1.487.365.414.236.731.577.95 1.024.228.447.342.976.342 1.585v.707h-4.413c.016.675.191 1.19.524 1.548.342.358.817.537 1.427.537.422 0 .796-.037 1.121-.11.333-.082.675-.2 1.024-.354v1.073a4.971 4.971 0 0 1-1 .33c-.333.072-.731.109-1.194.109-.634 0-1.195-.126-1.682-.378a2.72 2.72 0 0 1-1.146-1.122c-.268-.503-.402-1.121-.402-1.852 0-.74.121-1.366.365-1.878.252-.512.597-.902 1.036-1.17.447-.276.967-.414 1.56-.414Zm0 1c-.464 0-.837.15-1.122.45-.276.3-.439.727-.487 1.28h3.096c0-.341-.053-.642-.159-.902a1.3 1.3 0 0 0-.487-.61c-.22-.146-.5-.219-.841-.219Zm7.634-1c.114 0 .24.008.378.024.138.008.252.02.341.037l-.134 1.206a2.438 2.438 0 0 0-.317-.06 2.605 2.605 0 0 0-.341-.025c-.244 0-.48.049-.707.146-.22.09-.419.224-.598.403-.178.17-.321.381-.426.634-.098.251-.147.54-.147.865v3.462h-1.292v-6.57h1.024l.171 1.17h.049a3.19 3.19 0 0 1 .499-.646 2.25 2.25 0 0 1 .671-.464c.252-.122.528-.182.829-.182Zm.936.121h1.39l1.365 3.73c.073.188.138.37.195.55.057.178.106.357.146.535.049.171.086.342.11.512h.049c.04-.21.105-.459.195-.743.089-.293.183-.581.28-.866l1.292-3.718h1.39l-2.816 7.46a4.117 4.117 0 0 1-.573 1.086c-.227.308-.5.544-.817.707-.308.162-.674.244-1.097.244-.203 0-.378-.013-.524-.037a3.364 3.364 0 0 1-.378-.061v-1.024c.09.016.195.033.317.049.13.016.264.024.402.024.252 0 .468-.049.647-.146.186-.098.341-.236.463-.415.13-.178.24-.381.329-.61l.268-.706-2.633-6.57ZM51.11 18.5h-.763v-1.666h-4.355V18.5h-.761v-2.376h.489c.427-.728.796-1.61 1.108-2.645.312-1.036.495-2.028.55-2.974h2.926v5.619h.805V18.5Zm-1.598-2.376v-4.9h-1.433c-.055.718-.23 1.556-.528 2.514-.294.959-.625 1.754-.991 2.386h2.952Zm6.68-1.676c0 .777-.197 1.383-.59 1.819-.392.435-.934.653-1.627.653-.43 0-.811-.1-1.143-.299a1.985 1.985 0 0 1-.766-.865c-.18-.376-.269-.811-.269-1.308 0-.773.194-1.375.58-1.805.387-.433.93-.65 1.628-.65.67 0 1.2.222 1.593.663.396.439.593 1.036.593 1.792Zm-3.59 0c0 .598.117 1.052.351 1.364.237.309.585.463 1.043.463.454 0 .798-.154 1.035-.463.237-.312.355-.766.355-1.364 0-.597-.12-1.046-.36-1.346-.236-.303-.584-.454-1.043-.454-.92 0-1.38.6-1.38 1.8Zm6.732 2.472c-.684 0-1.216-.21-1.597-.628-.381-.42-.572-1.024-.572-1.809 0-.796.192-1.41.576-1.84.387-.433.936-.65 1.65-.65.23 0 .458.025.683.075.228.046.416.106.563.181l-.238.65c-.401-.15-.743-.225-1.026-.225-.48 0-.833.151-1.06.454-.229.3-.343.749-.343 1.346 0 .575.114 1.015.342 1.32.228.304.566.455 1.013.455.419 0 .83-.092 1.234-.277v.693c-.329.17-.737.255-1.225.255Zm5.636-4.182h-1.554v4.096h-.77v-4.095h-1.533v-.659h3.857v.659Zm.2-.657h.835l1.026 2.705c.216.589.349 1.02.398 1.294h.034c.027-.106.086-.306.178-.597.092-.294.17-.53.234-.706l.965-2.696h.84l-2.048 5.41c-.199.526-.435.902-.71 1.13-.274.228-.613.342-1.017.342a2.87 2.87 0 0 1-.645-.073v-.62c.144.035.318.053.52.053a.98.98 0 0 0 .632-.208c.173-.136.314-.346.424-.632l.247-.632-1.914-4.77Zm6.042 4.753h-.779V12.08h4.017v4.753h-.779v-4.087h-2.459v4.087Zm6.775.086c-.713 0-1.273-.215-1.68-.645-.404-.433-.606-1.027-.606-1.783 0-.762.19-1.368.567-1.818.378-.454.89-.68 1.533-.68.597 0 1.073.193 1.428.58.355.384.533.905.533 1.563v.471h-3.256c.015.54.152.95.412 1.23s.627.42 1.103.42c.254 0 .495-.022.723-.065a4.28 4.28 0 0 0 .801-.264v.684c-.262.112-.51.192-.74.238-.23.046-.504.07-.818.07Zm-.195-4.29c-.372 0-.667.12-.883.36-.216.24-.345.572-.385 1h2.42c-.006-.445-.109-.783-.308-1.013-.199-.231-.48-.347-.844-.347Zm3.957-.55v1.979h2.58V12.08h.779v4.753h-.78v-2.117h-2.58v2.117h-.779V12.08h.78Zm11.086 1.2c0 .306-.087.54-.26.7-.173.16-.42.268-.74.325v.04c.4.054.692.174.874.359.185.182.277.427.277.736 0 .45-.166.795-.498 1.034-.329.24-.803.36-1.424.36h-2.138V12.08h2.13c1.186 0 1.779.4 1.779 1.199Zm-.628 2.116c0-.265-.104-.451-.312-.558-.207-.107-.512-.16-.913-.16h-1.277v1.528h1.294c.806 0 1.208-.27 1.208-.81Zm-.134-2.047c0-.222-.087-.381-.26-.476-.17-.096-.428-.143-.775-.143h-1.333v1.303h1.19c.425 0 .726-.052.905-.156.182-.107.273-.283.273-.528Z" fill="#0DA7E2"/><path fill-rule="evenodd" clip-rule="evenodd" d="M16.61 7.438c-5 0-6.83 1.829-6.83 6.829v10.685c0 5 1.83 6.828 6.83 6.828h10.68c5 0 6.833-1.828 6.833-6.828V14.267c0-5-1.83-6.829-6.83-6.829H16.61Z" fill="#0DA7E2"/><path fill-rule="evenodd" clip-rule="evenodd" d="M20.399 21.556h.977l-.49-1.14-.487 1.14Zm-.241.575-.29.663h-.66l1.404-3.185h.57l1.398 3.185h-.677l-.287-.663h-1.458Zm10.622.66h.638V19.61h-.638v3.183Zm-2.539-1.367h1.176v-.58h-1.176v-.652h1.707v-.58h-2.345v3.182h2.407v-.58H28.24v-.79Zm-2.535.377-.723-2.192h-.528l-.723 2.192-.704-2.19h-.689l1.111 3.185h.535l.725-2.092.724 2.092h.54l1.108-3.185h-.67l-.706 2.19Zm-7.472-.368c0 .518-.257.795-.724.795-.47 0-.729-.285-.729-.817v-1.8h-.646v1.822c0 .897.498 1.41 1.366 1.41.877 0 1.38-.523 1.38-1.436v-1.798h-.647v1.824Zm-3.642-1.824h.646v3.187h-.646v-1.294h-1.46v1.294h-.647v-3.187h.647v1.286h1.46v-1.286ZM21.953 15.552a4.062 4.062 0 0 1-4.058-4.057h.574a3.488 3.488 0 0 0 3.484 3.484 3.488 3.488 0 0 0 3.484-3.484h.573a4.062 4.062 0 0 1-4.057 4.057Z" fill="#fff"/></svg>