<svg width="130" height="43" fill="none" xmlns="http://www.w3.org/2000/svg"><rect x=".356" y=".356" width="128.895" height="41.303" rx="6.053" fill="#fff" stroke="#0DA7E2" stroke-width=".712"/><path d="M29.695 21.491c0-.987.263-1.909.724-2.764a5.353 5.353 0 0 1 1.974-2.04c-.526-.724-1.184-1.382-2.04-1.777-.79-.46-1.71-.658-2.632-.724-1.975-.197-3.817 1.185-4.804 1.185-.988 0-2.567-1.12-4.212-1.12-.987 0-2.04.264-2.962.856-.921.593-1.645 1.317-2.171 2.238-2.238 3.883-.593 9.608 1.58 12.767 1.052 1.514 2.302 3.29 4.013 3.225 1.58-.066 2.238-1.053 4.146-1.053 1.909 0 2.501 1.053 4.146.987 1.712 0 2.83-1.58 3.883-3.093a12.359 12.359 0 0 0 1.777-3.62c-.987-.395-1.843-1.118-2.435-2.04a5.194 5.194 0 0 1-.987-3.027ZM26.537 12.08c.921-1.119 1.382-2.566 1.316-4.08-1.448.197-2.83.856-3.751 1.974-.46.527-.856 1.12-1.053 1.843-.197.658-.33 1.382-.263 2.106.724 0 1.447-.132 2.106-.46.592-.396 1.184-.856 1.645-1.383ZM51.447 30.73l-.927-2.51h-3.364l-.926 2.51h-1.366l3.304-8.74h1.365l3.291 8.74h-1.377Zm-2.17-6.106a5.626 5.626 0 0 0-.134-.403l-.17-.56a22.05 22.05 0 0 1-.135-.476c-.04.163-.09.342-.146.537a15.03 15.03 0 0 1-.146.524l-.122.378-.878 2.45h2.609l-.878-2.45Zm7.854-.585c.788 0 1.422.284 1.902.853.487.569.731 1.418.731 2.548 0 .74-.11 1.365-.33 1.877-.218.512-.527.898-.925 1.158-.399.252-.862.378-1.39.378-.333 0-.626-.04-.878-.122a2.313 2.313 0 0 1-.646-.341c-.17-.147-.32-.301-.451-.464h-.085c.024.147.044.321.06.525.017.195.025.37.025.524v2.681h-1.292v-9.495H54.9l.183.877h.061c.13-.179.285-.345.463-.5a2 2 0 0 1 .646-.365c.252-.09.545-.134.878-.134Zm-.305 1.06c-.406 0-.731.081-.975.244-.244.154-.422.39-.536.707-.106.309-.163.703-.171 1.182v.195c0 .504.053.935.159 1.293.105.349.28.617.524.804.252.179.593.268 1.024.268.365 0 .662-.097.89-.292.235-.203.41-.484.524-.841.113-.358.17-.772.17-1.244 0-.715-.13-1.28-.39-1.694-.26-.415-.666-.622-1.219-.622Zm7.864-1.06c.788 0 1.422.284 1.902.853.487.569.731 1.418.731 2.548 0 .74-.11 1.365-.329 1.877-.22.512-.528.898-.926 1.158-.398.252-.862.378-1.39.378-.333 0-.626-.04-.878-.122a2.315 2.315 0 0 1-.646-.341c-.17-.147-.32-.301-.45-.464h-.086c.024.147.045.321.06.525a6.4 6.4 0 0 1 .025.524v2.681h-1.292v-9.495h1.048l.183.877h.061c.13-.179.285-.345.463-.5.18-.154.395-.276.647-.365.251-.09.544-.134.877-.134Zm-.305 1.06c-.406 0-.73.081-.975.244-.243.154-.422.39-.536.707-.106.309-.163.703-.17 1.182v.195c0 .504.052.935.158 1.293.105.349.28.617.524.804.252.179.593.268 1.024.268.365 0 .662-.097.89-.292.235-.203.41-.484.524-.841.114-.358.17-.772.17-1.244 0-.715-.13-1.28-.39-1.694-.26-.415-.666-.622-1.219-.622Zm12.896 3.28c0 .52-.126.962-.378 1.328-.252.366-.613.65-1.085.853-.471.195-1.032.293-1.682.293-.317 0-.622-.02-.914-.061a5.865 5.865 0 0 1-.817-.146 3.396 3.396 0 0 1-.67-.244v-1.244c.325.147.707.28 1.145.403.44.113.886.17 1.341.17.39 0 .715-.053.975-.158a1.27 1.27 0 0 0 .586-.439c.13-.187.195-.406.195-.658 0-.268-.07-.492-.208-.67-.13-.188-.337-.358-.621-.513a7.575 7.575 0 0 0-1.122-.512 6.962 6.962 0 0 1-.89-.402 3.515 3.515 0 0 1-.694-.536 2.145 2.145 0 0 1-.451-.707 2.55 2.55 0 0 1-.159-.939c0-.48.118-.89.354-1.231a2.294 2.294 0 0 1 1-.78c.422-.187.913-.28 1.474-.28.472 0 .906.048 1.305.146.406.089.792.215 1.157.378l-.414 1.084a7.808 7.808 0 0 0-1.012-.34 4.217 4.217 0 0 0-1.072-.135c-.325 0-.598.049-.817.146-.22.098-.386.232-.5.403a1.11 1.11 0 0 0-.158.597c0 .268.06.492.183.67.121.18.316.346.585.5.268.146.621.309 1.06.488.488.187.902.39 1.243.61.35.219.614.483.793.792.179.3.268.678.268 1.133Zm3.923 1.425c.17 0 .345-.016.524-.048.179-.033.333-.07.463-.11v.975a2.25 2.25 0 0 1-.56.159 3.486 3.486 0 0 1-.708.073c-.357 0-.686-.061-.987-.183a1.476 1.476 0 0 1-.707-.634c-.179-.3-.268-.72-.268-1.256v-3.632h-.914v-.585l.963-.488.45-1.39h.793v1.476h1.877v.987h-1.877v3.608c0 .358.085.622.256.793.179.17.41.256.695.256Zm8.092-2.364c0 .544-.074 1.028-.22 1.45a3.03 3.03 0 0 1-.621 1.073 2.652 2.652 0 0 1-.976.67 3.59 3.59 0 0 1-1.292.22c-.439 0-.845-.073-1.219-.22a2.792 2.792 0 0 1-.975-.67 3.182 3.182 0 0 1-.634-1.073c-.154-.422-.231-.91-.231-1.463 0-.723.121-1.336.365-1.84.252-.504.61-.886 1.073-1.146.471-.268 1.024-.402 1.658-.402.601 0 1.13.134 1.584.402.464.26.825.642 1.085 1.146.269.504.403 1.121.403 1.853Zm-4.84 0c0 .487.061.91.183 1.267.122.35.313.618.573.805.26.187.593.28 1 .28.406 0 .74-.093 1-.28.26-.187.45-.455.572-.805.122-.357.183-.78.183-1.267 0-.504-.065-.927-.195-1.268-.122-.341-.313-.602-.573-.78-.252-.187-.585-.28-1-.28-.61 0-1.052.203-1.328.609-.277.406-.415.98-.415 1.719Zm9.72-3.401c.114 0 .24.008.378.024.138.008.252.02.341.037l-.134 1.206a2.45 2.45 0 0 0-.317-.06 2.601 2.601 0 0 0-.34-.025c-.245 0-.48.049-.708.146a1.8 1.8 0 0 0-.597.403c-.179.17-.321.381-.427.634-.097.251-.146.54-.146.865v3.462h-1.292v-6.57h1.024l.17 1.17h.05c.137-.236.304-.451.499-.646a2.25 2.25 0 0 1 .67-.464c.252-.122.529-.182.83-.182Zm4.282 0c.577 0 1.073.121 1.487.365.415.236.732.577.951 1.024.228.447.342.976.342 1.585v.707h-4.413c.016.675.19 1.19.524 1.548.341.358.817.537 1.426.537.423 0 .797-.037 1.122-.11.333-.082.674-.2 1.024-.354v1.073a4.983 4.983 0 0 1-1 .33c-.333.072-.731.109-1.195.109-.633 0-1.194-.126-1.682-.378a2.721 2.721 0 0 1-1.146-1.122c-.268-.503-.402-1.121-.402-1.852 0-.74.122-1.366.366-1.878.252-.512.597-.902 1.036-1.17.447-.276.967-.414 1.56-.414Zm0 1c-.463 0-.837.15-1.121.45-.276.3-.44.727-.488 1.28h3.096c0-.341-.052-.642-.158-.902a1.299 1.299 0 0 0-.488-.61c-.22-.146-.5-.219-.84-.219ZM50.795 18.5h-.762v-1.666h-4.355V18.5h-.762v-2.376h.49c.427-.728.796-1.61 1.108-2.645.311-1.036.494-2.028.55-2.974h2.926v5.619h.805V18.5Zm-1.598-2.376v-4.9h-1.432c-.055.718-.231 1.556-.529 2.514-.294.959-.624 1.754-.99 2.386h2.951Zm6.68-1.676c0 .777-.196 1.383-.589 1.819-.392.435-.935.653-1.628.653-.43 0-.81-.1-1.142-.299a1.985 1.985 0 0 1-.767-.865c-.178-.376-.268-.811-.268-1.308 0-.773.193-1.375.58-1.805.387-.433.93-.65 1.628-.65.67 0 1.2.222 1.593.663.395.439.593 1.036.593 1.792Zm-3.589 0c0 .598.117 1.052.35 1.364.238.309.585.463 1.044.463.453 0 .798-.154 1.035-.463.236-.312.355-.766.355-1.364 0-.597-.12-1.046-.36-1.346-.236-.303-.584-.454-1.043-.454-.92 0-1.38.6-1.38 1.8Zm6.732 2.472c-.684 0-1.217-.21-1.598-.628-.38-.42-.571-1.024-.571-1.809 0-.796.192-1.41.575-1.84.387-.433.937-.65 1.65-.65.23 0 .459.025.684.075.228.046.415.106.563.181l-.239.65c-.4-.15-.743-.225-1.026-.225-.479 0-.832.151-1.06.454-.228.3-.342.749-.342 1.346 0 .575.114 1.015.342 1.32.228.304.566.455 1.013.455.418 0 .83-.092 1.234-.277v.693c-.33.17-.738.255-1.225.255Zm5.636-4.182h-1.554v4.096h-.77v-4.095h-1.533v-.659h3.857v.659Zm.199-.657h.835l1.026 2.705c.217.589.35 1.02.398 1.294h.035c.026-.106.085-.306.177-.597.093-.294.17-.53.234-.706l.966-2.696h.84l-2.048 5.41c-.2.526-.436.902-.71 1.13-.274.228-.613.342-1.017.342-.217 0-.432-.024-.645-.073v-.62c.144.035.317.053.52.053a.98.98 0 0 0 .631-.208c.173-.136.315-.346.424-.632l.247-.632-1.913-4.77Zm6.043 4.753h-.78V12.08h4.018v4.753h-.78v-4.087h-2.458v4.087Zm6.774.086c-.712 0-1.272-.215-1.68-.645-.403-.433-.605-1.027-.605-1.783 0-.762.189-1.368.567-1.818.378-.454.889-.68 1.532-.68.598 0 1.074.193 1.429.58.355.384.532.905.532 1.563v.471h-3.255c.014.54.152.95.411 1.23.26.28.628.42 1.104.42.254 0 .495-.022.723-.065.228-.046.495-.134.8-.264v.684c-.262.112-.509.192-.74.238-.23.046-.503.07-.818.07Zm-.194-4.29c-.373 0-.667.12-.883.36-.217.24-.345.572-.386 1h2.42c-.006-.445-.108-.783-.307-1.013-.2-.231-.48-.347-.844-.347Zm3.956-.55v1.979h2.58V12.08h.78v4.753h-.78v-2.117h-2.58v2.117h-.779V12.08h.78Zm11.086 1.2c0 .306-.086.54-.26.7-.173.16-.42.268-.74.325v.04c.401.054.693.174.875.359.184.182.277.427.277.736 0 .45-.166.795-.498 1.034-.329.24-.804.36-1.424.36H88.61V12.08h2.13c1.186 0 1.78.4 1.78 1.199Zm-.627 2.116c0-.265-.104-.451-.312-.558-.208-.107-.512-.16-.913-.16H89.39v1.528h1.294c.805 0 1.208-.27 1.208-.81Zm-.135-2.047c0-.222-.086-.381-.26-.476-.17-.096-.428-.143-.774-.143H89.39v1.303h1.19c.424 0 .726-.052.905-.156.181-.107.272-.283.272-.528Z" fill="#0DA7E2"/></svg>