<svg width="15" height="15" fill="none" xmlns="http://www.w3.org/2000/svg"><path d="M14.92 11.825c-.697-1.454-1.884-2.403-3.582-2.826a.836.836 0 0 0-.729.166L9.2 10.316a.836.836 0 0 1-.966.068 10.947 10.947 0 0 1-3.617-3.617.836.836 0 0 1 .068-.967l1.151-1.41a.836.836 0 0 0 .166-.729C5.578 1.964 4.63.777 3.175.081a.823.823 0 0 0-.74.016C1.702.487 1.002.929.34 1.426a.846.846 0 0 0-.33.817c.477 2.822 2.002 5.79 4.48 8.267 2.477 2.477 5.444 4.002 8.266 4.478a.846.846 0 0 0 .817-.329 16.24 16.24 0 0 0 1.33-2.093.823.823 0 0 0 .016-.74Z" fill="#000"/></svg>