<svg width="192" height="62" fill="none" xmlns="http://www.w3.org/2000/svg"><path d="M3.192 56h29.616C34.571 56 36 54.333 36 52.276V3.724C36 1.667 34.571 0 32.808 0H3.192C1.429 0 0 1.667 0 3.724v48.552C0 54.333 1.429 56 3.192 56Z" fill="url(#a)"/><ellipse cx="12.129" cy="32.553" rx="1.923" ry="1.97" fill="#5987AD"/><ellipse cx="17.9" cy="32.553" rx="1.923" ry="1.97" fill="#5987AD"/><ellipse cx="23.672" cy="32.553" rx="1.923" ry="1.97" fill="#5987AD"/><ellipse cx="12.129" cy="39.693" rx="1.923" ry="1.97" fill="#5987AD"/><ellipse cx="17.9" cy="39.693" rx="1.923" ry="1.97" fill="#5987AD"/><ellipse cx="23.672" cy="39.693" rx="1.923" ry="1.97" fill="#5987AD"/><ellipse cx="12.129" cy="46.836" rx="1.923" ry="1.97" fill="#5987AD"/><ellipse cx="17.9" cy="46.836" rx="1.923" ry="1.97" fill="#5987AD"/><ellipse cx="23.672" cy="46.836" rx="1.923" ry="1.97" fill="#5987AD"/><rect x="8.164" y="11.518" width="19.924" height="2.383" rx="1.191" fill="#273B7A"/><rect x="8.164" y="7.149" width="19.924" height="2.383" rx="1.191" fill="#273B7A"/><path d="M8.664 24.624H27.26c1.028 0 1.86-1.334 1.86-2.979s-.833-2.978-1.86-2.978H8.665c-1.027 0-1.86 1.334-1.86 2.978 0 1.646.833 2.98 1.86 2.98Z" fill="#FFC91B"/><path fill-rule="evenodd" clip-rule="evenodd" d="M61.215 24.967a29.924 29.924 0 0 0-.707 6.483c0 13.558 8.926 24.55 19.938 24.55 11.011 0 19.938-10.992 19.938-24.55 0-2.246-.25-4.418-.707-6.483H61.215Z" fill="#524843"/><path fill-rule="evenodd" clip-rule="evenodd" d="M90.659 40.483c0 5.356-4.355 9.698-9.726 9.698s-9.726-4.342-9.726-9.698c0-5.356 4.355-9.698 9.726-9.698 5.37 0 9.726 4.341 9.726 9.698" fill="#4C413C"/><path fill-rule="evenodd" clip-rule="evenodd" d="M89.686 40.484c0 4.82-3.919 8.727-8.753 8.727s-8.753-3.907-8.753-8.727 3.919-8.729 8.753-8.729 8.753 3.908 8.753 8.729" fill="#8E8883"/><path fill-rule="evenodd" clip-rule="evenodd" d="M87.74 40.484c0 3.749-3.048 6.788-6.808 6.788s-6.809-3.039-6.809-6.788c0-3.75 3.048-6.79 6.808-6.79s6.808 3.04 6.808 6.79" fill="#524843"/><path fill-rule="evenodd" clip-rule="evenodd" d="M76.093 40.713a1.458 1.458 0 0 1 1.692-1.177 1.455 1.455 0 1 1-.512 2.864 1.455 1.455 0 0 1-1.18-1.687M78.029 37.404a.972.972 0 0 1 1.915.34.973.973 0 0 1-1.915-.34" fill="#fff"/><mask id="b" style="mask-type:luminance" maskUnits="userSpaceOnUse" x="52" y="0" width="57" height="32"><path fill-rule="evenodd" clip-rule="evenodd" d="M52.728 0h56.001v31.415h-56V0Z" fill="#fff"/></mask><g mask="url(#b)"><path fill-rule="evenodd" clip-rule="evenodd" d="M108.481 6.448C95.568-1.27 80.729.093 80.729.093S65.89-1.27 52.977 6.448c0 0-2.379 16.682 7.59 24.967 0 0 7.815-4.993 20.162-4.993 12.346 0 20.162 4.993 20.162 4.993 9.968-8.285 7.59-24.967 7.59-24.967" fill="#C2BDB8"/></g><path fill-rule="evenodd" clip-rule="evenodd" d="M97.268 27.277c-4.014-1.703-8.767-1.344-13.036-1.228-4.416.12-9.059-.209-13.44.226-2.366.235-4.567 1.228-6.797 1.968-.746.247-1.493.45-2.241.683a6.752 6.752 0 0 1-.167.064 3.06 3.06 0 0 1-1.048.985c-.014.36-.031.717-.031 1.081 0 1.227.08 2.432.232 3.609 1.363-.776 8.718-4.65 19.706-4.65 10.986 0 18.342 3.874 19.705 4.65a27.98 27.98 0 0 0 .233-3.609c0-.834-.049-1.655-.121-2.466a166.84 166.84 0 0 0-2.995-1.313" fill="#C2BDB8"/><path fill-rule="evenodd" clip-rule="evenodd" d="M80.448 22.057c-12.73 0-21.486 4.376-23.829 5.69.967 1.457 2.136 2.82 3.565 4.008 0 0 7.855-5.02 20.264-5.02 12.408 0 20.263 5.02 20.263 5.02 1.429-1.188 2.598-2.551 3.565-4.009-2.343-1.313-11.098-5.689-23.828-5.689M106.849 16.239c.829-2.787 1.195-5.569 1.317-7.929C91.662.133 73.279-.997 53.701 7.917c.099 2.356.433 5.173 1.244 8.013 18.595-8.084 36.094-7.122 51.904.309" fill="#B1AAA4"/><circle cx="31.5" cy="51.5" r="10.5" fill="#43CD7A"/><path fill-rule="evenodd" clip-rule="evenodd" d="M36.997 47.819a.874.874 0 0 0-1.244.007l-5.35 5.482-2.646-2.777a.874.874 0 0 0-1.266 1.206l3.27 3.43a.874.874 0 0 0 1.25.014l.002-.001a.872.872 0 0 0 .07-.064l5.922-6.069a.874.874 0 0 0-.008-1.228Z" fill="#fff"/><circle cx="96.5" cy="51.5" r="10.5" fill="#43CD7A"/><path fill-rule="evenodd" clip-rule="evenodd" d="M101.997 47.819a.875.875 0 0 0-1.244.007l-5.35 5.482-2.646-2.777a.874.874 0 0 0-1.266 1.206l3.27 3.43a.874.874 0 0 0 1.25.014l.002-.001a.872.872 0 0 0 .07-.064l5.922-6.069a.874.874 0 0 0-.008-1.228Z" fill="#fff"/><rect x="132.751" y="13.342" width="15.082" height="38.657" rx="1" fill="url(#c)"/><path fill-rule="evenodd" clip-rule="evenodd" d="M187.411 6.437 149.8 16.475l-.33 11.411 37.854-10.293 2.715-3.93c.167-.243.219-.547.142-.832l-1.548-5.69a1 1 0 0 0-1.222-.704Zm-61.191 17.45a1 1 0 0 0-.633 1.206l2.319 8.527a1 1 0 0 0 1.199.71l2.217-.534V22.092l-5.102 1.795Z" fill="url(#d)"/><path fill-rule="evenodd" clip-rule="evenodd" d="M153.644 21.368a.754.754 0 0 0 .28 1.029l.53.303a.754.754 0 0 0 1.029-.28l1.748-3.054a.753.753 0 0 0-.279-1.029l-.531-.303a.753.753 0 0 0-1.028.28l-1.749 3.054Zm7.762-2.11a.754.754 0 0 0 .28 1.028l.53.304a.754.754 0 0 0 1.029-.28l1.748-3.054a.753.753 0 0 0-.279-1.029l-.531-.304a.753.753 0 0 0-1.028.28l-1.749 3.055Zm8.043-1.082a.753.753 0 0 1-.28-1.029l1.749-3.055a.753.753 0 0 1 1.028-.28l.53.304a.753.753 0 0 1 .28 1.029l-1.749 3.055a.753.753 0 0 1-1.028.28l-.53-.304Zm7.481-3.14a.753.753 0 0 0 .279 1.03l.531.303a.753.753 0 0 0 1.028-.28l1.749-3.055a.754.754 0 0 0-.28-1.028l-.53-.304a.754.754 0 0 0-1.029.28l-1.748 3.055Z" fill="#E25C59"/><circle cx="148.5" cy="51.5" r="10.5" fill="#43CD7A"/><path fill-rule="evenodd" clip-rule="evenodd" d="M153.997 47.819a.875.875 0 0 0-1.244.007l-5.349 5.482-2.647-2.777a.874.874 0 0 0-1.266 1.206l3.27 3.43a.873.873 0 0 0 1.25.014l.002-.001c.024-.02.047-.041.07-.064l5.922-6.069a.874.874 0 0 0-.008-1.228Z" fill="#fff"/><defs><linearGradient id="a" x1="-16.715" y1="15.576" x2="33.912" y2="58.465" gradientUnits="userSpaceOnUse"><stop stop-color="#EEE"/><stop offset="1" stop-color="#C6C6C6"/></linearGradient><linearGradient id="c" x1="121.41" y1="3.525" x2="153.284" y2="40.929" gradientUnits="userSpaceOnUse"><stop stop-color="#989E9F"/><stop offset="1" stop-color="#5F6566"/></linearGradient><linearGradient id="d" x1="97.146" y1="34.366" x2="104.676" y2="52.637" gradientUnits="userSpaceOnUse"><stop stop-color="#CFCCCC"/><stop offset="1" stop-color="#C6C6C6"/></linearGradient></defs></svg>