<svg xmlns="http://www.w3.org/2000/svg" width="138" height="41" fill="none"><g fill="#fff" clip-path="url(#a)"><path d="M38.877 1.323V30.15a8.735 8.735 0 0 1-8.727 8.727h-20.1a8.735 8.735 0 0 1-8.727-8.727v-20.1a8.736 8.736 0 0 1 8.727-8.727h28.827ZM40.2 0H10.05A10.05 10.05 0 0 0 0 10.05v20.1A10.05 10.05 0 0 0 10.05 40.2h20.1A10.05 10.05 0 0 0 40.2 30.15V0Z"/><path d="M33.22 15.071h-4.826l-4.596 5.03V10.05h-3.723v2.448a6.104 6.104 0 0 0-.392-.465 7.65 7.65 0 0 0-5.804-2.18 6.605 6.605 0 0 0-5.397 2.392 5.812 5.812 0 0 0-1.224 4.678c.865 3.87 4.457 4.49 7.094 4.833 2.082.27 4.082.654 4.025 2.507-.057 1.853-2.229 2.384-3.682 2.384-3.715 0-3.837-2.743-3.837-2.743H6.89a6.686 6.686 0 0 0 1.633 4.082c1.388 1.559 3.47 2.343 6.188 2.343a8.033 8.033 0 0 0 5.356-1.886v1.633h3.723v-4.695l1.322-1.437 3.764 6.18h4.335l-5.453-9.053 5.461-6.001Zm-13.145 4.523c-2.67-2.196-8.466-.817-9.086-3.551-.327-1.437 1.102-2.71 2.963-2.71 1.633 0 3.34.375 3.976 2.71h2.147v3.551Zm29.603 8.016c.285.094.583.138.882.131a1.353 1.353 0 0 0 .996-.375c.255-.268.43-.602.506-.963l-5.298-11.218h3.519l3.404 8.05 2.98-8.05h3.355L55.246 26.24a9.985 9.985 0 0 1-1.975 3.266 3.266 3.266 0 0 1-2.335 1.061 3.572 3.572 0 0 1-.71 0 3.274 3.274 0 0 1-.523-.106l-.4-.122c-.1-.044-.204-.08-.31-.107v-2.906c.209.137.441.234.685.286Zm16.083-1.665c-.204.066-.432.107-.685.172-.253.065-.523.081-.817.098a5.248 5.248 0 0 1-.816 0 8.012 8.012 0 0 1-1.641-.09 3.55 3.55 0 0 1-1.233-.539 2.4 2.4 0 0 1-.751-1.004 3.942 3.942 0 0 1-.245-1.478v-4.041h2.874v3.445c-.012.262.033.524.13.768.058.2.181.376.351.498.175.137.384.224.605.253.288.045.58.066.873.065.394.014.787-.03 1.168-.13.242-.077.475-.181.694-.31v-4.589h2.873v11.095h-2.874v-4.376l-.506.163Zm14.516 2.833c.015.177.065.35.147.507a.653.653 0 0 0 .212.293c.072.059.156.1.245.123v.457H77.69l-.13-.522a2.097 2.097 0 0 1-.106-.768l-.645.645a4.575 4.575 0 0 1-.727.498 3.952 3.952 0 0 1-.972.36 5.63 5.63 0 0 1-1.249.122 4.181 4.181 0 0 1-1.38-.212 3.321 3.321 0 0 1-1.077-.645 2.986 2.986 0 0 1-.694-1.062 3.885 3.885 0 0 1-.253-1.477 3.623 3.623 0 0 1 .212-1.274 3.35 3.35 0 0 1 .604-1.02c.271-.3.595-.546.956-.727a3.488 3.488 0 0 1 1.249-.4l2.816-.416c.113-.017.224-.039.335-.066a.671.671 0 0 0 .335-.139.727.727 0 0 0 .245-.253.946.946 0 0 0 .106-.457 1.877 1.877 0 0 0-.082-.506 1.013 1.013 0 0 0-.294-.392 1.291 1.291 0 0 0-.539-.27 3.27 3.27 0 0 0-.816-.09 3.64 3.64 0 0 0-.915.107 1.371 1.371 0 0 0-.882.816l-.122.604h-2.898c.009-.189.03-.377.065-.563a3.5 3.5 0 0 1 .254-.816c.136-.292.303-.568.498-.825.22-.32.496-.597.816-.816.39-.265.82-.463 1.273-.588a7.184 7.184 0 0 1 1.788-.253c.827-.02 1.652.08 2.45.294a4.42 4.42 0 0 1 1.437.816c.315.3.551.672.685 1.086.107.388.162.79.164 1.192v5.878c.004.255.031.51.081.76Zm-3.461-3.788c-.226.101-.465.17-.71.204l-.768.147c-.296.049-.588.12-.874.213a2.149 2.149 0 0 0-.628.31c-.162.135-.29.305-.376.498-.089.226-.13.467-.122.71-.001.206.032.41.098.604a1.289 1.289 0 0 0 .775.686c.187.063.383.093.58.09.14-.008.279-.024.416-.05a2.69 2.69 0 0 0 .547-.122 3.1 3.1 0 0 0 .564-.294c.196-.116.365-.271.498-.457.18-.203.309-.447.375-.71.097-.31.147-.631.147-.955v-1.127c-.165.103-.34.187-.522.253Zm11.512-2.775a1.632 1.632 0 0 0-.36-.564 1.56 1.56 0 0 0-.563-.35 2.94 2.94 0 0 0-.816-.107 1.804 1.804 0 0 0-1.151.335 2.139 2.139 0 0 0-.67.816c-.154.36-.259.739-.31 1.127-.046.374-.074.75-.082 1.127 0 .381.02.763.057 1.142.033.382.133.755.294 1.103a1.886 1.886 0 0 0 1.862 1.143c.304.01.606-.06.873-.204a2.31 2.31 0 0 0 .605-.482c.16-.193.287-.41.375-.645a2.04 2.04 0 0 0 .106-.604h2.996c0 .239-.028.477-.081.71a6.213 6.213 0 0 1-.335.939 7.47 7.47 0 0 1-.58.98 4.17 4.17 0 0 1-.938.873c-.394.28-.83.498-1.29.645a5.397 5.397 0 0 1-1.731.253 6.115 6.115 0 0 1-2.237-.375 4.302 4.302 0 0 1-1.633-1.152 4.98 4.98 0 0 1-1.004-1.853 8.312 8.312 0 0 1-.351-2.498 7.635 7.635 0 0 1 .375-2.523 5.347 5.347 0 0 1 1.062-1.837 4.377 4.377 0 0 1 1.632-1.126 5.415 5.415 0 0 1 2.131-.4c.356.007.71.037 1.062.09.363.047.72.137 1.061.269a6.7 6.7 0 0 1 1.02.522c.348.23.656.515.915.841.265.333.477.705.629 1.102.18.474.285.972.31 1.478h-2.996a3.915 3.915 0 0 0-.237-.775Zm13.274-3.152v2.335h-3.356v8.76h-2.881v-8.76h-3.356v-2.335h9.593Zm8.001 4.009v-4.009h2.873v11.095h-2.873v-4.752h-4.238v4.752h-2.873V19.063h2.873v4.009h4.238Zm7.723 2.832 4.082-6.841h3.021v11.095h-2.874v-6.695h-.049l-3.918 6.695h-3.144V19.063h2.874v6.841h.008Zm16.068-6.841h3.837l-4.589 4.613 4.776 6.482h-3.755l-3.266-4.694-1.167 1.192v3.502h-2.874V19.063h2.874v4.213l4.164-4.213Z"/></g><defs><clipPath id="a"><path fill="#fff" d="M0 0h137.418v40.2H0z"/></clipPath></defs></svg>