<svg xmlns="http://www.w3.org/2000/svg" width="30" height="30" fill="none"><path fill="#fff" d="M15 30c8.284 0 15-6.716 15-15 0-8.284-6.716-15-15-15C6.716 0 0 6.716 0 15c0 8.284 6.716 15 15 15Z"/><path fill="#080808" fill-rule="evenodd" d="M6.782 14.838c4.372-1.899 7.282-3.16 8.743-3.772 4.159-1.736 5.033-2.036 5.595-2.048.125 0 .4.025.587.174.15.125.188.288.213.413.025.124.05.387.025.587-.225 2.373-1.2 8.13-1.699 10.778-.212 1.124-.624 1.499-1.024 1.536-.874.075-1.536-.574-2.373-1.124-1.324-.862-2.061-1.399-3.347-2.248-1.487-.974-.525-1.511.324-2.385.225-.225 4.06-3.722 4.134-4.034.013-.038.013-.188-.075-.263-.087-.075-.212-.05-.312-.025-.137.025-2.235 1.424-6.32 4.184-.599.412-1.136.612-1.623.6-.537-.013-1.561-.3-2.336-.55-.936-.3-1.686-.462-1.623-.987.037-.274.412-.549 1.111-.836Z" clip-rule="evenodd"/></svg>