<svg width="243" height="434" viewBox="0 0 243 434" fill="none" xmlns="http://www.w3.org/2000/svg">
<g clip-path="url(#clip0_520_12709)">
<path d="M134.661 20.4831C135.221 16.4131 136.114 9.11469 133.346 6.11338C129.596 2.04887 125.912 -0.647885 120.575 0.592511C118.494 1.07981 114.688 1.05212 113.335 2.37558C111.987 3.68796 110.944 7.59742 110.289 9.32512C108.464 14.1483 111.11 19.1929 113.729 23.6063C115.754 27.0174 120.242 32.7542 124.658 32.7985C130.095 32.8649 134.039 24.963 134.661 20.4831Z" fill="#AA9D92"/>
<path d="M119.904 45.5735C117.784 48.7907 115.027 51.3324 111.582 53.0989C104.314 56.8145 96.5192 56.7204 89.8562 51.7477C83.5483 47.0353 79.1765 40.6783 77.7119 32.9092C77.551 32.062 77.4123 31.2148 77.2902 30.362C76.5413 21.5353 79.1266 13.3896 85.9172 6.61728L86.1502 9.41371C86.8104 6.75018 92.4859 7.78015 94.5608 7.78015C98.2113 7.77461 101.984 8.40035 105.307 9.93423C108.597 11.4515 110.511 14.3919 112.492 17.3434C115.26 21.4743 118.145 25.4835 120.436 29.9301C121.873 32.7265 123.06 35.5395 123.987 38.3913C122.622 40.7946 121.418 43.2754 119.904 45.5735Z" fill="#AA9D92"/>
<path d="M152.176 301.294L130.317 308.272C130.317 308.272 142.295 401.955 143.382 406.578C143.382 406.578 154.45 408.35 154.323 405.698C154.029 399.302 160.98 358.962 161.319 348.917C161.896 331.64 162.09 320.31 152.176 301.294Z" fill="#F5A987"/>
<path d="M112.225 291.565L91.454 285.872C91.454 285.872 103.46 398.123 104.675 402.713C104.675 402.713 115.726 403.461 115.526 400.814C115.049 394.429 121.718 349.265 121.906 339.209C122.206 323.062 121.524 312.868 112.225 291.565Z" fill="#F5A987"/>
<path d="M105.057 401.595C104.53 403.893 102.816 410.626 100.508 412.802C97.7118 415.444 86.7492 419.669 86.7492 419.669L80.6243 420.854C80.6243 420.854 76.4856 424.132 88.4135 426.796C100.347 429.448 120.53 418.7 120.53 418.7L115.21 400.919L105.057 401.595Z" fill="#F5A987"/>
<path d="M80.6243 420.86L86.7492 419.674C86.7492 419.674 88.6077 418.955 90.9878 417.936C93.2347 419.641 95.9476 420.206 99.3984 419.093C105.734 417.044 112.519 414.22 117.995 410.233L120.53 418.7C120.53 418.7 100.347 429.454 88.4135 426.796C76.4856 424.138 80.6243 420.86 80.6243 420.86Z" fill="#7F1B29"/>
<path d="M143.404 403.821C142.877 406.119 141.169 412.852 138.861 415.034C136.065 417.676 125.102 421.901 125.102 421.901L118.971 423.086C118.971 423.086 114.833 426.369 126.761 429.027C138.694 431.685 158.877 420.932 158.877 420.932L153.557 403.151L143.404 403.821Z" fill="#F5A987"/>
<path d="M118.971 423.086L125.102 421.901C125.102 421.901 126.96 421.186 129.335 420.162C131.582 421.867 134.295 422.438 137.745 421.319C144.087 419.276 150.872 416.452 156.347 412.465L158.883 420.932C158.883 420.932 138.7 431.685 126.766 429.027C114.838 426.369 118.971 423.086 118.971 423.086Z" fill="#7F1B29"/>
<path d="M111.415 174.807C122.866 174.558 134.484 173.96 145.857 172.526C152.448 171.695 159.022 170.433 165.252 168.195C178.467 216.394 174.018 302.219 174.018 302.219C124.88 320.963 78.6662 302.297 78.6662 302.297C74.6329 218.166 79.1267 195.307 84.7523 167.027C92.2308 175.71 102.378 175.001 111.415 174.807Z" fill="#421C11"/>
<path d="M86.0783 72.1257C78.0006 74.1856 73.124 82.3922 75.1878 90.4603C77.2516 98.5284 85.4791 103.39 93.5624 101.33C101.64 99.2649 106.517 91.0583 104.453 82.9902C102.384 74.9276 94.156 70.0602 86.0783 72.1257Z" fill="#F5A987"/>
<path d="M98.0393 89.53L104.297 91.0085C104.297 91.0085 85.8229 141.682 75.1321 149.479C64.4413 157.27 66.4219 145.187 65.1293 142.983C63.8422 140.779 74.9268 84.2085 74.9268 84.2085L98.0393 89.53Z" fill="#F5A987"/>
<path d="M65.1294 142.983C51.9476 162.387 47.7534 172.542 37.1181 193.253C37.1181 193.253 38.5273 197.4 43.3428 195.899C48.1528 194.393 69.4234 170.156 77.1128 148.094C78.7051 143.526 65.1294 142.983 65.1294 142.983Z" fill="#F5A987"/>
<path d="M37.3233 192.023L29.867 195.872L22.8156 201.376C24.6853 203.729 28.4356 200.584 28.4356 200.584C24.9072 206.288 20.1415 210.801 20.1415 210.801C18.7046 212.789 20.8628 213.293 20.8628 213.293C23.9696 211.631 29.2401 205.49 29.2401 205.49C26.7657 209.361 21.7449 215.181 21.7449 215.181C20.8628 217.03 22.9765 217.097 22.9765 217.097C27.72 216.012 31.7866 207.827 31.7866 207.827C30.3497 210.961 25.634 216.848 25.634 216.848C25.6728 218.321 26.4661 218.077 26.4661 218.077C30.3608 217.789 34.2498 209.904 34.2498 209.904L32.7131 212.822C30.2609 216.626 33.1902 216.377 33.1902 216.377L34.788 214.583C39.5592 209.04 40.5744 203.01 40.5744 203.01L42.9434 195.512L37.3233 192.023Z" fill="#F5A987"/>
<path d="M36.3303 189.62C36.3303 189.62 53.1127 149.617 63.1599 141.505C63.1599 141.505 68.5136 93.2235 74.7162 79.7397C74.7162 79.7397 83.6926 65.1152 96.4805 72.84C96.4805 72.84 109.723 77.2146 106.067 91.9443C106.067 91.9443 92.192 140.098 79.5595 152.065C79.5595 152.065 59.9588 189.371 45.0904 196.221C45.0904 196.221 38.7825 195.329 36.3303 189.62Z" fill="#711723"/>
<path d="M123.848 71.4058L99.5928 73.2719C100.092 69.6338 100.841 60.3031 96.3528 54.7934L117.762 35.0301C117.762 35.0246 118.367 64.2846 123.848 71.4058Z" fill="#F5A987"/>
<path d="M99.5649 62.5957C99.1932 59.9377 98.2778 57.1468 96.3582 54.7878L117.768 35.0246C117.768 35.0246 117.928 46.0331 119.393 55.8953C111.166 60.0927 107.676 61.8149 99.5649 62.5957Z" fill="#E28C72"/>
<path d="M80.8352 76.7882C80.9184 84.0368 81.512 91.8114 85.3345 103.545C90.1223 118.231 97.4955 132.9 101.579 137.058C110.527 146.178 138.661 131.089 138.661 131.089L149.562 91.7394C149.562 91.7394 152.969 74.8667 142.223 66.9426L120.541 62.5071L86.6604 69.4898C86.6549 69.4898 81.3622 71.2175 80.8352 76.7882Z" fill="#F5A987"/>
<path d="M96.5694 132.905C96.5694 132.905 85.8786 162.603 84.7468 167.027C78.1171 192.859 123.898 204.394 166.456 191.121C166.456 191.121 172.115 159.646 144.004 129.583C144.009 129.583 137.008 134.771 96.5694 132.905Z" fill="#421C11"/>
<path d="M83.8311 81.5892C83.8311 81.5892 79.82 99.3092 78.8935 104.913C78.0669 109.908 89.2181 117.389 95.8423 118.48C99.4651 119.084 89.3014 81.8329 83.8311 81.5892Z" fill="#E89C79"/>
<path d="M81.5621 27.9532C81.6176 28.4793 81.6786 28.9998 81.7563 29.5369C82.0836 31.9679 82.6107 34.4597 83.2709 37.0014C83.5205 37.965 83.7868 38.923 84.0753 39.892C84.214 40.3516 84.3583 40.8223 84.497 41.2875C87.0379 49.494 90.2279 55.2751 96.2751 58.3872C99.1323 59.8546 109.89 52.8608 113.202 47.949C118.328 40.3572 119.277 30.3232 116.497 15.4939C115.748 11.5346 112.919 8.69939 109.834 6.80557C106.267 4.6238 104.558 3.80425 100.286 4.07005C92.8354 4.5352 85.4346 7.25964 82.6384 15.6378C81.3735 19.4476 81.1238 23.5841 81.5621 27.9532Z" fill="#F5A987"/>
<path d="M97.3848 38.1366L92.0533 39.0282C92.0533 39.0282 93.0962 41.6252 95.1601 41.2321C95.1601 41.2321 97.8286 40.7891 97.3848 38.1366Z" fill="#EA8F72"/>
<path d="M101.923 43.4969C101.923 43.4969 95.8035 42.0184 89.712 45.363C89.712 45.363 96.4748 52.9328 101.923 43.4969Z" fill="#7D3732"/>
<path d="M90.5218 44.9477C94.9823 42.7992 99.3152 43.0927 101.085 43.3474C101.085 43.3474 97.3069 47.938 90.5218 44.9477Z" fill="white"/>
<path d="M99.3488 27.117C99.3488 27.117 104.059 26.303 104.997 28.9887C104.997 28.9887 104.497 29.2711 102.533 28.7063C101.019 28.4959 98.6831 28.9056 97.224 29.6477C97.224 29.6477 95.2656 27.7649 99.3488 27.117Z" fill="#E9D3C5"/>
<path d="M87.0101 29.177C87.0101 29.177 82.2889 29.9301 82.2723 32.7819C82.2723 32.7819 82.8326 32.8871 84.5081 31.7132C85.8728 31.021 88.214 30.6555 89.8396 30.8825C89.8396 30.8825 91.0712 28.4682 87.0101 29.177Z" fill="#E9D3C5"/>
<path d="M99.1216 31.1206C99.1216 31.1206 99.9593 29.5148 102.079 30.6278C102.079 30.6278 102.611 30.9767 103.244 30.3122" stroke="#432918" stroke-width="2.3598" stroke-miterlimit="10" stroke-linecap="round" stroke-linejoin="round"/>
<path d="M89.0244 32.7985C89.0244 32.7985 87.7151 31.5526 86.073 33.2913C86.073 33.2913 85.679 33.7953 84.8691 33.3689" stroke="#432918" stroke-width="2.3598" stroke-miterlimit="10" stroke-linecap="round" stroke-linejoin="round"/>
<path d="M110.644 31.7796C111.238 34.5926 115.121 32.793 115.66 34.9415C115.66 34.9415 116.298 36.8519 117.457 44.3054L118.433 48.4253C118.433 48.4253 129.452 37.151 127.055 15.2945C127.055 15.2945 127.354 3.73227 108.575 0.110754C108.575 0.110754 72.7355 -3.42216 81.9006 30.1073C81.9006 30.1073 79.7148 18.5561 86.0338 16.2747C86.0338 16.2691 105.429 7.2098 110.644 31.7796Z" fill="#D9C6B8"/>
<path d="M115.36 39.5653C116.02 39.9142 116.808 40.0471 117.745 39.8754C120.264 39.4158 121.967 36.708 121.551 33.8285C121.13 30.949 118.75 28.9832 116.231 29.4428C115.038 29.6587 114.028 30.3842 113.34 31.392C112.336 32.8649 112.691 35.2073 113.246 36.7689C113.684 38.0148 114.378 39.0337 115.36 39.5653Z" fill="#F5A47F"/>
<path d="M115.654 32.2835C115.554 30.7496 118.85 31.6799 118.528 32.6047C118.339 33.1418 117.868 33.5848 117.501 34.0001C117.008 34.565 116.791 35.0412 116.836 35.8054C116.841 35.894 116.869 36.1597 116.969 36.2096C117.407 36.4145 118.461 34.7255 118.689 34.3711C119.144 33.6679 119.049 32.6102 118.655 31.9014C118.234 31.1483 117.64 30.8548 116.786 31.0542C116.109 31.2092 115.415 31.3698 115.599 32.2171C115.604 32.2226 115.66 32.361 115.654 32.2835Z" fill="#EA8F72"/>
<path d="M116.891 33.6845C116.519 33.4187 116.259 33.7343 115.976 34.0223C115.715 34.2936 115.593 34.6369 115.576 35.0024C115.532 35.8164 115.809 36.8464 116.375 37.4555C116.83 37.9428 117.496 38.1809 118.161 38.0536C119.077 37.8764 119.216 37.0181 119.121 36.2373C119.094 36.0324 119.032 35.534 118.805 35.4343C118.561 35.3347 118.461 35.7001 118.339 35.8718C118.167 36.0988 117.879 36.2262 117.612 36.2982C117.096 36.4256 116.536 36.2484 116.142 35.9161C116.075 35.8552 116.009 35.7832 115.965 35.7001C116.053 36.2096 116.098 36.3148 116.103 36.0269C116.12 35.8884 116.159 35.7611 116.214 35.6392C116.37 35.2516 116.691 34.947 116.869 34.576C116.958 34.3988 117.08 33.8174 116.891 33.6845Z" fill="#EA8F72"/>
<path d="M155.943 103.534L155.615 133.171C155.615 133.171 110.522 146.184 101.579 137.064C97.4955 132.9 90.1279 118.236 85.3346 103.551C81.5065 91.817 80.8352 84.0479 80.8352 76.7938C80.8352 70.913 86.6605 69.4954 86.6605 69.4954L98.6162 66.8042C100.58 69.9052 106.949 69.9052 106.949 69.9052C119.016 69.7501 122.056 62.8338 122.056 62.8338L142.223 66.9537C142.217 66.9426 158.517 73.2775 155.943 103.534Z" fill="#00889C"/>
<path d="M98.6108 66.7986C100.802 70.0159 106.944 69.8996 106.944 69.8996C119.01 69.7446 120.536 62.5126 120.536 62.5126C120.536 62.5126 132.558 64.0686 128.275 71.9983C128.275 71.9983 115.892 86.069 106.766 74.8723C106.766 74.8723 102.578 81.9436 95.2488 76.7384C95.2543 76.7329 86.1835 69.9273 98.6108 66.7986Z" fill="#007B95"/>
<path d="M85.9671 163.123C85.9671 163.123 90.5274 139.988 81.3679 114.188L155.898 107.848C155.898 107.848 156.825 128.658 156.226 148.864C156.22 148.859 120.064 176.108 85.9671 163.123Z" fill="#00889C"/>
<path d="M81.4233 85.0723C81.4233 85.0723 80.2693 97.2714 76.0474 108.391C74.2332 113.169 87.3706 120.878 94.6273 121.98C98.594 122.589 87.415 85.3215 81.4233 85.0723Z" fill="#00889C"/>
<path d="M99.8644 35.5395C100.042 36.5972 101.839 37.1786 103.881 36.8409C105.923 36.4975 107.437 35.3679 107.26 34.3102C107.082 33.2526 105.279 32.6711 103.243 33.0089C101.196 33.3467 99.6869 34.4819 99.8644 35.5395Z" fill="#EA9473"/>
<path d="M83.9976 38.1809C84.1751 39.2386 85.9726 39.82 88.0142 39.4822C90.0559 39.1389 91.5704 38.0093 91.3873 36.9516C91.2154 35.894 89.4123 35.3125 87.3707 35.6503C85.3346 35.9881 83.82 37.1233 83.9976 38.1809Z" fill="#EA9473"/>
<path d="M84.6634 24.4203C84.6634 24.4203 85.6509 24.4646 87.11 24.3815C87.8368 24.3151 88.6856 24.2929 89.5844 24.1656C90.4831 24.0437 91.4429 23.9108 92.3972 23.7835C93.3459 23.5952 94.2945 23.4069 95.1822 23.2297C96.0754 23.0581 96.8854 22.7978 97.59 22.6206C98.9936 22.2274 99.9146 21.8564 99.9146 21.8564C99.9146 21.8564 98.927 21.8066 97.4679 21.8952C96.7412 21.9616 95.8868 21.9783 94.9936 22.1112C94.0948 22.233 93.135 22.3659 92.1808 22.4988C91.2321 22.6871 90.2834 22.8753 89.3958 23.0525C88.5081 23.2297 87.6926 23.4845 86.988 23.6617C85.5844 24.0548 84.6634 24.4203 84.6634 24.4203Z" fill="#EA9473"/>
<path d="M87.1213 26.519C87.1213 26.519 87.8537 26.6076 88.9244 26.591C89.457 26.5578 90.0895 26.5744 90.7441 26.4913C91.4043 26.4082 92.1033 26.3252 92.8079 26.2366C93.5014 26.0926 94.1949 25.9486 94.844 25.8102C95.4931 25.6773 96.0867 25.4558 96.5971 25.3174C97.6179 24.9907 98.2837 24.6639 98.2837 24.6639C98.2837 24.6639 97.5514 24.5698 96.4806 24.592C95.948 24.6252 95.3156 24.603 94.6609 24.6916C94.0007 24.7747 93.3017 24.8633 92.5971 24.9464C91.9036 25.0903 91.2101 25.2343 90.561 25.3727C89.9119 25.5056 89.3183 25.7271 88.8079 25.8656C87.7871 26.1978 87.1213 26.519 87.1213 26.519Z" fill="#EA9473"/>
<path d="M122.05 62.8227C123.526 64.9934 122.3 70.8853 121.612 73.2719C117.673 86.9495 115.792 86.5729 112.702 95.3332C109.701 102.227 114.932 124.095 115.454 131.299C116.059 139.628 117.601 157.054 118.527 165.355L130.378 244.474C130.378 244.474 130.05 273.391 152.969 266.668L181.468 254.73C179.116 233.333 175.011 212.772 170.617 191.757C168.647 182.327 166.461 172.974 165.685 163.345C164.081 143.399 163.732 123.43 160.07 103.734C158.006 92.6199 154.772 71.5664 142.217 66.937" fill="#7F1B29"/>
<path d="M77.2736 262.526C73.5066 260.14 65.501 257.133 61.9448 254.735C50.4162 246.972 67.3761 222.74 70.3831 213.331C74.139 201.559 76.4636 189.814 78.4997 177.653C80.5857 165.2 82.7271 152.679 81.9504 140.01C81.4789 132.335 79.5759 125.202 77.723 118.114C76.913 115.025 75.3928 111.503 75.3984 108.308C75.4095 104.476 76.863 100.76 77.734 97.1052C79.4872 89.7459 78.5884 82.0156 80.5357 74.6951C81.1238 72.4856 80.9241 72.9175 83.5593 70.8687C83.5593 70.8687 88.2085 68.1055 97.5234 67.009C97.5234 67.009 92.7078 68.1608 92.7078 77.7407C92.7078 85.4821 95.5317 95.156 96.608 102.466C97.8618 110.96 97.5567 119.46 97.7841 128.01C98.0393 137.667 99.2931 147.253 99.8757 156.888L101.923 259.099C101.923 259.099 94.6939 273.551 77.2736 262.526Z" fill="#7F1B29"/>
<path d="M131.383 76.7273C128.586 83.5052 131.821 91.2632 138.611 94.0486C145.402 96.8394 153.169 93.6111 155.965 86.8332C158.767 80.0553 155.527 72.3029 148.736 69.512C141.946 66.7156 134.179 69.9439 131.383 76.7273Z" fill="#F5A987"/>
<path d="M152.27 77.9677L156.243 77.4583C156.243 77.4583 186.251 121.066 186.129 132.7C186.013 144.334 177.585 140.015 174.19 138.011C172.254 136.87 133.463 90.2775 133.463 90.2775L152.27 77.9677Z" fill="#F5A987"/>
<path d="M182.861 122.029C200.77 145.658 209.907 159.601 220.947 174.492C220.947 174.492 219.394 181.574 215.499 178.373C198.229 164.181 180.17 148.582 170.911 134.539C168.259 130.518 182.861 122.029 182.861 122.029Z" fill="#F5A987"/>
<path d="M219.527 173.606L227.688 173.168L236.276 173.445C236.592 176.607 230.717 176.972 230.717 176.972C235.971 181.148 242.057 185.478 242.057 185.478C244.082 186.862 242.229 188.064 242.229 188.064C238.734 187.549 231.699 183.551 231.699 183.551C235.339 186.353 242.035 190.14 242.035 190.14C243.494 191.58 241.524 192.355 241.524 192.355C236.692 192.931 230.09 186.602 230.09 186.602C232.509 189.072 238.939 193.02 238.939 193.02C239.4 194.421 238.573 194.454 238.573 194.454C234.812 195.501 228.476 189.387 228.476 189.387L230.911 191.613C234.506 194.371 231.666 195.119 231.666 195.119L229.558 193.972C223.189 190.362 220.193 185.029 220.193 185.029L215.422 178.772L219.527 173.606Z" fill="#F5A987"/>
<path d="M130.378 87.7746C130.378 87.7746 124.248 75.354 135.26 68.5042C135.26 68.5042 149.346 59.2787 159.798 79.197L183.338 118.497C183.338 118.497 207.538 149.185 220.947 171.418C220.947 171.418 218.85 177.986 213.241 179.209C213.241 179.209 174.811 154.008 169.008 136.521C169.008 136.51 136.902 104.138 130.378 87.7746Z" fill="#7F1B29"/>
<path d="M96.758 12.5313C97.052 15.217 97.2628 17.4763 98.2226 19.9958C100.059 24.8356 102.589 28.5845 107.016 31.4197C110.883 33.9004 115.105 35.6946 119.094 37.7933C120.936 38.7624 123.088 39.9474 125.102 38.7347C127.127 37.5109 127.92 34.4487 128.592 32.433C130.073 27.9698 130.367 23.5343 129.768 18.7554C129.513 16.7066 129.535 14.1704 128.608 12.2268C127.482 9.87332 124.664 8.30068 122.606 6.93846C118.151 3.99252 113.468 2.90717 108.275 2.25929C105.03 1.84951 100.974 1.60586 98.034 3.28926C94.2559 5.44887 96.3752 9.01501 96.758 12.5313Z" fill="#D9C6B8"/>
<path d="M43.1095 375.829L47.1151 414.918H50.9376C53.362 399.341 53.9889 399.441 54.3939 392.823C54.7212 387.469 52.5298 374.948 52.5298 374.948C52.5298 374.948 42.8155 364.183 43.1095 375.829Z" fill="#F5A987"/>
<path d="M52.5242 374.948L55.9639 338.739H40.2245L42.9818 374.644C42.9818 374.644 42.6323 378.985 48.0914 379.312C48.0914 379.312 52.208 379.832 52.5242 374.948Z" fill="#F5A987"/>
<path d="M51.1481 413.417L49.7112 414.253L48.6904 413.666C48.6904 413.666 49.1953 412.924 48.1856 412.459L46.2771 411.784C46.2771 411.784 45.7445 411.701 45.689 412.459L33.9608 418.872C33.9608 418.872 32.4739 421.419 38.2104 421.419C38.2104 421.419 42.0607 421.103 51.4644 415.771L51.1481 413.417Z" fill="#009FE3"/>
<path d="M33.9608 418.872C33.9608 418.872 32.4739 421.419 38.2104 421.419C38.2104 421.419 42.0607 421.103 51.4644 415.771V417.393C51.4644 417.393 41.8776 422.748 38.3159 422.643C38.3159 422.643 33.4781 423.063 33.4282 420.417C33.4282 420.417 33.2506 419.342 33.9608 418.872Z" fill="white"/>
<path d="M37.6723 416.834L45.6834 412.459C45.7389 411.706 46.2715 411.784 46.2715 411.784L48.18 412.459C49.1897 412.924 48.6848 413.666 48.6848 413.666L39.8193 418.13C39.8193 418.13 38.8151 418.883 37.7222 417.808C37.7277 417.808 37.0343 417.316 37.6723 416.834Z" fill="#B2B2B2"/>
<path d="M44.5296 412.609C45.7889 412.908 47.1703 413.816 47.4311 415.167C47.4977 415.499 47.3368 415.887 46.9762 415.97C46.6544 416.042 46.2383 415.87 46.1717 415.516C46.1606 415.449 46.144 415.389 46.1274 415.322C46.1163 415.289 46.1052 415.261 46.0941 415.228C46.0885 415.206 46.0774 415.189 46.0719 415.167C46.1163 415.267 46.1274 415.294 46.1052 415.25C46.0497 415.128 45.9887 415.017 45.911 414.907C45.8943 414.885 45.8222 414.785 45.8943 414.879C45.972 414.979 45.8777 414.857 45.8611 414.84C45.8167 414.79 45.7723 414.741 45.7279 414.691C45.678 414.641 45.6336 414.597 45.5781 414.552C45.5337 414.514 45.3506 414.375 45.5282 414.502C45.3063 414.342 45.0733 414.198 44.8236 414.082C44.7903 414.065 44.7626 414.054 44.7293 414.037C44.6183 413.988 44.868 414.093 44.7626 414.054C44.7015 414.032 44.6405 414.004 44.5795 413.982C44.4519 413.938 44.3187 413.899 44.18 413.866C43.8472 413.788 43.6142 413.389 43.7251 413.063C43.8361 412.719 44.1745 412.526 44.5296 412.609Z" fill="white"/>
<path d="M42.6433 413.589C43.1925 413.666 43.7196 413.921 44.1523 414.259C44.6905 414.674 45.0955 415.25 45.2564 415.92C45.3396 416.252 45.1509 416.646 44.8014 416.723C44.463 416.801 44.0802 416.623 43.997 416.269C43.9692 416.147 43.9304 416.031 43.8805 415.915C43.9027 415.964 43.9249 416.02 43.947 416.07C43.8805 415.915 43.7973 415.771 43.7029 415.632C43.6918 415.616 43.6752 415.604 43.6697 415.588C43.6752 415.593 43.7751 415.715 43.7196 415.654C43.6918 415.621 43.6641 415.588 43.6364 415.555C43.5809 415.494 43.5254 415.438 43.4644 415.383C43.4366 415.355 43.4089 415.333 43.3812 415.311C43.3645 415.3 43.3534 415.289 43.3368 415.278C43.2702 415.222 43.3978 415.333 43.4034 415.328C43.3867 415.333 43.2369 415.211 43.2147 415.195C43.0816 415.112 42.9484 415.04 42.8042 414.979C42.8541 415.001 42.9096 415.023 42.9595 415.045C42.7432 414.957 42.5212 414.89 42.2938 414.857C42.144 414.835 41.9775 414.68 41.8999 414.558C41.8167 414.419 41.7834 414.209 41.8333 414.054C41.8832 413.893 41.9831 413.744 42.1329 413.661C42.3049 413.567 42.4547 413.561 42.6433 413.589Z" fill="white"/>
<path d="M40.9345 414.525C41.1731 414.591 41.4061 414.68 41.6336 414.779C41.8555 414.879 42.0441 415.012 42.2327 415.161C42.671 415.516 42.9873 416.014 43.2536 416.502C43.42 416.801 43.3368 417.227 43.0206 417.393C42.7154 417.554 42.2993 417.482 42.1273 417.16C41.9831 416.9 41.8278 416.64 41.6447 416.407C41.678 416.452 41.7112 416.496 41.7445 416.54C41.6058 416.363 41.456 416.202 41.2785 416.07C41.3229 416.103 41.3673 416.136 41.4117 416.169C41.2563 416.053 41.0899 415.959 40.9123 415.887C40.9623 415.909 41.0178 415.931 41.0677 415.953C40.9068 415.887 40.7404 415.837 40.5795 415.787C40.2522 415.693 40.0136 415.322 40.1246 414.984C40.2355 414.646 40.5795 414.425 40.9345 414.525Z" fill="white"/>
<path d="M38.7929 415.571C40.0023 415.582 41.0065 416.634 41.2562 417.77C41.295 417.941 41.2783 418.118 41.1896 418.274C41.1119 418.406 40.9566 418.539 40.7957 418.573C40.4628 418.65 40.0689 418.473 39.9912 418.119C39.9635 417.986 39.9191 417.853 39.8636 417.725C39.8858 417.775 39.908 417.831 39.9302 417.88C39.847 417.681 39.736 417.498 39.6084 417.327C39.6417 417.371 39.675 417.415 39.7083 417.46C39.5918 417.31 39.4586 417.172 39.3089 417.055C39.3532 417.089 39.3976 417.122 39.442 417.155C39.3144 417.055 39.1757 416.972 39.0259 416.911C39.0758 416.933 39.1313 416.956 39.1812 416.978C39.0536 416.928 38.9261 416.889 38.7929 416.873C38.8484 416.878 38.9094 416.889 38.9649 416.895C38.9039 416.889 38.8484 416.884 38.7874 416.884C38.4434 416.878 38.1161 416.585 38.1327 416.23C38.1549 415.87 38.4267 415.566 38.7929 415.571Z" fill="white"/>
<path d="M13.5615 324.031L10.2605 326.75L7.34229 330.244C8.52399 331.213 10.0552 329.248 10.0552 329.248C8.91234 332.47 7.0205 335.222 7.0205 335.222C6.51565 336.363 7.64187 336.385 7.64187 336.385C9.01219 335.222 10.9762 331.601 10.9762 331.601C10.1606 333.794 8.28542 337.233 8.28542 337.233C8.04686 338.246 9.10652 338.052 9.10652 338.052C11.3534 337 12.5018 332.487 12.5018 332.487C12.1246 334.204 10.4103 337.642 10.4103 337.642C10.5878 338.373 10.954 338.163 10.954 338.163C12.8624 337.604 13.9554 333.257 13.9554 333.257L13.506 334.874C12.6904 337.033 14.1218 336.59 14.1218 336.59L14.7265 335.527C16.5074 332.254 16.3631 329.148 16.3631 329.148L16.7349 325.155L13.5615 324.031Z" fill="#F5A987"/>
<path d="M20.6963 261.674L27.7088 262.676L29.645 263.983C29.645 263.983 24.3801 293.791 19.8308 298.836C15.2871 303.88 15.0042 297.595 14.122 296.626C13.5395 295.984 13.9944 280.518 14.3661 270.124C14.3661 270.124 14.6768 261.945 20.6963 261.674Z" fill="#F5A987"/>
<path d="M14.0889 292.207C14.0889 292.207 14.3996 318.2 13.5563 324.031C13.5563 324.031 14.8933 326.988 16.7297 325.166C18.5716 323.35 24.3802 294.91 23.6368 292.54C22.8934 290.175 14.0889 292.207 14.0889 292.207Z" fill="#F5A987"/>
<path d="M62.6157 205.906C62.6157 205.906 59.2426 204.3 57.0734 207.29L54.6712 205.684C54.6712 205.684 58.355 202.755 55.1427 197.655C55.1427 197.655 59.4756 199.82 58.5491 203.403C58.5436 203.403 61.7613 202.832 62.6157 205.906Z" fill="#79352C"/>
<path d="M18.8932 284.455C15.215 284.948 9.32314 280.097 8.94589 277.035C9.09013 276.448 17.3731 259.403 17.4952 258.822C17.4952 258.822 20.43 257.144 24.6131 255.605C24.6131 255.605 31.659 256.507 29.2234 265.877L18.8932 284.455Z" fill="#FDCA58"/>
<path d="M16.5905 211.161L20.3464 232.148L25.7168 214.948L16.5905 211.161Z" fill="#79352C"/>
<path d="M42.5301 248.077L42.5884 254.146L31.9364 254.249L31.8781 248.179L42.5301 248.077Z" fill="#F5A987"/>
<path d="M31.9086 251.318L31.8919 248.184L42.5439 248.085L42.5771 253.113C38.394 253.556 34.8101 252.736 31.9086 251.318Z" fill="#EAA588"/>
<path d="M24.818 375.829L28.8236 414.918H32.6461C35.0705 399.341 35.6974 399.441 36.1024 392.823C36.4297 387.469 34.2383 374.948 34.2383 374.948C34.2383 374.948 24.5184 364.183 24.818 375.829Z" fill="#F5A987"/>
<path d="M34.2327 374.948L37.6724 338.739H21.933L24.6903 374.644C24.6903 374.644 24.3408 378.985 29.7999 379.312C29.7999 379.312 33.9165 379.832 34.2327 374.948Z" fill="#F5A987"/>
<path d="M32.8566 413.417L31.4253 414.253L30.4044 413.666C30.4044 413.666 30.9093 412.924 29.8996 412.459L27.9856 411.784C27.9856 411.784 27.453 411.701 27.3975 412.459L15.6693 418.872C15.6693 418.872 14.1769 421.419 19.9189 421.419C19.9189 421.419 23.7692 421.103 33.1729 415.771L32.8566 413.417Z" fill="#009FE3"/>
<path d="M15.6693 418.872C15.6693 418.872 14.1769 421.419 19.9189 421.419C19.9189 421.419 23.7692 421.103 33.1729 415.771V417.393C33.1729 417.393 23.5861 422.748 20.0243 422.643C20.0243 422.643 15.1866 423.063 15.1367 420.417C15.1367 420.417 14.9591 419.342 15.6693 418.872Z" fill="white"/>
<path d="M19.3806 416.834L27.3917 412.459C27.4472 411.706 27.9798 411.784 27.9798 411.784L29.8938 412.459C30.9035 412.924 30.3987 413.666 30.3987 413.666L21.5332 418.13C21.5332 418.13 20.529 418.883 19.4361 417.808C19.4361 417.808 18.7426 417.316 19.3806 416.834Z" fill="#B2B2B2"/>
<path d="M26.2381 412.609C27.4974 412.908 28.8788 413.816 29.1396 415.167C29.2062 415.499 29.0453 415.887 28.6847 415.97C28.3629 416.042 27.9468 415.87 27.8802 415.516C27.8691 415.449 27.8525 415.389 27.8359 415.322C27.8248 415.289 27.8136 415.261 27.8026 415.228C27.797 415.206 27.7859 415.189 27.7804 415.167C27.8248 415.267 27.8358 415.294 27.8137 415.25C27.7582 415.128 27.6971 415.017 27.6195 414.907C27.6028 414.885 27.5307 414.785 27.6028 414.879C27.6805 414.979 27.5862 414.857 27.5695 414.84C27.5252 414.79 27.4808 414.741 27.4364 414.691C27.3865 414.641 27.3421 414.597 27.2866 414.552C27.2422 414.514 27.0591 414.375 27.2367 414.502C27.0148 414.342 26.7818 414.198 26.5321 414.082C26.4988 414.065 26.4711 414.054 26.4378 414.037C26.3268 413.988 26.5765 414.093 26.4711 414.054C26.41 414.032 26.349 414.004 26.288 413.982C26.1604 413.938 26.0272 413.899 25.8885 413.866C25.5557 413.788 25.3227 413.389 25.4336 413.063C25.5446 412.719 25.883 412.526 26.2381 412.609Z" fill="white"/>
<path d="M24.3518 413.589C24.901 413.666 25.4281 413.921 25.8608 414.259C26.399 414.674 26.804 415.25 26.9649 415.92C27.0481 416.252 26.8594 416.646 26.5099 416.723C26.1715 416.801 25.7887 416.623 25.7055 416.269C25.6777 416.147 25.6389 416.031 25.589 415.915C25.6112 415.964 25.6333 416.02 25.6555 416.07C25.589 415.915 25.5057 415.771 25.4114 415.632C25.4003 415.616 25.3837 415.604 25.3781 415.588C25.3837 415.593 25.4836 415.715 25.4281 415.654C25.4003 415.621 25.3726 415.588 25.3449 415.555C25.2894 415.494 25.2339 415.438 25.1729 415.383C25.1451 415.355 25.1174 415.333 25.0897 415.311C25.073 415.3 25.0619 415.289 25.0453 415.278C24.9787 415.222 25.1063 415.333 25.1119 415.328C25.0952 415.333 24.9454 415.211 24.9232 415.195C24.7901 415.112 24.6569 415.04 24.5127 414.979C24.5626 415.001 24.6181 415.023 24.668 415.045C24.4516 414.957 24.2297 414.89 24.0023 414.857C23.8525 414.835 23.686 414.68 23.6084 414.558C23.5251 414.419 23.4919 414.209 23.5418 414.054C23.5917 413.893 23.6916 413.744 23.8414 413.661C24.0134 413.567 24.1632 413.561 24.3518 413.589Z" fill="white"/>
<path d="M22.6429 414.525C22.8814 414.591 23.1144 414.68 23.3474 414.779C23.5694 414.879 23.758 415.012 23.9466 415.161C24.3849 415.516 24.7011 416.014 24.9674 416.502C25.1339 416.801 25.0506 417.227 24.7344 417.393C24.4293 417.554 24.0132 417.482 23.8412 417.161C23.697 416.9 23.5416 416.64 23.3585 416.407C23.3918 416.452 23.4251 416.496 23.4584 416.54C23.3197 416.363 23.1699 416.203 22.9924 416.07C23.0368 416.103 23.0811 416.136 23.1255 416.169C22.9702 416.053 22.8037 415.959 22.6262 415.887C22.6761 415.909 22.7316 415.931 22.7816 415.953C22.6207 415.887 22.4542 415.837 22.2878 415.787C21.9605 415.693 21.7219 415.322 21.8329 414.984C21.9438 414.647 22.2878 414.425 22.6429 414.525Z" fill="white"/>
<path d="M20.5014 415.571C21.7108 415.582 22.715 416.64 22.9647 417.77C23.0035 417.941 22.9868 418.118 22.8981 418.274C22.8204 418.406 22.6651 418.539 22.5042 418.573C22.1713 418.65 21.7774 418.473 21.6997 418.119C21.672 417.986 21.6276 417.853 21.5721 417.725C21.5943 417.775 21.6165 417.831 21.6387 417.88C21.5555 417.681 21.4445 417.498 21.3169 417.327C21.3502 417.371 21.3835 417.415 21.4168 417.46C21.2947 417.304 21.156 417.161 20.9951 417.039C21.0395 417.072 21.0839 417.105 21.1283 417.138C21.0062 417.044 20.8731 416.967 20.7344 416.906C20.7843 416.928 20.8398 416.95 20.8897 416.972C20.7621 416.922 20.6345 416.884 20.5014 416.867C20.5569 416.873 20.6179 416.884 20.6734 416.889C20.6123 416.884 20.5569 416.878 20.4958 416.878C20.1519 416.873 19.8245 416.579 19.8412 416.225C19.8634 415.87 20.1352 415.566 20.5014 415.571Z" fill="white"/>
<path d="M37.6336 375.269L41.3784 296.953L20.3686 296.776L22.4657 375.353C22.4657 375.353 24.5517 381.754 37.6336 375.269Z" fill="#123652"/>
<path d="M27.2866 410.289C27.2866 410.289 31.3477 411.546 33.9386 410.632C33.9386 410.632 39.026 387.363 37.6723 374.478C37.6723 374.478 23.6805 360.8 22.4655 375.353C22.4655 375.353 24.7734 401.423 27.2866 410.289Z" fill="#123652"/>
<path d="M41.0456 375.358L33.9388 296.715L57.5562 296.942L56.2469 374.483C56.2469 374.489 50.9486 378.16 41.0456 375.358Z" fill="#153E5D"/>
<path d="M19.8916 266.469C19.825 259.348 24.6128 255.61 24.6128 255.61L32.9125 252.897L37.1788 252.858L41.4396 252.819L51.448 254.696C51.448 254.696 54.1276 255.228 55.2316 258.639C56.0749 277.898 55.0985 288.641 56.3745 304.118C56.3745 304.118 49.7171 307.563 37.6948 307.358C25.6725 307.79 18.893 304.473 18.893 304.473C19.2813 296.36 19.1204 286.194 19.8916 266.469Z" fill="#F5A987"/>
<path d="M29.9719 253.855L24.2299 255.732C24.2299 255.732 19.2423 258.971 19.3255 267.261C18.7153 282.539 18.5211 302.745 17.4947 323.732C17.4947 323.732 26.2771 327.055 38.2993 326.623C50.3216 326.822 60.3633 323.029 60.3633 323.029C59.2648 306.599 56.2689 278.452 55.2315 258.628C54.1219 255.217 51.4478 254.685 51.4478 254.685L44.2966 253.378C44.2966 253.378 42.8763 257.15 35.6974 257.255C35.6918 257.255 29.6391 257.681 29.9719 253.855Z" fill="#FDCA58"/>
<path d="M41.2176 249.89C52.2856 246.612 59.1317 244.419 58.7489 223.914C58.5214 211.631 50.9652 206.072 38.4048 206.194C32.1301 206.255 23.4643 209.073 20.1578 213.104L20.3409 232.142C20.3409 232.142 17.7666 243.572 30.8763 249.026C30.8763 249.032 34.9207 251.756 41.2176 249.89Z" fill="#F5A987"/>
<path opacity="0.3" d="M50.8989 235C50.91 236.251 49.2955 237.281 47.2927 237.298C45.29 237.314 43.6589 236.317 43.6478 235.066C43.6367 233.815 45.2511 232.785 47.2484 232.768C49.2512 232.751 50.8822 233.748 50.8989 235Z" fill="#ED6F81"/>
<path opacity="0.3" d="M28.4853 235.216C28.4964 236.467 26.8875 237.497 24.8847 237.514C22.8875 237.53 21.2508 236.533 21.2342 235.282C21.2231 234.031 22.8431 233.001 24.8403 232.984C26.8431 232.967 28.4742 233.964 28.4853 235.216Z" fill="#ED6F81"/>
<path d="M35.6365 244.884C36.4853 244.878 36.9624 244.541 36.9957 244.519C37.1677 244.391 37.2065 244.153 37.0789 243.981C36.9513 243.81 36.7072 243.771 36.5353 243.893C36.4964 243.92 35.7696 244.391 34.4215 243.871C34.2218 243.799 33.9999 243.893 33.9166 244.092C33.839 244.286 33.9388 244.513 34.1386 244.591C34.7211 244.812 35.226 244.884 35.6365 244.884Z" fill="#F4AA8A"/>
<path d="M47.1596 229.246C47.1652 230.619 46.394 231.738 45.4509 231.744C44.4967 231.744 43.7255 230.631 43.7144 229.257C43.7144 227.884 44.48 226.76 45.4287 226.76C46.3774 226.754 47.1541 227.867 47.1596 229.246Z" fill="#472109"/>
<path d="M28.7685 229.423C28.7741 230.797 28.0085 231.915 27.0598 231.921C26.1055 231.921 25.3344 230.808 25.3288 229.434C25.3233 228.061 26.0889 226.937 27.0431 226.937C27.9863 226.931 28.7685 228.045 28.7685 229.423Z" fill="#472109"/>
<path d="M47.5092 224.783C46.7436 224.063 45.7838 223.742 44.7519 223.615C44.2915 223.554 44.0363 222.978 44.1472 222.573C44.2748 222.081 46.0446 222.081 46.5051 222.142C47.8199 222.308 47.7256 222.662 48.702 223.57C49.5065 224.323 48.3137 225.525 47.5092 224.783Z" fill="#79352C"/>
<path d="M24.8904 224.999C25.6449 224.268 26.5936 223.93 27.6255 223.781C28.086 223.709 28.3245 223.133 28.208 222.728C28.0693 222.241 27.6144 222.081 27.1595 222.147C25.8391 222.341 24.6352 222.884 23.6754 223.814C22.8876 224.578 24.1026 225.758 24.8904 224.999Z" fill="#79352C"/>
<path d="M62.4662 217.23L61.512 231.899C59.4149 233.133 52.8462 233.427 52.8462 233.427L50.8934 221.106L52.4468 210.092L55.9031 202.45C55.9031 202.445 63.2929 207.29 62.4662 217.23Z" fill="#79352C"/>
<path d="M32.8291 234.224H37.1953C37.1953 234.224 35.015 237.874 32.8291 234.224Z" fill="#E28C72"/>
<path d="M44.0192 253.323C44.0192 253.323 42.6212 256.895 35.8638 256.994C35.8638 256.994 30.0774 257.316 30.3936 253.716L28.5739 254.309C28.5739 254.309 28.6016 258.988 35.8527 258.811C35.8527 258.811 42.5213 259.315 45.6836 253.639L44.0192 253.323Z" fill="white"/>
<path d="M63.276 232.79C63.0763 235.564 60.9293 237.746 58.4827 237.658C56.0416 237.575 54.2219 235.254 54.4272 232.48C54.6213 229.706 56.7684 227.53 59.215 227.613C61.6561 227.696 63.4758 230.016 63.276 232.79Z" fill="#F5A987"/>
<path d="M58.0942 230.143C58.3161 228.692 61.1955 230.243 60.7073 231.035C60.4243 231.494 59.8862 231.816 59.4645 232.126C58.882 232.552 58.588 232.951 58.477 233.671C58.4604 233.754 58.4326 234.008 58.5158 234.069C58.8875 234.357 60.2135 232.995 60.502 232.707C61.0734 232.148 61.201 231.14 60.9735 230.392C60.735 229.601 60.2468 229.207 59.409 229.218C58.7433 229.224 58.0665 229.235 58.0665 230.06C58.0609 230.077 58.0831 230.215 58.0942 230.143Z" fill="#E28C72"/>
<path d="M58.9595 231.705C58.6655 231.378 58.3604 231.622 58.033 231.832C57.7334 232.031 57.5559 232.325 57.4616 232.663C57.2563 233.41 57.3063 234.429 57.7057 235.116C58.0275 235.67 58.6045 236.024 59.248 236.041C60.1357 236.057 60.4408 235.288 60.5185 234.54C60.5351 234.341 60.5795 233.859 60.3909 233.726C60.1856 233.582 60.0192 233.903 59.8694 234.036C59.6641 234.219 59.3645 234.274 59.1038 234.285C58.5934 234.302 58.1107 234.019 57.8111 233.632C57.7612 233.565 57.7113 233.482 57.6891 233.399C57.6669 233.887 57.6891 234.003 57.7556 233.731C57.8 233.61 57.861 233.499 57.9387 233.394C58.1662 233.067 58.5212 232.845 58.7709 232.541C58.8763 232.386 59.1093 231.871 58.9595 231.705Z" fill="#E28C72"/>
<path d="M40.2744 238.078C39.8861 240.637 37.6891 242.603 35.015 242.603C32.3409 242.603 30.144 240.637 29.7556 238.078H40.2744Z" fill="white"/>
<path d="M58.7545 324.912L55.4757 327.658L52.5908 331.18C53.7836 332.144 55.2926 330.161 55.2926 330.161C54.1775 333.389 52.3134 336.164 52.3134 336.164C51.8196 337.31 52.9514 337.321 52.9514 337.321C54.3106 336.147 56.2413 332.509 56.2413 332.509C55.4424 334.707 53.6005 338.163 53.6005 338.163C53.3675 339.176 54.4271 338.977 54.4271 338.977C56.6629 337.908 57.7725 333.384 57.7725 333.384C57.4063 335.106 55.7253 338.556 55.7253 338.556C55.9084 339.287 56.2746 339.077 56.2746 339.077C58.1775 338.495 59.2316 334.143 59.2316 334.143L58.7933 335.765C57.9944 337.93 59.4258 337.476 59.4258 337.476L60.0194 336.407C61.7725 333.118 61.6005 330.012 61.6005 330.012L61.939 326.019L58.7545 324.912Z" fill="#F5A987"/>
<path d="M59.3203 262.283L61.6337 262.587C61.6337 262.587 70.2662 291.604 68.4521 298.143C66.6435 304.683 63.5755 299.19 62.355 298.714C61.1344 298.238 46.8763 266.408 46.8763 266.408L59.3203 262.283Z" fill="#F5A987"/>
<path d="M59.0042 293.082C59.0042 293.082 59.5479 319.07 58.7545 324.912C58.7545 324.912 60.1138 327.852 61.9335 326.014C63.7587 324.181 69.3177 295.69 68.5521 293.331C67.7865 290.972 59.0042 293.082 59.0042 293.082Z" fill="#F5A987"/>
<path d="M51.7421 285.695C58.799 287.788 68.9683 283.763 68.9683 283.763L63.0043 261.125C63.0043 261.125 59.4037 254.68 52.1915 254.957C52.1915 254.957 45.4341 255.61 46.1443 265.245L51.7421 285.695Z" fill="#FDCA58"/>
<path d="M52.4465 210.086L55.9028 202.445C55.9028 202.445 53.3453 194.975 35.0095 194.975C35.0095 194.975 17.811 197.289 16.5849 211.161C16.5849 211.161 16.0967 217.086 19.3367 221.654C19.3367 221.654 20.1689 215.369 24.8568 210.507C24.8568 210.507 27.8527 218.575 33.9332 222.13C33.9332 222.13 26.7209 215.447 27.0427 209.787C27.0427 209.787 31.0816 218.121 40.2689 219.888H43.7086C43.7086 219.888 40.0802 217.867 40.2689 212.246C40.2689 212.246 43.8972 218.121 48.968 219.888C48.968 219.888 49.2897 217.689 50.8931 213.055C50.8986 213.055 51.3036 212.623 52.4465 210.086Z" fill="#79352C"/>
<path d="M45.8671 410.3C45.8671 410.3 49.9282 411.557 52.519 410.643C52.519 410.643 57.6064 387.374 56.2472 374.489C56.2472 374.489 42.2554 360.811 41.046 375.364C41.046 375.358 43.3539 401.429 45.8671 410.3Z" fill="#153E5D"/>
</g>
<defs>
<clipPath id="clip0_520_12709">
<rect width="243" height="434" fill="white" transform="matrix(-1 0 0 1 243 0)"/>
</clipPath>
</defs>
</svg>
