<svg width="224" height="412" viewBox="0 0 224 412" fill="none" xmlns="http://www.w3.org/2000/svg">
<g clip-path="url(#clip0_520_11646)">
<path d="M125.148 1.4867C121.724 2.29038 118.156 4.2748 116.061 5.91232C111.676 9.34033 112.017 13.8651 114.561 18.2411C116.725 21.9622 120.05 27.2626 124.618 28.2925C128.522 29.1737 132.176 26.3555 133.691 23.005C135.595 18.8013 134.719 14.4123 133.852 10.088C133.547 8.56898 133.44 7.04134 133.146 5.52017C132.884 4.16276 134.975 1.14627 133.575 0.603304C132.008 -0.00430208 127.116 1.02561 125.148 1.4867Z" fill="#783E49"/>
<path d="M128.621 406.465L135.482 392.018L137.897 402V412H136.362L134.876 404.989L131.425 412H112.421L118.227 408.102L128.621 406.465Z" fill="#E93C88"/>
<path d="M128.37 368.227L130.048 392.001L124.624 403.614L118.173 408.046L128.621 406.465L135.481 392.018L136.788 368.227H128.37Z" fill="#F7B6A0"/>
<path d="M159.038 148.973H110.004L121.331 265.285L142.973 265.147L159.038 148.973Z" fill="#F7B6A0"/>
<path d="M143.046 264.145C143.046 264.145 146.032 295.842 145.671 321.723L135.482 392.018L130.051 392.001L121.301 265.16C121.299 265.16 121.565 241.439 143.046 264.145Z" fill="#F7B6A0"/>
<path d="M114.041 59.9052L73.7477 86.112L73.3957 33.8234C65.5435 27.4479 66.1188 31.6817 66.1188 31.6817L58.4727 103.549C59.5374 106.521 61.4628 108.988 64.9253 109.091C66.415 109.136 67.8554 108.861 69.2378 108.371L107.683 96.5038L105.283 89.3892L114.041 59.9052Z" fill="#F7B6A0"/>
<path d="M148.09 39.8952L148.142 59.8169L128.941 58.0479L128.565 42.8966L148.09 39.8952Z" fill="#F7B6A0"/>
<path d="M128.928 56.07L128.565 42.8966L148.09 39.8952L148.11 47.9578L128.928 56.07Z" fill="#F2937C"/>
<path fill-rule="evenodd" clip-rule="evenodd" d="M148.09 39.893L123.933 47.0227L121.998 42.5163C124.986 43.1774 125.538 35.9778 125.538 35.9778L119.983 37.8224L118.066 33.358C115.928 32.4488 115.675 31.7808 115.675 31.7808C115.77 31.2411 116.219 30.515 116.772 29.62C117.383 28.632 118.121 27.4383 118.65 26.0624C119.019 25.1057 118.969 23.0088 118.909 20.452C118.861 18.4425 118.807 16.1489 118.944 13.9017C119.373 6.93361 127.852 2.88937 140.833 5.94895C155.344 9.3705 149.975 36.2258 148.09 39.893Z" fill="#F7B6A0"/>
<path d="M125.531 27.3905H125.493C125.169 27.3693 124.923 27.0895 124.944 26.7627C124.979 26.1843 124.815 25.7729 124.663 25.6013L124.522 25.5049C124.449 25.5119 124.353 25.5707 124.243 25.7353C124.079 25.9751 123.971 26.3254 123.947 26.7016C123.929 27.0284 123.673 27.2706 123.323 27.2541C123 27.233 122.753 26.9555 122.772 26.6287C122.81 26.0362 122.986 25.4837 123.269 25.0652C123.614 24.5667 124.097 24.294 124.595 24.3269C124.951 24.3504 125.282 24.5197 125.545 24.8183C125.955 25.2885 126.171 26.0409 126.119 26.838C126.098 27.1507 125.838 27.3905 125.531 27.3905Z" fill="#21263D"/>
<path d="M131.038 15.7741C133.492 15.7245 132.605 23.8216 133.711 26.0323C134.932 28.4821 136.716 30.1304 138.369 31.992L138.92 29.7081C139.165 29.122 139.506 28.5963 140.131 28.5812C143.761 28.4735 143.89 33.9721 144.158 35.3877C144.519 37.301 148.086 39.8952 148.091 39.893C150.984 37.594 156.973 21.6282 156.973 21.6282C157.226 15.8322 155.153 9.4847 150.901 5.44477C143.134 -1.92623 127.805 -2.28389 120.715 7.28051C120.715 7.28051 113.906 13.1562 131.038 15.7741Z" fill="#783E49"/>
<path d="M144.572 25.1338C146.633 26.8036 146.264 29.958 145.148 32.0868C144.272 33.7674 141.709 36.3616 140.165 34.0884C138.081 31.0138 139.416 20.943 144.572 25.1338Z" fill="#F2937C"/>
<path d="M147.7 56.0247L171.424 70.6094L155.365 124.904L152.925 144.117L119.191 144.384L116.394 119.375L114.042 59.9052L128.6 56.0721L147.7 56.0247Z" fill="#F8BBA7"/>
<path d="M116.394 119.375C117.178 131.294 110 149 110 149L164.5 149.286C164.5 149.286 156.421 130.46 158.5 121.5C163.383 100.461 171.424 70.6073 171.424 70.6073L147.565 56.0226C147.565 56.0226 126.586 68.8426 128.46 56.07L113.904 59.9031C113.904 59.9031 103.058 78.7299 105.283 89.387C107.5 100 115.574 106.913 116.394 119.375Z" fill="#652D56"/>
<path d="M204.908 127.886L164.104 99.2294L171.424 70.5728L210.756 112.793C210.756 112.791 220.55 124.531 204.908 127.886Z" fill="#F7B6A0"/>
<path d="M212.984 177.249L197.569 117.074C206.154 109.264 213.664 118.22 213.664 118.22L220.057 180.644C220.055 180.646 214.785 184.273 212.984 177.249Z" fill="#F7B6A0"/>
<path d="M210.694 400.955L212.816 385.095L218.161 393.856L221.214 403.377L219.752 403.849L216.199 397.629L215.049 405.366L196.958 411.205L201.298 405.708L210.694 400.955Z" fill="#E93C88"/>
<path d="M198.791 364.63L207.641 386.748L206.018 399.471L201.227 405.672L210.693 400.955L212.816 385.095L206.806 362.045L198.791 364.63Z" fill="#F7B6A0"/>
<path d="M163.048 148.973H120.765L131.328 186.591L158.39 271.212C158.39 271.212 167.642 279.115 177.23 266.677L163.048 148.973Z" fill="#F7B6A0"/>
<path d="M176.794 263.397C176.794 263.397 189.356 289.96 197.185 312.531L210.403 375.839L204.462 378.362L158.39 271.212C158.39 271.212 151.014 250.502 176.794 263.397Z" fill="#F7B6A0"/>
<path d="M159.789 136.489C159.789 136.489 169.125 156.975 173.01 170.798C181.517 201.062 178.439 251.114 178.439 251.114C178.439 251.114 145.36 259.659 112.423 247.477C112.423 247.477 104.354 197.532 107.685 165.728C108.373 159.158 110 149 110 149L159.789 136.489Z" fill="#652D56"/>
<path d="M224 190.782L219.651 173.377C217.932 172.187 212.209 174.842 212.209 174.842L209.062 193.415L215.495 197.504L224 190.782Z" fill="#F7B6A0"/>
<path d="M66.1192 31.6817L63.7021 17.8705L67.4694 14.436H78.1787L80.2909 18.8379L79.3078 27.3358L73.3961 33.8234L66.1192 31.6817Z" fill="#F7B6A0"/>
<path d="M4.81885 14.436V22.1151V24.0004V31.6817L118.86 25.0282V24.0004V22.1151V21.0874L4.81885 14.436Z" fill="#1A284D"/>
<path d="M8.567 23.0589C8.567 27.8206 6.64796 31.6817 4.28243 31.6817C1.91904 31.6817 0 27.8206 0 23.0589C0 18.2971 1.91904 14.436 4.28457 14.436C6.65011 14.436 8.567 18.2971 8.567 23.0589Z" fill="#005894"/>
<path d="M73.396 29.5896L77.3758 21.848L76.3926 18.3531L79.3077 19.4283L80.8575 21.5786V25.0282L75.3494 31.6817L73.396 29.5896Z" fill="#F7B6A0"/>
<path d="M159.871 53.9757C168.299 58.4508 173.579 60.9459 171.615 71.7772C170.411 78.4135 168.266 84.6469 169.31 91.4663C170.042 96.2474 170.945 105.661 175.118 108.766C181.848 113.771 189.902 103.045 191.381 97.2213C193.617 88.411 189.927 79.9627 194.708 71.2774C198.896 63.6672 206.377 59.4894 201.914 49.4014C198.404 41.4745 188.165 40.9488 185.585 33.1188C182.408 23.4812 181.313 13.8801 170.492 9.82728C166.553 8.35135 155.775 5.29393 152.369 8.87708C148.866 12.5637 154.075 19.6373 155.578 23.1407C158.937 30.9771 152.972 34.2134 151.894 41.6081C151.023 47.5635 154.945 51.3621 159.871 53.9757Z" fill="#783E49"/>
</g>
<defs>
<clipPath id="clip0_520_11646">
<rect width="224" height="412" fill="white"/>
</clipPath>
</defs>
</svg>
