<svg xmlns="http://www.w3.org/2000/svg" width="28" height="43" fill="none"><path fill="#F7BC14" d="M17.923 3.49V27h-4.64V8.84l-5.576 1.773V6.955l9.716-3.464h.5Z"/><path fill="#FF901D" d="m7.27 35.177 1.803-4.767h1.491l-2.678 6.868H6.654L3.988 30.41H5.48l1.79 4.767ZM5.042 30.41v6.868H3.214V30.41h1.828Zm4.5 6.868V30.41h1.828v6.868H9.542Zm8.05-6.868v1.434h-3.378V30.41h3.377Zm1.338 0v6.868h-1.828V30.41h1.828Zm-5.173 0h1.796l-.184 3.465a8.365 8.365 0 0 1-.158 1.308c-.08.377-.189.698-.324.965-.131.266-.29.484-.476.654a1.684 1.684 0 0 1-.641.361 2.646 2.646 0 0 1-.8.115h-.559l-.019-1.441.235-.026a.801.801 0 0 0 .356-.114.827.827 0 0 0 .266-.286c.076-.127.14-.285.19-.476.052-.194.092-.423.121-.685.034-.263.057-.565.07-.908l.127-2.932Zm11.293 2.773v1.422h-3.492v-1.422h3.492Zm-2.882-2.773v6.868H20.34V30.41h1.828Zm4.12 0v6.868h-1.835V30.41h1.834Z"/></svg>