<svg width="237" height="371" viewBox="0 0 237 371" fill="none" xmlns="http://www.w3.org/2000/svg">
<g clip-path="url(#clip0_520_14231)">
<path d="M103.333 0.870959C92.908 0.870959 83.3501 4.73827 73.0186 6.15087C70.1813 6.53919 52.6196 9.7111 47.7792 24.6276C44.5058 34.7099 44.7062 55.7127 47.4631 65.7733C53.6134 88.2163 60.1899 92.7691 74.8338 94.7226C82.3068 95.7211 91.5429 93.092 96.77 101.076C100.953 107.466 100.761 111.315 109.791 123.88C110.122 117.613 110.128 110.931 109.946 104.595C109.688 95.5765 109.086 95.416 115.572 93.1634C124.107 90.1975 145.193 87.0989 150.281 74.7659C157.119 58.1912 155.244 33.2003 148.313 17.2773C139.073 -3.95327 118.375 0.870959 103.333 0.870959Z" fill="#91DBDF"/>
<path d="M113.137 38.36C104.944 38.3304 97.3822 37.2106 89.6565 37.2145C88.76 37.2145 87.8635 37.2284 86.9631 37.2619C86.0587 37.2955 85.2962 36.5885 85.2627 35.6819C85.2292 34.7754 85.9346 34.0111 86.8389 33.9775C87.7867 33.942 88.7245 33.9262 89.6565 33.9262C97.6974 33.9301 105.258 35.0519 113.147 35.0717C114.053 35.0736 114.786 35.8123 114.782 36.7208C114.78 37.6293 114.043 38.364 113.137 38.36Z" fill="white"/>
<path d="M126.349 38.5313C124.391 38.4148 122.692 38.3536 121.484 38.32C120.88 38.3022 120.399 38.2924 120.064 38.2845C119.896 38.2805 119.766 38.2766 119.668 38.2746L119.528 38.2687L119.416 38.2588C119.38 38.2548 119.345 38.2529 119.236 38.2292C119.175 38.2134 119.106 38.2035 118.925 38.1265C118.832 38.081 118.704 38.0297 118.501 37.8519C118.401 37.7611 118.277 37.6327 118.16 37.4293C118.044 37.2278 117.948 36.9355 117.95 36.6235C117.948 36.347 118.025 36.0824 118.123 35.8888C118.326 35.5017 118.541 35.3575 118.675 35.2608C118.941 35.0909 119.045 35.0771 119.13 35.0475C119.276 35.006 119.321 35.004 119.366 34.9961C119.494 34.9783 119.512 34.9823 119.557 34.9783L119.668 34.9744C120.574 34.9527 121.325 35.6696 121.348 36.5781C121.37 37.4846 120.655 38.239 119.749 38.2627H119.717H119.713L119.654 37.1074L119.778 38.2568L119.713 38.2627L119.654 37.1074L119.778 38.2568L119.609 36.6887L119.948 38.2292C119.839 38.2509 119.808 38.2529 119.778 38.2568L119.609 36.6887L119.948 38.2292L119.595 36.6314L120.257 38.1265C120.076 38.2035 120.007 38.2134 119.948 38.2292L119.595 36.6314L120.257 38.1265L119.593 36.6255L120.681 37.8539C120.476 38.0297 120.35 38.083 120.257 38.1265L119.593 36.6255L120.681 37.8539L119.591 36.6255L121.019 37.4313C120.903 37.6367 120.779 37.7631 120.679 37.8539L119.589 36.6255H121.228C121.23 36.9375 121.134 37.2298 121.017 37.4313L119.589 36.6255L121.017 35.8197C121.132 36.0211 121.23 36.3134 121.228 36.6255H119.589L120.424 35.2114C120.554 35.2983 120.775 35.4148 121.017 35.8197L119.589 36.6255L120.424 35.2114L119.589 36.6235L120.139 35.0771C120.204 35.1008 120.288 35.1324 120.424 35.2114L119.589 36.6235L120.139 35.0771L119.593 36.6136L119.91 35.0139C119.955 35.0238 120.013 35.0336 120.139 35.0771L119.593 36.6136L119.91 35.0139L119.607 36.5524L119.77 34.9922L119.91 35.0139L119.607 36.5524L119.77 34.9922L119.65 36.1258L119.713 34.9862L119.768 34.9902L119.648 36.1238L119.711 34.9843C119.711 34.9843 119.79 34.9862 119.898 34.9902C120.694 35.0099 123.264 35.0534 126.54 35.2469C127.445 35.3003 128.134 36.0784 128.081 36.9849C128.03 37.8934 127.252 38.5847 126.349 38.5313Z" fill="white"/>
<path d="M81.2807 37.3486C79.3222 37.2321 77.6238 37.1709 76.416 37.1373C75.8111 37.1195 75.3303 37.1096 74.9954 37.1017C74.8279 37.0978 74.6978 37.0958 74.5993 37.0919L74.4575 37.0859L74.3412 37.0761C74.3058 37.0721 74.2683 37.0701 74.158 37.0445C74.0969 37.0287 74.024 37.0188 73.8408 36.9378C73.7462 36.8924 73.6181 36.8371 73.4152 36.6574C73.3147 36.5645 73.1945 36.4362 73.0822 36.2327C72.9699 36.0333 72.8773 35.7449 72.8792 35.4408C72.8773 35.1662 72.9521 34.9036 73.0487 34.712C73.2477 34.3288 73.4585 34.1827 73.5886 34.0859C73.8506 33.9141 73.955 33.9003 74.0398 33.8667C74.1856 33.8233 74.2329 33.8213 74.2782 33.8114C74.4122 33.7936 74.4319 33.7956 74.4811 33.7917L74.6033 33.7877C75.5096 33.7699 76.2564 34.4928 76.2741 35.4013C76.2918 36.3098 75.5707 37.0583 74.6644 37.0761H74.6407L74.6171 36.3927L74.6762 37.0741L74.6407 37.0761L74.6171 36.3927L74.6762 37.0741L74.5481 35.579L74.8062 37.0583L74.6762 37.0761L74.5481 35.581L74.8062 37.0603L74.5264 35.4585L75.0545 36.9951C74.9047 37.0445 74.8515 37.0504 74.8043 37.0603L74.5245 35.4585L75.0525 36.9951L74.5186 35.4447L75.4407 36.7996C75.2358 36.9358 75.1313 36.9635 75.0525 36.9951L74.5186 35.4447L75.4407 36.7996L74.5186 35.4427L75.8367 36.4184C75.6811 36.6258 75.5431 36.7285 75.4407 36.7996L74.5186 35.4427L75.8367 36.4184L74.5186 35.4408H76.1579C76.1598 35.8595 75.9884 36.2169 75.8367 36.4184L74.5186 35.4408H76.1579H74.5166L75.9549 34.6488C76.0672 34.8483 76.1598 35.1366 76.1579 35.4408H74.5166L75.9549 34.6488L74.5186 35.4388L75.3697 34.0346C75.4998 34.1235 75.7224 34.2459 75.9569 34.6488L74.5205 35.4388L75.3717 34.0346L74.5225 35.4388L75.084 33.8963C75.151 33.922 75.2357 33.9536 75.3737 34.0346L74.5245 35.4388L75.086 33.8963L74.5304 35.4269L74.8535 33.8292C74.9008 33.8391 74.9579 33.8489 75.088 33.8944L74.5323 35.425L74.8555 33.8272L74.5442 35.3697L74.7136 33.8055L74.8574 33.8272L74.5461 35.3697L74.7156 33.8055L74.5915 34.9529L74.6565 33.8015L74.7136 33.8055L74.5895 34.9529L74.6545 33.8015C74.6545 33.8015 74.7314 33.8055 74.8397 33.8075C75.6357 33.8272 78.205 33.8726 81.4817 34.0662C82.3861 34.1195 83.0757 34.8976 83.0225 35.8042C82.9614 36.7107 82.1851 37.4039 81.2807 37.3486Z" fill="white"/>
<path d="M113.137 51.2033C104.944 51.1737 97.3842 50.0539 89.6585 50.0578C88.762 50.0578 87.8635 50.0716 86.9611 50.1052C86.0567 50.1388 85.2942 49.4317 85.2607 48.5252C85.2272 47.6187 85.9326 46.8544 86.837 46.8208C87.7867 46.7853 88.7246 46.7695 89.6565 46.7695C97.6975 46.7734 105.256 47.8952 113.145 47.915C114.051 47.9169 114.784 48.6556 114.78 49.5641C114.78 50.4726 114.043 51.2073 113.137 51.2033Z" fill="white"/>
<path d="M126.349 51.375C124.391 51.2585 122.692 51.1973 121.484 51.1637C120.88 51.1459 120.399 51.1361 120.064 51.1282C119.896 51.1242 119.766 51.1222 119.668 51.1183L119.526 51.1124L119.41 51.1025C119.374 51.0985 119.337 51.0966 119.226 51.0709C119.165 51.0551 119.092 51.0452 118.909 50.9642C118.815 50.9188 118.687 50.8635 118.484 50.6838C118.383 50.591 118.263 50.4626 118.151 50.2592C118.038 50.0597 117.946 49.7714 117.948 49.4672C117.946 49.1907 118.023 48.928 118.119 48.7345C118.318 48.3513 118.531 48.2072 118.661 48.1104C118.923 47.9405 119.027 47.9247 119.11 47.8931C119.256 47.8517 119.303 47.8477 119.349 47.8398C119.481 47.822 119.502 47.824 119.552 47.8201L119.674 47.8161C120.58 47.7983 121.327 48.5212 121.345 49.4297C121.362 50.3382 120.641 51.0867 119.735 51.1045H119.711L119.688 50.431L119.745 51.1025L119.711 51.1045L119.688 50.431L119.745 51.1025L119.617 49.6074L119.873 51.0867L119.745 51.1045L119.617 49.6094L119.873 51.0887L119.595 49.487L120.121 51.0255C119.971 51.0748 119.92 51.0808 119.873 51.0887L119.595 49.487L120.121 51.0255L119.589 49.4731L120.507 50.8319C120.302 50.9662 120.2 50.9958 120.121 51.0255L119.589 49.4731L120.507 50.8319L119.587 49.4712L120.903 50.4527C120.746 50.6601 120.61 50.7608 120.507 50.8319L119.587 49.4712H121.226C121.228 49.8918 121.055 50.2513 120.903 50.4507L119.587 49.4692L121.023 48.6772C121.136 48.8767 121.228 49.165 121.226 49.4692H119.587L121.023 48.6772L119.585 49.4692L120.436 48.063C120.568 48.1519 120.789 48.2743 121.023 48.6772L119.585 49.4692L120.436 48.063L119.587 49.4652L120.147 47.9247C120.214 47.9504 120.298 47.982 120.436 48.063L119.587 49.4652L120.147 47.9247L119.589 49.4573L119.912 47.8596C119.959 47.8694 120.017 47.8793 120.147 47.9247L119.589 49.4573L119.912 47.8596L119.601 49.3981L119.768 47.8359L119.912 47.8576L119.601 49.3961L119.768 47.8339L119.644 48.9774L119.709 47.8299L119.766 47.8339L119.642 48.9774L119.707 47.8299C119.707 47.8299 119.784 47.8339 119.892 47.8359C120.688 47.8556 123.258 47.901 126.534 48.0946C127.439 48.1479 128.128 48.9261 128.075 49.8326C128.03 50.7371 127.252 51.4303 126.349 51.375Z" fill="white"/>
<path d="M81.2807 50.1938C79.3222 50.0773 77.6238 50.0161 76.4159 49.9825C75.8111 49.9647 75.3303 49.9548 74.9953 49.9469C74.8279 49.943 74.6978 49.941 74.5993 49.9371L74.4574 49.9311L74.3412 49.9213C74.3057 49.9173 74.2683 49.9153 74.1579 49.8897C74.0969 49.8739 74.024 49.864 73.8407 49.783C73.7461 49.7376 73.6181 49.6823 73.4151 49.5026C73.3146 49.4097 73.1944 49.2814 73.0821 49.078C72.9698 48.8785 72.8772 48.5901 72.8792 48.286C72.8772 48.0115 72.9521 47.7488 73.0486 47.5572C73.2476 47.1741 73.4585 47.0279 73.5885 46.9311C73.8506 46.7593 73.955 46.7435 74.0397 46.7119C74.1855 46.6685 74.2328 46.6665 74.2781 46.6566C74.4121 46.6388 74.4318 46.6408 74.4811 46.6369L74.6032 46.6329C75.5096 46.6151 76.2563 47.338 76.2741 48.2465C76.2918 49.155 75.5707 49.9035 74.6643 49.9213H74.6407L74.617 49.2379L74.6761 49.9193L74.6407 49.9213L74.617 49.2379L74.6761 49.9193L74.5481 48.4242L74.8062 49.9035L74.6761 49.9213L74.5481 48.4262L74.8062 49.9055L74.5284 48.3077L75.0564 49.8403C74.9067 49.8897 74.8535 49.8956 74.8062 49.9055L74.5284 48.3077L75.0564 49.8403L74.5224 48.2899L75.4446 49.6448C75.2397 49.781 75.1352 49.8087 75.0564 49.8403L74.5224 48.2899L75.4446 49.6448L74.5224 48.288L75.8406 49.2636C75.6849 49.471 75.547 49.5737 75.4446 49.6448L74.5224 48.288L75.8406 49.2636L74.5224 48.286H76.1618C76.1637 48.7047 75.9923 49.0622 75.8406 49.2636L74.5224 48.286H76.1618H74.5205L75.9588 47.494C76.0711 47.6935 76.1637 47.9818 76.1618 48.286H74.5205L75.9588 47.494L74.5224 48.284L75.3736 46.8798C75.5037 46.9687 75.7263 47.0911 75.9608 47.494L74.5244 48.284L75.3756 46.8798L74.5264 48.282L75.086 46.7396C75.153 46.7652 75.2377 46.7968 75.3756 46.8778L74.5264 48.2801L75.086 46.7376L74.5303 48.2682L74.8535 46.6704C74.9008 46.6803 74.9579 46.6902 75.0879 46.7356L74.5323 48.2662L74.8554 46.6685L74.5441 48.2109L74.7136 46.6467L74.8574 46.6685L74.5461 48.2109L74.7156 46.6467L74.5934 47.7883L74.6584 46.6428L74.7156 46.6467L74.5934 47.7883L74.6584 46.6428C74.6584 46.6428 74.7352 46.6467 74.8436 46.6487C75.6396 46.6685 78.2089 46.7139 81.4856 46.9074C82.39 46.9608 83.0796 47.7389 83.0264 48.6454C82.9614 49.5559 82.1851 50.2471 81.2807 50.1938Z" fill="white"/>
<path d="M113.137 64.9077C104.944 64.8781 97.3842 63.7582 89.6585 63.7622C88.762 63.7622 87.8635 63.776 86.9611 63.8096C86.0567 63.8432 85.2942 63.1361 85.2607 62.2296C85.2272 61.3231 85.9326 60.5588 86.837 60.5252C87.7867 60.4896 88.7246 60.4738 89.6565 60.4738C97.6975 60.4778 105.256 61.5996 113.145 61.6193C114.051 61.6213 114.784 62.36 114.78 63.2684C114.78 64.1769 114.043 64.9097 113.137 64.9077Z" fill="white"/>
<path d="M126.35 65.0794C124.392 64.9629 122.693 64.9017 121.485 64.8681C120.881 64.8503 120.4 64.8404 120.065 64.8325C119.897 64.8286 119.767 64.8266 119.669 64.8227L119.527 64.8167L119.411 64.8069C119.375 64.8029 119.338 64.8009 119.227 64.7753C119.166 64.7595 119.093 64.7496 118.91 64.6686C118.816 64.6232 118.688 64.5679 118.485 64.3882C118.384 64.2953 118.264 64.167 118.152 63.9635C118.039 63.7641 117.947 63.4757 117.949 63.1716C117.947 62.8951 118.024 62.6324 118.12 62.4389C118.319 62.0557 118.532 61.9115 118.662 61.8148C118.924 61.6449 119.028 61.6291 119.111 61.5975C119.257 61.556 119.304 61.5521 119.35 61.5442C119.482 61.5264 119.503 61.5284 119.553 61.5244L119.675 61.5205C120.581 61.5027 121.328 62.2256 121.346 63.1341C121.363 64.0426 120.642 64.7911 119.736 64.8088H119.712L119.688 64.1294L119.746 64.8069L119.712 64.8088L119.688 64.1294L119.746 64.8069L119.618 63.3118L119.874 64.7911L119.746 64.8088L119.618 63.3138L119.874 64.793L119.596 63.1913L120.122 64.7298C119.972 64.7792 119.921 64.7832 119.874 64.793L119.596 63.1913L120.122 64.7298L119.592 63.1795L120.51 64.5363C120.305 64.6706 120.203 64.7002 120.124 64.7298L119.594 63.1795L120.512 64.5363L119.592 63.1755L120.908 64.1571C120.75 64.3645 120.615 64.4652 120.512 64.5363L119.592 63.1755H121.231C121.233 63.5962 121.06 63.9556 120.908 64.1551L119.592 63.1736L121.028 62.3816C121.141 62.5811 121.233 62.8694 121.231 63.1736H119.592L121.028 62.3816L119.59 63.1736L120.441 61.7674C120.573 61.8562 120.794 61.9787 121.028 62.3816L119.59 63.1736L120.441 61.7674L119.592 63.1696L120.152 61.6291C120.218 61.6548 120.303 61.6864 120.441 61.7674L119.592 63.1696L120.152 61.6291L119.594 63.1617L119.917 61.5639C119.964 61.5738 120.021 61.5837 120.152 61.6291L119.594 63.1617L119.917 61.5639L119.606 63.1025L119.773 61.5402L119.917 61.562L119.606 63.1005L119.773 61.5383L119.649 62.6818L119.714 61.5343L119.771 61.5383L119.647 62.6818L119.712 61.5343C119.712 61.5343 119.789 61.5383 119.897 61.5402C120.693 61.56 123.263 61.6054 126.539 61.799C127.444 61.8523 128.133 62.6304 128.08 63.537C128.031 64.4415 127.253 65.1327 126.35 65.0794Z" fill="white"/>
<path d="M81.2808 63.8962C79.3223 63.7797 77.6238 63.7185 76.416 63.6849C75.8111 63.6671 75.3304 63.6572 74.9954 63.6493C74.8279 63.6454 74.6979 63.6434 74.5994 63.6395L74.4575 63.6335L74.3412 63.6237C74.3058 63.6197 74.2683 63.6177 74.158 63.5921C74.0969 63.5763 74.024 63.5664 73.8408 63.4854C73.7462 63.44 73.6181 63.3847 73.4152 63.205C73.3147 63.1121 73.1945 62.9838 73.0822 62.7804C72.9699 62.5809 72.8773 62.2925 72.8793 61.9884C72.8773 61.7139 72.9522 61.4512 73.0487 61.2596C73.2477 60.8765 73.4585 60.7303 73.5886 60.6335C73.8506 60.4617 73.9551 60.4459 74.0398 60.4143C74.1856 60.3709 74.2329 60.3689 74.2782 60.361C74.4122 60.3432 74.4319 60.3452 74.4811 60.3412L74.6033 60.3373C75.5097 60.3195 76.2564 61.0424 76.2741 61.9509C76.2919 62.8593 75.5707 63.6079 74.6644 63.6256H74.6407L74.6171 62.9462L74.6742 63.6237L74.6388 63.6256L74.6151 62.9462L74.6723 63.6237L74.5442 62.1286L74.8023 63.6079L74.6723 63.6256L74.5442 62.1306L74.8023 63.6098L74.5225 62.0081L75.0506 63.5447C74.9008 63.594 74.8476 63.6 74.8003 63.6098L74.5206 62.0081L75.0486 63.5447L74.5146 61.9923L75.4368 63.3491C75.2318 63.4854 75.1274 63.5131 75.0486 63.5447L74.5146 61.9923L75.8328 62.968C75.6771 63.1753 75.5392 63.278 75.4368 63.3491L74.5146 61.9923L75.8328 62.968L74.5146 61.9904H76.154C76.1559 62.4091 75.9845 62.7665 75.8328 62.968L74.5146 61.9904H76.154H74.5127L75.951 61.1984C76.0633 61.3979 76.1559 61.6862 76.154 61.9904H74.5127L75.951 61.1984L74.5146 61.9884L75.3658 60.5842C75.4959 60.673 75.7185 60.7955 75.953 61.1984L74.5166 61.9884L75.3678 60.5842L74.5186 61.9864L75.0781 60.4439C75.1451 60.4696 75.2299 60.5012 75.3678 60.5822L74.5186 61.9844L75.0781 60.442L74.5225 61.9726L74.8457 60.3748C74.8929 60.3847 74.9501 60.3946 75.0801 60.44L74.5245 61.9706L74.8476 60.3728L74.5363 61.9153L74.7058 60.3511L74.8496 60.3728L74.5383 61.9153L74.7077 60.3511L74.5856 61.4927L74.6506 60.3472L74.7077 60.3511L74.5856 61.4927L74.6506 60.3472C74.6506 60.3472 74.7274 60.3511 74.8358 60.3531C75.6318 60.3728 78.2011 60.4183 81.4778 60.6118C82.3822 60.6651 83.0718 61.4433 83.0186 62.3498C82.9615 63.2583 82.1851 63.9495 81.2808 63.8962Z" fill="white"/>
<path d="M144.723 65.016C147.858 69.7243 151.576 73.7711 156.882 76.1628C159 77.1167 162.247 78.12 164.346 76.8185C166.718 75.3471 168.47 72.5268 169.447 70.0087C174.704 56.4307 172.219 34.6644 157.452 28.1785C153.931 26.6321 148.424 27.0686 145.815 29.8988C142.995 32.956 141.277 36.9119 140.43 40.9528C138.745 48.9672 140.152 58.1529 144.723 65.016Z" fill="#B7793E"/>
<path d="M155.317 207.779L150.725 258.329C156.476 286.824 146.27 348.286 146.27 348.286H138.278L127.995 258.08L125.422 209.018C125.422 209.018 136.987 189.939 155.317 207.779Z" fill="#F7B6A0"/>
<path d="M185.832 205.51L180.27 263.687C164.891 272.519 160.744 261.104 160.744 261.104L151.731 205.988C151.731 205.988 166.18 195.307 185.832 205.51Z" fill="#F7B6A0"/>
<path d="M141.176 42.4416C141.178 48.0407 142.953 53.4581 146.297 57.9749C150.598 63.7872 155.634 58.1289 158.038 53.5075C160.873 48.0624 162.04 42.1414 160.635 36.1631C159.382 30.8267 154.558 25.5575 148.624 27.6529C143.131 29.5924 141.174 37.2336 141.176 42.4416Z" fill="#B7793E"/>
<path d="M121.094 138.424C127.614 143.742 130.148 139.927 130.148 139.927L149.105 93.4119C153.962 85.668 151.508 80.2467 151.508 80.2467C140.37 68.4876 131.326 87.1532 131.326 87.1532C131.326 87.1532 115.144 129.511 121.094 138.424Z" fill="#F7B6A0"/>
<path d="M145.464 75.0546C145.464 75.0546 131.894 76.8479 127.434 94.688L119.523 115.858C119.523 115.858 122.08 127.909 136.251 129.511L149.96 102.282C149.962 102.284 158.797 80.2014 145.464 75.0546Z" fill="#559FCA"/>
<path d="M138.278 348.286C137.771 350.103 136.17 355.415 134.256 357.074C131.937 359.081 123.067 362.057 123.067 362.057L118.519 363.888C118.519 363.888 115.55 367.204 125.24 368.095C136.29 369.112 149.962 362.502 149.962 362.502L146.268 348.286H138.278Z" fill="#F7B6A0"/>
<path d="M142.402 357.181C141.634 357.215 140.215 356.93 139.738 356.215C139.332 355.603 138.832 353.976 138.103 353.923C137.48 353.879 136.867 353.952 136.251 354.005C135.657 355.293 134.98 356.445 134.255 357.075C131.936 359.081 123.065 362.057 123.065 362.057L117.55 363.953C117.55 363.953 115.627 367.025 123.296 368.709C132.799 370.795 150.723 363.839 150.723 363.839L148.096 355.03C146.416 356.243 144.463 357.094 142.402 357.181Z" fill="#2C313A"/>
<path d="M142.402 357.181C141.634 357.215 140.215 356.93 139.738 356.215C139.332 355.603 138.832 353.976 138.103 353.923C137.48 353.879 136.867 353.952 136.251 354.005C135.657 355.293 134.98 356.445 134.255 357.075C131.936 359.081 123.065 362.057 123.065 362.057L117.55 363.953C117.55 363.953 115.627 367.025 123.296 368.709C132.799 370.795 150.723 363.839 150.723 363.839L148.096 355.03C146.416 356.243 144.463 357.094 142.402 357.181Z" fill="#2C313A"/>
<path d="M150.725 363.841C150.725 363.841 132.801 370.795 123.298 368.711C115.631 367.028 117.552 363.955 117.552 363.955C117.552 363.955 114.153 369.08 123.17 370.552C123.17 370.552 134.607 372.647 151.164 365.549C151.166 365.549 151.089 364.647 150.725 363.841Z" fill="#FBD7C6"/>
<path d="M137.502 361.261C137.723 361.16 137.829 360.908 137.742 360.676C136.361 357.031 133.847 356.952 133.743 356.95C133.488 356.946 133.274 357.151 133.272 357.408C133.266 357.663 133.471 357.876 133.727 357.878C133.819 357.882 135.737 357.992 136.875 361.002C136.964 361.245 137.232 361.364 137.474 361.275L137.502 361.261Z" fill="white"/>
<path d="M134.64 362.294C134.843 362.199 134.954 361.966 134.885 361.745C133.951 358.565 131.762 358.129 131.669 358.113C131.419 358.066 131.18 358.234 131.135 358.48C131.092 358.729 131.253 358.97 131.5 359.014C131.575 359.03 133.241 359.399 134.008 362.006C134.079 362.249 134.333 362.387 134.575 362.318L134.64 362.294Z" fill="white"/>
<path d="M132.594 363.556C132.807 363.459 132.923 363.217 132.854 362.983C131.879 359.664 129.81 359.085 129.721 359.063C129.461 358.992 129.197 359.15 129.13 359.407C129.065 359.662 129.217 359.926 129.473 359.993C129.548 360.017 131.12 360.501 131.932 363.254C132.005 363.509 132.275 363.655 132.527 363.58L132.594 363.556Z" fill="white"/>
<path d="M130.3 364.18C130.509 364.084 130.623 363.847 130.554 363.619C129.583 360.313 127.421 360.232 127.331 360.226C127.069 360.222 126.854 360.43 126.85 360.689C126.848 360.949 127.047 361.161 127.305 361.168C127.38 361.174 128.893 361.289 129.656 363.886C129.729 364.135 129.989 364.277 130.237 364.204L130.3 364.18Z" fill="white"/>
<path d="M127.504 364.939C127.693 364.85 127.795 364.634 127.736 364.427C126.85 361.401 124.867 361.326 124.785 361.326C124.548 361.324 124.351 361.512 124.343 361.749C124.341 361.988 124.527 362.181 124.761 362.185C124.828 362.189 126.213 362.292 126.911 364.67C126.976 364.897 127.214 365.029 127.443 364.962L127.504 364.939Z" fill="white"/>
<path d="M215.98 338.041C216.512 339.848 217.962 345.208 217.219 347.628C216.315 350.565 210.368 357.803 210.368 357.803L207.482 361.775C207.482 361.775 206.717 366.163 215.404 361.769C225.311 356.758 233.405 343.887 233.405 343.887L222.75 333.592L215.98 338.041Z" fill="#F7B6A0"/>
<path d="M224.183 343.39C223.547 343.824 222.193 344.344 221.411 343.988C220.745 343.686 219.462 342.57 218.816 342.912C218.262 343.206 217.783 343.595 217.287 343.968C217.468 345.375 217.504 346.714 217.22 347.628C216.315 350.565 210.369 357.803 210.369 357.803L206.694 362.344C206.694 362.344 206.692 365.97 214.083 363.321C223.243 360.039 234.762 344.614 234.762 344.614L227.875 338.543C227.087 340.465 225.883 342.221 224.183 343.39Z" fill="#2C313A"/>
<path d="M224.183 343.39C223.547 343.824 222.193 344.344 221.411 343.988C220.745 343.686 219.462 342.57 218.816 342.912C218.262 343.206 217.783 343.595 217.287 343.968C217.468 345.375 217.504 346.714 217.22 347.628C216.315 350.565 210.369 357.803 210.369 357.803L206.694 362.344C206.694 362.344 206.692 365.97 214.083 363.321C223.243 360.039 234.762 344.614 234.762 344.614L227.875 338.543C227.087 340.465 225.883 342.221 224.183 343.39Z" fill="#2C313A"/>
<path d="M234.761 344.612C234.761 344.612 223.245 360.037 214.083 363.319C206.692 365.968 206.694 362.342 206.694 362.342C206.694 362.342 206.524 368.492 214.948 364.951C214.948 364.951 225.755 360.647 236.04 345.827C236.04 345.827 235.496 345.104 234.761 344.612Z" fill="#FBD7C6"/>
<path d="M222.186 349.455C222.322 349.253 222.275 348.981 222.08 348.829C218.978 346.472 216.803 347.742 216.713 347.796C216.496 347.93 216.425 348.216 216.559 348.434C216.691 348.655 216.973 348.728 217.191 348.594C217.276 348.546 218.959 347.62 221.516 349.567C221.721 349.723 222.011 349.684 222.164 349.48L222.186 349.455Z" fill="white"/>
<path d="M220.305 351.849C220.429 351.663 220.397 351.406 220.224 351.256C217.749 349.056 215.663 349.848 215.576 349.883C215.338 349.978 215.225 350.245 215.32 350.48C215.412 350.715 215.678 350.829 215.909 350.739C215.982 350.711 217.588 350.138 219.617 351.941C219.806 352.113 220.096 352.093 220.263 351.906L220.305 351.849Z" fill="white"/>
<path d="M219.237 354.009C219.367 353.814 219.336 353.545 219.154 353.383C216.571 351.086 214.51 351.694 214.422 351.724C214.167 351.801 214.028 352.076 214.108 352.326C214.185 352.581 214.455 352.723 214.707 352.646C214.782 352.625 216.376 352.198 218.52 354.104C218.717 354.282 219.022 354.262 219.196 354.062L219.237 354.009Z" fill="white"/>
<path d="M217.624 355.757C217.75 355.565 217.724 355.305 217.543 355.149C214.97 352.86 213.094 353.94 213.015 353.987C212.793 354.122 212.718 354.408 212.852 354.631C212.984 354.852 213.267 354.925 213.488 354.799C213.559 354.758 214.897 354.052 216.92 355.85C217.112 356.022 217.409 356.004 217.582 355.808L217.624 355.757Z" fill="white"/>
<path d="M215.655 357.886C215.769 357.712 215.739 357.473 215.58 357.327C213.225 355.234 211.509 356.227 211.436 356.269C211.233 356.393 211.168 356.654 211.29 356.859C211.411 357.063 211.671 357.126 211.876 357.009C211.933 356.976 213.158 356.328 215.012 357.971C215.19 358.129 215.462 358.111 215.615 357.934L215.655 357.886Z" fill="white"/>
<path d="M141.531 132.404C133.691 104.063 141.967 76.0461 141.967 76.0461C149.042 74.164 154.12 73.2693 154.12 73.2693H168.393C168.393 73.2693 179.498 79.3266 189.15 86.0297L169.65 135.663L141.531 132.404Z" fill="#F7B6A0"/>
<path d="M153.946 75.6014L168.386 75.6231L168.422 54.159L153.981 54.1353L153.946 75.6014Z" fill="#F7B6A0"/>
<path d="M164.466 65.8548C166.407 62.3038 166.996 58.4249 167.238 54.157L153.98 54.1353L153.95 72.7929C157.753 72.1037 162.502 69.4414 164.466 65.8548Z" fill="#F2937C"/>
<path d="M187.988 204.414C190.6 180.396 177.74 146.207 171.419 139.372C147.497 143.707 134.546 140.567 134.546 140.567C128.113 153.279 122.97 172.597 125.112 198.074L187.988 204.414Z" fill="#3D346A"/>
<path d="M152.884 215.776C159.185 219.367 167.135 219.355 174.089 218.089C178.485 217.287 182.871 216.019 186.949 214.119L188.417 195.323C188.417 195.323 149.952 167.618 151.733 205.988C151.733 205.988 151.867 209.065 152.516 215.731C152.626 215.697 152.754 215.703 152.884 215.776Z" fill="#3D346A"/>
<path d="M134.244 217.451C141.594 218.608 148.955 218.409 156.147 216.888L158.245 195.718C153.534 173.926 124.939 185.523 124.939 185.523C124.939 185.523 124.074 192.955 124.515 214.644C127.646 215.96 130.82 216.91 134.244 217.451Z" fill="#3D346A"/>
<path d="M153.974 148.034C143.51 148.034 136.151 144.621 136.042 144.57C135.796 144.452 135.689 144.157 135.806 143.91C135.924 143.66 136.218 143.559 136.464 143.673C136.625 143.752 152.796 151.234 171.22 143.662C171.471 143.561 171.762 143.679 171.867 143.932C171.969 144.185 171.849 144.477 171.597 144.578C165.29 147.169 159.239 148.034 153.974 148.034Z" fill="#21263D"/>
<path d="M177.332 167.946C173.553 167.946 170.374 166.849 167.86 164.677C162.491 160.038 162.081 152.221 162.066 151.889C162.054 151.616 162.265 151.385 162.536 151.374C162.852 151.372 163.041 151.573 163.053 151.846C163.057 151.923 163.464 159.58 168.511 163.932C171.285 166.328 174.965 167.308 179.438 166.844C179.702 166.816 179.952 167.013 179.982 167.286C180.009 167.56 179.812 167.801 179.54 167.829C178.784 167.908 178.047 167.946 177.332 167.946Z" fill="#21263D"/>
<path d="M126.925 163.079C126.529 163.079 126.295 163.052 126.281 163.048C126.011 163.012 125.822 162.761 125.859 162.489C125.895 162.22 126.137 162.027 126.415 162.064C126.791 162.117 135.652 163.14 137.665 149.511C137.705 149.241 137.963 149.057 138.227 149.092C138.499 149.132 138.684 149.385 138.643 149.655C136.802 162.127 129.199 163.079 126.925 163.079Z" fill="#21263D"/>
<path d="M152.129 171.9L152.048 171.894L146.125 170.94C145.857 170.897 145.674 170.646 145.714 170.379L148.021 154.575C148.06 154.305 148.315 154.113 148.58 154.157C148.85 154.198 149.038 154.451 148.998 154.72L146.762 170.042L152.204 170.918C152.474 170.962 152.657 171.215 152.614 171.487C152.576 171.728 152.367 171.9 152.129 171.9Z" fill="#21263D"/>
<path d="M174.841 49.1568C174.869 51.8191 173.377 54.825 170.984 55.9172C167.736 57.3984 166.507 54.4122 166.521 51.4991C166.533 49.1509 167.583 45.11 170.243 44.2924C172.751 43.5182 174.824 46.9744 174.841 49.1568Z" fill="#F7B6A0"/>
<path d="M168.16 56.3532C166.621 60.1807 164.526 63.317 160.915 65.5152C157.38 67.6659 153.737 68.7601 150.348 65.9279C147.652 63.6745 145.915 60.4 144.949 57.1017C142.721 49.5138 144.5 39.0365 149.333 32.9536C154.645 26.2742 164.832 27.8167 168.737 35.3157C171.915 41.4263 170.648 50.1794 168.16 56.3532Z" fill="#F7B6A0"/>
<path d="M170.922 53.6083L171.054 53.5885C171.318 53.5174 171.472 53.2449 171.401 52.9783C170.743 50.5688 171.202 48.1712 172.445 47.5214C172.688 47.395 172.784 47.0968 172.656 46.8519C172.53 46.607 172.233 46.5122 171.988 46.6405C170.292 47.5273 169.644 50.3041 170.447 53.2429C170.507 53.4621 170.706 53.6083 170.922 53.6083Z" fill="#F2937C"/>
<path d="M173.365 49.9031C173.556 49.9031 173.74 49.7944 173.82 49.6048C173.929 49.354 173.815 49.0617 173.564 48.9491C173.127 48.7615 171.633 48.1947 170.599 48.8346C170.368 48.9807 170.294 49.2849 170.439 49.5179C170.583 49.751 170.889 49.8241 171.121 49.6799C171.584 49.3935 172.508 49.5732 173.168 49.8636L173.365 49.9031Z" fill="#F2937C"/>
<path d="M166.704 49.6682C167.238 50.2449 169.068 48.742 169.457 47.5886C169.602 46.2298 170.511 45.0645 172.12 45.0092C173.273 44.9678 174.373 46.7216 174.7 47.8868C174.78 46.6623 174.757 44.9006 174.778 43.5912C174.796 42.3509 174.731 41.0178 174.577 39.742C174.233 36.7755 174.002 35.1481 172.601 32.3614C171.09 29.3634 168.728 27.0349 165.368 26.1778C161.311 25.1448 154.687 24.2936 151.233 26.7801C149.462 28.056 150.931 28.3858 151.18 33.9671C151.182 33.9691 167.096 30.1732 166.704 49.6682Z" fill="#B7793E"/>
<path d="M149.954 47.768L149.923 47.766C149.649 47.7482 149.444 47.5152 149.462 47.2387C149.491 46.7508 149.353 46.4092 149.225 46.263L149.111 46.184H149.107C149.054 46.184 148.963 46.2433 148.872 46.3776C148.735 46.579 148.644 46.8753 148.622 47.1893C148.605 47.4638 148.362 47.6574 148.096 47.6534C147.824 47.6356 147.617 47.4026 147.637 47.1261C147.669 46.6304 147.818 46.1663 148.059 45.8147C148.348 45.396 148.762 45.1689 149.172 45.1965C149.471 45.2163 149.745 45.3565 149.966 45.6093C150.311 46.0023 150.492 46.6363 150.449 47.3038C150.433 47.5665 150.214 47.768 149.954 47.768Z" fill="#21263D"/>
<path d="M160.886 47.768H160.854C160.582 47.7503 160.376 47.5152 160.393 47.2407C160.423 46.7549 160.285 46.4092 160.157 46.2651L160.039 46.1841C159.978 46.19 159.897 46.2394 159.804 46.3776C159.666 46.5791 159.576 46.8734 159.556 47.1894C159.54 47.4639 159.325 47.6673 159.032 47.6535C158.76 47.6357 158.553 47.4027 158.569 47.1281C158.6 46.6304 158.748 46.1663 158.986 45.8148C159.276 45.3961 159.682 45.167 160.1 45.1946C160.399 45.2144 160.677 45.3566 160.898 45.6074C161.242 46.0024 161.424 46.6344 161.38 47.3039C161.363 47.5666 161.144 47.768 160.886 47.768Z" fill="#21263D"/>
<path d="M162.429 51.6647C162.393 52.2631 161.266 52.6798 159.914 52.5929C158.563 52.51 157.497 51.955 157.536 51.3546C157.574 50.7562 158.701 50.3414 160.05 50.4244C161.4 50.5093 162.468 51.0643 162.429 51.6647Z" fill="#F2937C"/>
<path d="M150.362 51.6608C150.325 52.2592 149.2 52.6779 147.848 52.591C146.495 52.5041 145.431 51.9511 145.468 51.3527C145.503 50.7523 146.632 50.3375 147.984 50.4225C149.334 50.5074 150.4 51.0643 150.362 51.6608Z" fill="#F2937C"/>
<path d="M144.725 43.2809C142.589 38.2704 141.832 29.7898 151.073 26.458C153.341 25.6423 158.881 25.1229 160.714 27.1473C164.777 31.6344 155.632 33.404 153.185 33.6469C149.288 34.04 146.634 35.1084 144.725 43.2809Z" fill="#B7793E"/>
<path d="M184.547 82.2806C184.547 82.2806 165.569 96.939 184.547 108.187C183.771 110.086 173.44 138.945 171.493 140.158C165.714 143.754 134.154 145.374 133.161 137.059C129.913 109.936 129.541 108.41 132.721 99.0483C137.939 84.1036 141.751 76.0456 141.751 76.0456L144.403 75.1628L152.832 73.5117C152.832 73.5117 151.301 81.7138 158.284 82.1464C158.284 82.1464 169.523 83.1536 169.342 73.7922L184.547 82.2806Z" fill="#559FCA"/>
<path d="M196.518 97.441L203.329 140.66C203.329 140.66 201.709 144.892 196.427 146.786C196.427 146.786 191.43 149.831 188.766 137.681L176.688 93.7162C176.688 93.7162 174.866 82.358 186.65 84.9808C186.65 84.9828 195.154 86.9617 196.518 97.441Z" fill="#F7B6A0"/>
<path d="M151.717 207.313C151.465 207.313 151.248 207.121 151.227 206.863C151.063 205.107 150.807 202.747 150.515 200.061C149.574 191.405 148.285 179.549 148.596 173.821C148.612 173.547 148.827 173.335 149.117 173.353C149.388 173.369 149.597 173.602 149.584 173.877C149.278 179.523 150.561 191.331 151.501 199.956C151.792 202.644 152.05 205.014 152.214 206.772C152.238 207.042 152.039 207.283 151.765 207.311L151.717 207.313Z" fill="#21263D"/>
<path d="M181.645 81.2874C181.645 81.2874 171.844 82.8556 176.583 107.326L181.645 127.644C181.645 127.644 197.041 127.893 203.326 121.698L197.754 96.1749C197.756 96.1749 195.317 84.7338 181.645 81.2874Z" fill="#559FCA"/>
<path d="M125.922 145.251C127.731 147.064 128.712 147.064 129.709 147.064H137.756C139.968 147.064 139.99 145.818 139.442 144.685L121.82 127.895C119.916 126.084 119.124 126.084 118.125 126.084H108.62C107.281 126.084 106.64 128.213 107.744 128.865L125.922 145.251Z" fill="#00203E"/>
<path d="M125.904 145.317C127.857 147.126 128.712 147.126 129.711 147.126H136.449C138.256 147.126 138.806 146.448 138.256 145.317L120.338 128.393C119.144 127.208 118.297 127.054 117.298 127.054H109.081C107.744 127.054 107.288 127.895 107.744 128.867L125.904 145.317Z" fill="#003056"/>
<path d="M131.707 144.582C130.409 147.296 128.07 148.51 125.503 149.051C119.637 150.292 115.598 138.118 121.231 139.285C124.141 139.889 134.956 137.792 131.707 144.582Z" fill="#F7B6A0"/>
<path d="M147.602 44.3312C147.395 44.3312 147.186 44.2443 147.04 44.0745C146.772 43.7624 146.808 43.2943 147.115 43.0257C148.154 42.1251 149.889 42.1251 150.857 42.692C151.211 42.8993 151.33 43.3536 151.123 43.7091C150.914 44.0626 150.461 44.1811 150.106 43.9737C149.614 43.6854 148.605 43.6992 148.085 44.1515C147.947 44.272 147.775 44.3312 147.602 44.3312Z" fill="#B7793E"/>
<path d="M162.037 44.6064C161.865 44.6064 161.692 44.5451 161.552 44.4247C161.032 43.9724 160.021 43.9605 159.53 44.2509C159.178 44.4582 158.721 44.3378 158.514 43.9862C158.309 43.6327 158.427 43.1765 158.78 42.9691C159.747 42.4023 161.483 42.4023 162.521 43.3029C162.831 43.5715 162.866 44.0435 162.598 44.3536C162.45 44.5175 162.244 44.6064 162.037 44.6064Z" fill="#B7793E"/>
<path d="M180.676 259.313C201.358 278.903 222.713 333.616 222.713 333.616L216.022 337.996L164.003 273.649C164.003 273.649 160.594 270.967 160.594 259.53C160.594 259.528 172.337 249.795 180.676 259.313Z" fill="#F7B6A0"/>
<path d="M154.092 53.3847C152.795 53.3847 150.817 52.7586 150.415 51.6783C150.295 51.3583 150.214 50.7303 151.012 50.0943C153.134 48.4038 153.664 47.3392 153.481 45.145C153.459 44.8843 153.652 44.6572 153.91 44.6355C154.145 44.6217 154.395 44.8073 154.417 45.066C154.626 47.594 153.968 48.941 151.595 50.831C151.341 51.0325 151.241 51.2063 151.294 51.3504C151.501 51.9015 153.073 52.4979 154.222 52.4426C154.474 52.4189 154.699 52.6322 154.71 52.889C154.722 53.1496 154.523 53.3689 154.263 53.3807L154.092 53.3847Z" fill="#F2937C"/>
<path d="M151.204 56.2424L157.532 54.141C157.532 54.141 156.697 65.0311 151.204 56.2424Z" fill="white"/>
<path d="M160.966 58.3736C159.219 63.5836 158.385 69.2044 159.979 74.6336C161.42 79.5454 165.104 83.446 165.993 88.5099C167.656 97.9937 164.265 104.162 161.412 112.571C167.922 112.913 173.718 99.5204 176.942 95.1833C179.279 92.0411 181.996 89.2722 185.349 87.4374C189.548 85.1405 189.15 86.0312 193.148 90.9371C193.148 90.9371 193.575 82.3124 193.359 81.3644C192.742 78.6488 191.676 76.0418 190.037 73.7784C186.89 69.4335 180.041 66.2873 179.487 60.4473C178.429 49.2235 181.194 37.5414 173.482 30.4433C170.737 27.9173 167.088 26.5546 163.345 26.7284C160.332 26.8686 151.294 27.4532 150.866 30.8581C150.057 37.3084 161.587 44.6593 162.576 48.1767C164.235 54.0622 162.858 52.737 160.966 58.3736Z" fill="#B7793E"/>
<path d="M206.144 118.099C206.56 134.795 208.367 141.031 202.485 145.905C191.94 154.648 188.332 136.109 188.332 136.109C196.424 130.107 200.123 97.2254 200.123 97.2254C200.123 97.2254 202.18 94.6322 204.899 95.6059C204.899 95.6059 205.947 110.225 206.144 118.099Z" fill="#F7B6A0"/>
<path d="M201.691 97.5434C201.691 97.5434 200.759 98.3966 198.682 95.7778L197.143 92.4006C195.305 88.4565 195.232 87.7929 195.232 87.7929C194.901 86.209 196.8 84.3091 196.814 84.2933C197.683 83.4302 199.048 81.791 200.298 81.4493C202.351 80.8845 204.808 81.9055 206.213 83.0431C207.881 84.398 207.753 85.8377 207.848 87.8068C208.25 88.8792 204.725 97.8022 204.725 97.8022C204.725 97.8022 204.252 97.6461 201.691 97.5434Z" fill="#F7B6A0"/>
</g>
<defs>
<clipPath id="clip0_520_14231">
<rect width="236.04" height="370.44" fill="white" transform="matrix(-1 0 0 1 236.04 0.399902)"/>
</clipPath>
</defs>
</svg>
