<svg xmlns="http://www.w3.org/2000/svg" width="122" height="376" fill="none"><g clip-path="url(#a)"><path fill="#F49E87" d="m26.832 86.2-6.708 31.006s3.881 9.765 11.399 12.416c0 0 10.728-10 12.903-29.88 0 .005.273-16.794-17.594-13.542Z"/><path fill="#A13D26" d="M81.584 38.58c1.663-2.727 3.857-5.773 5.304-8.443 1.308-2.425-1.231-3.247 1.998-7.144 2.075-2.507-3.114-5.052-3.31-7.907-.23-3.334 1.883-4.905-.7-8.052-2.238-2.736-4.293-.51-6.861-2.387C75.964 3.152 76.72-.014 71.134.01c-1.289.005-1.916 1.408-3.095 1.857-1.356.511-2.837.048-4.126-.343-2.07-.626-3.373-1.452-5.198-.168-1.443 1.018-2.037 2.737-3.738 2.26-4.168-1.17-4.772.906-6.502 2.315-1.782 1.457-4.197 1.013-4.197 4.136.776 3.361.862 4.536-.34 7.54-1.85 4.599 9.635 8.424 12.457 11.537 1.759 1.944 2.027 4.264 3.431 6.346 1.907 2.813 4.816 2.097 7.671 2.947 2.909.86 2.166 4.856 5.333 5.124 2.76.215 7.494-2.918 8.754-4.98Z"/><path fill="#262B4E" d="M26.435 359.927c.263-.191 10.608-12.708 10.608-12.708l3.69-3.18 9.089 3.324 3.411 12.802L31.97 371.75s-6.023 3.525-14.94 1.213c0 0-1.965-.912-1.342-2.593.01.005-1.73-1.523 10.748-10.443Z"/><path fill="#827AB8" d="M20.12 102.264s7.565 5.749 23.032 5.749c0 0 15.975-38.135 7.37-47.696 0 0-14.48 2.14-20.125 9.054 0-.004-6.497 9.274-10.278 32.893Z"/><path fill="#262B4E" d="M82.174 362.41c.282-.168 11.552-11.862 11.552-11.862l3.924-2.889 8.807 4.006 2.424 13.022-22.088 9.933s-6.277 3.052-14.993.076c0 0-1.883-1.055-1.135-2.688 0 0-1.61-1.657 11.509-9.598Z"/><path fill="#21263D" d="M92.494 203.721c.288 0 .58 0 .863-.015a.507.507 0 0 0 .498-.53.524.524 0 0 0-.532-.497c-10.91.368-20.57-6.652-23.55-17.1a.52.52 0 0 0-.642-.353.508.508 0 0 0-.35.635c3.033 10.62 12.707 17.86 23.713 17.86Z"/><path fill="#333A4F" d="M33.742 160.203h64.981l2.688 20.457c.235 1.18 1.088 10.669.695 17.225H31.518l.805-11.341 1.419-26.341Z"/><path fill="#333A4F" d="m32.112 187.628-3.929 63.02 2.492 102.23s12.664 4.785 22.429-6.198l8.984-103.171 9.2-57.223c-.005-.005-34.23-14.255-39.175 1.342Z"/><path fill="#424A65" d="m57.593 180.331 12.463 77.012 16.104 97.512s16.641 4.073 23.967-2.583l-7.92-100.087v-54.983s.009-13.609-2.295-27.902c.004.005-35.103-4.675-42.319 11.031Z"/><path fill="#F7B6A0" d="M76.702 26.054c2.218-1.733 5.438.425 6.195 2.336.925 2.325.465 5.591-1.533 7.554-2.712 2.67-4.94.568-5.908-1.996-.776-2.068-1.107-6.055 1.246-7.894Z"/><path fill="#F7B6A0" d="m78.134 36.116-19.089.339.56 24.32 19.09-.343-.56-24.316Z"/><path fill="#F2937C" d="M72.653 49.998c1.835-4.04 2.894-8.118 2.472-13.151l-15.998.324.421 20.553c5.007-.864 11.145-3.419 13.105-7.726Z"/><path fill="#F7B6A0" d="m51.81 63.197 8.332-5.645 17.935.793 9.415 6.433-35.682-1.581Z"/><path fill="#827AB8" d="M29.793 190.522c.182-9.394 2.98-37.296 3.254-41.627.7-11.031.417-16.16 1.12-27.196l1.764-45.92c0-10.467 8.51-13.322 8.51-13.322 10.388-3.668 15.232-5.34 15.232-5.34s8.61 7.236 19.103.058c0 0 10.762 2.574 23.661 9.431 0 0 7.048 4.365 5.308 12.517l-7.057 53.813 3.876 62.714c.005 0-39.381 11.829-74.77-5.128Z"/><path fill="#A13D26" d="M58.226 7.21c3.948-1.312 2.927 2.279 2.094 6.543l-5.415 3.061c-4.57 2.526-3.32 7.025-3.589 11.542-.114 1.858-.618 3.691-.824 5.501-1.217-1.82-3.056-10.037-3.267-12.186 0 0-2.415-10.993 3.253-13.271-.01 0 5.232-1.409 7.748-1.19Z"/><path fill="#F7B6A0" d="M77.392 37.334c-.992 4.312-2.688 7.984-6.162 10.926-3.393 2.874-7.092 4.646-11.179 2.225-3.248-1.93-5.654-5.105-7.244-8.424-3.661-7.65-3.541-19.044.575-26.297 4.518-7.966 15.625-8.061 21.053-.784 4.423 5.922 4.557 15.396 2.957 22.354Z"/><path fill="#A13D26" d="M54.656 38.14c2.075-1.48 1.94-2.368 5.438-1.79 1.102.186 2.276.434 3.35.062 1.475-.501 5.04-1.576 6.324.41.374.578 1.126 2.522 2.1 2.44 1.03-.085 1.738-.71 2.218-1.627.608-1.151 1.169-2.436 1.341-3.73.201-1.485-.201-1.834-.201-3.63 0-.233 1.95-.104 2.185-.104-.14 3.252.33 5.644-.015 7.163-.991 4.312-2.688 7.984-6.161 10.926-3.393 2.874-7.092 4.646-11.179 2.225-3.248-1.93-5.654-5.105-7.244-8.424a24.852 24.852 0 0 1-1.079-2.693c1.131.277 1.495-.21 2.923-1.227Z"/><path fill="#F2937C" d="M80.257 33.958a.52.52 0 0 0 .292-.096.507.507 0 0 0 .134-.712c-1.226-1.79-1.293-3.562-.647-4.24a.518.518 0 0 0-.019-.73.518.518 0 0 0-.733.023c-1.092 1.151-.862 3.477.546 5.525.101.148.26.23.427.23Z"/><path fill="#F2937C" d="M79.203 31.069a.523.523 0 0 0 .402-.191c.24-.292.925-.397 1.495-.35a.52.52 0 0 0 .556-.472.512.512 0 0 0-.474-.554c-.393-.028-1.73-.067-2.377.73a.514.514 0 0 0 .072.727c.096.071.21.11.326.11ZM70.794 32.133c.057.64-1.069 1.27-2.52 1.414-1.452.138-2.679-.268-2.746-.907-.058-.64 1.069-1.27 2.52-1.414 1.457-.138 2.683.268 2.746.907ZM56.788 33.098c.063.64-1.063 1.27-2.515 1.413-1.457.139-2.683-.267-2.74-.907-.068-.64 1.063-1.275 2.515-1.413 1.451-.139 2.678.267 2.74.907Z"/><path fill="#A13D26" d="M53.104 27.554a.647.647 0 0 0 .417-.148c.187-.148 1.911-1.423 4.542-.34a.669.669 0 1 0 .513-1.237c-2.54-1.045-4.758-.367-5.889.531a.667.667 0 0 0-.105.94c.129.168.325.254.522.254ZM64.019 26.365a.68.68 0 0 0 .474-.196c1.097-1.103 3.21-1.05 4.37-.258a.677.677 0 0 0 .934-.177.67.67 0 0 0-.177-.926c-1.63-1.108-4.461-1.203-6.076.42a.664.664 0 0 0 .475 1.137Z"/><path fill="#A13D26" d="M70.171 16.976c2.813 2.188 4.633 11.199 5.304 14.904 1.155-.176 1.49.268 1.826-1.065.254-1.003.278-4.632.958-5.463 1.643-1.986 3.632.005 4.168 1.194 3.867-15.52-5.016-21.474-5.016-21.474-7.048-5.249-17.412-2.197-17.412-2.197s-9.535-.234-13.033 10.668c0 0 4.197 6.676 12.127 2.789 0-.005 7.206-2.364 11.078.644Z"/><path fill="#21263D" d="M56.568 30.047c.12.864-.206 1.628-.728 1.695-.523.071-1.045-.578-1.16-1.442-.115-.87.211-1.629.728-1.696.527-.071 1.05.578 1.16 1.443ZM67.89 28.523c.12.87-.21 1.629-.728 1.695-.522.072-1.045-.577-1.16-1.442-.12-.869.206-1.628.729-1.7.522-.071 1.044.578 1.16 1.447Z"/><path fill="#fff" d="M58.925 38.623c.24 2.049 1.893 3.577 3.786 3.443 1.892-.124 3.315-1.867 3.277-3.93l-7.063.487Z"/><path fill="#F49E87" d="M111.181 138.628c-4.102 1.304-8.673-10.907-9.617-14.264-8.13-28.929-15.902-41.727-14.513-48.474-.24-1.428 9.741-18.796 19.957-3.515 3.713 4.98 16.247 49.544 14.513 65.093 0 0-1.404-1.013-10.34 1.16Z"/><path fill="#827AB8" d="M99.547 65.121s12.357 4.866 15.453 17.55l7 31.646s-12.841 15.352-26.593 8.93l-9.75-43.675c-.005 0 1.231-17.115 13.89-14.45Z"/><path fill="#F7B6A0" d="M65.025 113.648s-2.353.769-3.004 3.682c27.076 13.868 48.101 22.349 48.101 22.349 9.267 2.254 11.073-.95 11.073-.95 3.095-7.226-5.156-13.906-5.156-13.906s-2.314-3.883-26.664-7.531l-24.35-3.644Z"/><path fill="#F7B6A0" d="m51.6 112.688 4.067 3.907s1.845 2.464 4.313 2.454l4.83-.296 1.015-5.095-7.815-8.305-7.748-4.116s-1.035 2.216.786 4.427c0 0-2.597.449.173 3.768 0 0-1.591.372.378 3.256Z"/><path fill="#F7B6A0" d="M56.098 104.332 45.414 94.084s-1.242.148-.935 2.201l7.12 8.238c-.005 0 3.086 2.11 4.5-.191Z"/><path fill="#00203E" d="M12.39 79.495c.82 1.877 1.678 1.877 2.722 1.877h9.622c1.887 0 2.458-.707 1.887-1.877l-12.213-24.97c-1.078-1.877-1.873-1.877-2.913-1.877H1.577c-1.395 0-1.874.874-1.395 1.877l12.209 24.97Z"/><path fill="#003056" d="M12.372 79.557c.819 1.877 1.677 1.877 2.716 1.877h8.275c1.888 0 2.458-.707 1.888-1.877l-11.71-24.03c-1.078-1.876-1.879-1.876-2.918-1.876H2.056c-1.395 0-1.869.87-1.395 1.877l11.71 24.03Z"/><path fill="#F49E87" d="M31.518 129.627s-14.125-.001-20.186-26.742L3.33 71.745l6.555 4.288 22.692 38.408s4.614 9.001-1.059 15.186Z"/><path fill="#F49E87" d="M10.517 77.098 3.33 71.745l-.949-8.013c2.75-6.108 10.46-8.825 10.46-8.825s1.088.602.293 1.8c0 0-1.812 1.347-3.44 1.977 0 0-1.304 1.877-2.282 2.76l4.993-.993 4.993 2.54s-.192 1.806-2.487 1.118l-2.142-1.05-3.737.835 3.421-.53 4.509 2.646s.134 1.475-1.71 1.179l-3.302-1.561-1.797.673 1.931-.01 3.944 2.68s-.365 1.628-2.645.93l-2.67-1.642c-.004 0 1.486 4.918-.196 8.839Z"/><path fill="#F2937C" d="M60.224 35.404a.516.516 0 0 0 .134-1.012c-.925-.248-1.289-.602-1.457-1.065 2.415-1.58 2.655-2.483 2.655-5.534a.518.518 0 0 0-1.035 0c0 2.922-.139 3.38-2.487 4.86a.504.504 0 0 0-.23.53c.211 1.152.915 1.835 2.286 2.202.043.01.086.02.134.02Z"/></g><defs><clipPath id="a"><path fill="#fff" d="M0 0h122v376H0z"/></clipPath></defs></svg>