<svg xmlns="http://www.w3.org/2000/svg" width="30" height="30" fill="none"><path fill="#EFF2F5" d="M0 14.4C0 7.612 0 4.218 2.109 2.109S7.612 0 14.4 0h1.2c6.788 0 10.182 0 12.291 2.109S30 7.612 30 14.4v1.2c0 6.788 0 10.182-2.109 12.291S22.388 30 15.6 30h-1.2c-6.788 0-10.182 0-12.291-2.109S0 22.388 0 15.6v-1.2Z"/><path fill="#080808" d="M16.016 21.688C9.26 21.688 5.16 16.99 5 9.188h3.422c.106 5.732 2.71 8.161 4.705 8.66v-8.66h3.28v4.947c1.924-.214 3.94-2.464 4.616-4.947h3.228c-.517 3.053-2.71 5.303-4.26 6.231 1.551.751 4.047 2.715 5.009 6.268h-3.548c-.749-2.375-2.584-4.214-5.044-4.464v4.465h-.392Z"/></svg>