<svg width="37" height="26" viewBox="0 0 37 26" fill="none" xmlns="http://www.w3.org/2000/svg">
<path d="M36.2263 4.01421C35.8 2.43332 34.5481 1.19096 32.9551 0.767778C30.0709 2.29825e-07 18.4999 0 18.4999 0C18.4999 0 6.92912 2.29825e-07 4.04477 0.767778C2.45185 1.19096 1.20003 2.43332 0.773625 4.01421C2.31575e-07 6.87675 0 12.8527 0 12.8527C0 12.8527 2.31575e-07 18.8287 0.773625 21.6913C1.20003 23.2722 2.45185 24.5145 4.04477 24.9376C6.92912 25.7054 18.4999 25.7054 18.4999 25.7054C18.4999 25.7054 30.0709 25.7054 32.9551 24.9376C34.5481 24.5145 35.8 23.2722 36.2263 21.6913C37 18.8287 37 12.8527 37 12.8527C37 12.8527 36.9969 6.87675 36.2263 4.01421Z" fill="white"/>
<path d="M14.7969 18.3606L24.4093 12.8532L14.7969 7.3457V18.3606Z" fill="#080808"/>
</svg>
